SeanSans-NarrowMedium.ufo
<glyph name="exclam" format="1">
  <advance width="251"/>
  <unicode hex="0021"/>
  <outline>
    <contour>
      <point x="167" y="229" type="line"/>
      <point x="176" y="722" type="line"/>
      <point x="75" y="722" type="line"/>
      <point x="83" y="229" type="line"/>
    </contour>
    <contour>
      <point x="176" y="39" type="curve"/>
      <point x="176" y="70"/>
      <point x="155" y="86"/>
      <point x="125" y="86" type="curve"/>
      <point x="95" y="86"/>
      <point x="75" y="69"/>
      <point x="75" y="39" type="curve"/>
      <point x="173" y="39"/>
      <point x="78" y="39"/>
      <point x="176" y="39" type="curve"/>
      <point x="176" y="7"/>
      <point x="155" y="-7"/>
      <point x="125" y="-7" type="curve"/>
      <point x="94" y="-7"/>
      <point x="75" y="8"/>
      <point x="75" y="39" type="curve"/>
      <point x="173" y="39"/>
      <point x="78" y="39"/>
    </contour>
  </outline>
</glyph>
<glyph name="quotedbl" format="1">
  <advance width="390"/>
  <unicode hex="0022"/>
  <outline>
    <contour>
      <point x="145" y="618" type="line"/>
      <point x="152" y="824" type="line"/>
      <point x="57" y="824" type="line"/>
      <point x="63" y="618" type="line"/>
    </contour>
    <contour>
      <point x="326" y="618" type="line"/>
      <point x="333" y="824" type="line"/>
      <point x="238" y="824" type="line"/>
      <point x="244" y="618" type="line"/>
    </contour>
  </outline>
</glyph>
<glyph name="numbersign" format="1">
  <advance width="620"/>
  <unicode hex="0023"/>
  <outline>
    <contour>
      <point x="39" y="231" type="curve"/>
      <point x="500" y="231" type="curve"/>
      <point x="520" y="301" type="curve"/>
      <point x="60" y="301" type="curve"/>
    </contour>
    <contour>
      <point x="99" y="458" type="curve"/>
      <point x="562" y="458" type="curve"/>
      <point x="582" y="528" type="curve"/>
      <point x="119" y="528" type="curve"/>
    </contour>
    <contour>
      <point x="382" y="39" type="curve"/>
      <point x="574" y="722" type="curve"/>
      <point x="484" y="722" type="curve"/>
      <point x="292" y="39" type="curve"/>
    </contour>
    <contour>
      <point x="143" y="46" type="curve"/>
      <point x="332" y="722" type="curve"/>
      <point x="243" y="722" type="curve"/>
      <point x="57" y="46" type="curve"/>
    </contour>
  </outline>
</glyph>
<glyph name="dollar" format="1">
  <advance width="514"/>
  <unicode hex="0024"/>
  <outline>
    <contour>
      <point x="283" y="-42" type="curve"/>
      <point x="283" y="-10"/>
      <point x="283" y="48"/>
      <point x="283" y="80" type="curve"/>
      <point x="193" y="80"/>
      <point x="283" y="80"/>
      <point x="193" y="80" type="curve"/>
      <point x="193" y="48"/>
      <point x="193" y="-10"/>
      <point x="193" y="-42" type="curve"/>
      <point x="283" y="-42"/>
      <point x="193" y="-42"/>
    </contour>
    <contour>
      <point x="294" y="650" type="curve"/>
      <point x="294" y="682"/>
      <point x="294" y="741"/>
      <point x="294" y="773" type="curve"/>
      <point x="204" y="773"/>
      <point x="294" y="773"/>
      <point x="204" y="773" type="curve"/>
      <point x="204" y="741"/>
      <point x="204" y="682"/>
      <point x="204" y="650" type="curve"/>
      <point x="294" y="650"/>
      <point x="204" y="650"/>
    </contour>
    <contour>
      <point x="46" y="95" type="curve"/>
      <point x="98" y="68"/>
      <point x="161" y="45"/>
      <point x="234" y="45" type="curve"/>
      <point x="368" y="45"/>
      <point x="473" y="100"/>
      <point x="473" y="211" type="curve"/>
      <point x="473" y="310"/>
      <point x="381" y="358"/>
      <point x="277" y="406" type="curve"/>
      <point x="204" y="439"/>
      <point x="142" y="465"/>
      <point x="142" y="530" type="curve"/>
      <point x="142" y="584"/>
      <point x="187" y="616"/>
      <point x="251" y="616" type="curve"/>
      <point x="309" y="616"/>
      <point x="348" y="601"/>
      <point x="399" y="574" type="curve"/>
      <point x="441" y="634"/>
      <point x="399" y="574"/>
      <point x="441" y="634" type="curve"/>
      <point x="380" y="667"/>
      <point x="328" y="686"/>
      <point x="255" y="686" type="curve"/>
      <point x="137" y="686"/>
      <point x="52" y="630"/>
      <point x="52" y="530" type="curve"/>
      <point x="52" y="434"/>
      <point x="125" y="387"/>
      <point x="224" y="342" type="curve"/>
      <point x="303" y="308"/>
      <point x="383" y="279"/>
      <point x="383" y="207" type="curve"/>
      <point x="383" y="146"/>
      <point x="321" y="114"/>
      <point x="242" y="114" type="curve"/>
      <point x="185" y="114"/>
      <point x="136" y="137"/>
      <point x="92" y="158" type="curve"/>
      <point x="46" y="95"/>
      <point x="92" y="158"/>
    </contour>
  </outline>
</glyph>
<glyph name="percent" format="1">
  <advance width="991"/>
  <unicode hex="0025"/>
  <outline>
    <contour>
      <point x="356" y="-62" type="line"/>
      <point x="733" y="730" type="line"/>
      <point x="649" y="730" type="line"/>
      <point x="271" y="-62" type="line"/>
    </contour>
    <contour>
      <point x="112" y="520" type="curve"/>
      <point x="112" y="604"/>
      <point x="138" y="669"/>
      <point x="214" y="669" type="curve"/>
      <point x="291" y="670"/>
      <point x="318" y="605"/>
      <point x="318" y="520" type="curve"/>
      <point x="318" y="436"/>
      <point x="295" y="369"/>
      <point x="219" y="369" type="curve"/>
      <point x="140" y="369"/>
      <point x="112" y="434"/>
      <point x="112" y="520" type="curve"/>
      <point x="83" y="520"/>
      <point x="63" y="520"/>
      <point x="33" y="520" type="curve"/>
      <point x="33" y="393"/>
      <point x="94" y="304"/>
      <point x="215" y="304" type="curve"/>
      <point x="339" y="304"/>
      <point x="400" y="394"/>
      <point x="400" y="523" type="curve"/>
      <point x="400" y="649"/>
      <point x="339" y="734"/>
      <point x="218" y="734" type="curve"/>
      <point x="96" y="734"/>
      <point x="33" y="648"/>
      <point x="33" y="520" type="curve"/>
      <point x="63" y="520"/>
      <point x="83" y="520"/>
    </contour>
    <contour>
      <point x="669" y="151" type="curve"/>
      <point x="669" y="235"/>
      <point x="696" y="299"/>
      <point x="772" y="299" type="curve"/>
      <point x="849" y="300"/>
      <point x="875" y="235"/>
      <point x="875" y="150" type="curve"/>
      <point x="875" y="66"/>
      <point x="852" y="-1"/>
      <point x="777" y="-1" type="curve"/>
      <point x="698" y="-1"/>
      <point x="669" y="65"/>
      <point x="669" y="151" type="curve"/>
      <point x="640" y="151"/>
      <point x="620" y="151"/>
      <point x="591" y="151" type="curve"/>
      <point x="591" y="23"/>
      <point x="651" y="-66"/>
      <point x="773" y="-66" type="curve"/>
      <point x="896" y="-66"/>
      <point x="958" y="24"/>
      <point x="958" y="154" type="curve"/>
      <point x="958" y="280"/>
      <point x="896" y="365"/>
      <point x="775" y="365" type="curve"/>
      <point x="653" y="365"/>
      <point x="591" y="278"/>
      <point x="591" y="151" type="curve"/>
      <point x="620" y="151"/>
      <point x="640" y="151"/>
    </contour>
  </outline>
</glyph>
<glyph name="ampersand" format="1">
  <advance width="638"/>
  <unicode hex="0026"/>
  <outline>
    <contour>
      <point x="615" y="33" type="line"/>
      <point x="521" y="137"/>
      <point x="420" y="258"/>
      <point x="324" y="365" type="curve"/>
      <point x="270" y="427"/>
      <point x="202" y="477"/>
      <point x="202" y="562" type="curve"/>
      <point x="202" y="614"/>
      <point x="226" y="657"/>
      <point x="274" y="657" type="curve"/>
      <point x="326" y="657"/>
      <point x="355" y="619"/>
      <point x="355" y="564" type="curve"/>
      <point x="355" y="486"/>
      <point x="300" y="447"/>
      <point x="233" y="406" type="curve"/>
      <point x="139" y="347"/>
      <point x="56" y="298"/>
      <point x="56" y="190" type="curve"/>
      <point x="56" y="69"/>
      <point x="144" y="-5"/>
      <point x="268" y="-5" type="curve"/>
      <point x="449" y="-5"/>
      <point x="538" y="134"/>
      <point x="592" y="315" type="curve"/>
      <point x="515" y="332"/>
      <point x="592" y="315"/>
      <point x="515" y="332" type="curve"/>
      <point x="471" y="187"/>
      <point x="412" y="65"/>
      <point x="272" y="65" type="curve"/>
      <point x="196" y="65"/>
      <point x="146" y="113"/>
      <point x="146" y="190" type="curve"/>
      <point x="146" y="269"/>
      <point x="204" y="306"/>
      <point x="272" y="349" type="curve"/>
      <point x="363" y="407"/>
      <point x="444" y="457"/>
      <point x="445" y="564" type="curve"/>
      <point x="445" y="664"/>
      <point x="377" y="727"/>
      <point x="278" y="727" type="curve"/>
      <point x="179" y="727"/>
      <point x="116" y="661"/>
      <point x="116" y="562" type="curve"/>
      <point x="116" y="459"/>
      <point x="192" y="398"/>
      <point x="260" y="323" type="curve"/>
      <point x="354" y="217"/>
      <point x="464" y="89"/>
      <point x="555" y="-13" type="curve"/>
    </contour>
  </outline>
</glyph>
<glyph name="parenleft" format="1">
  <advance width="335"/>
  <unicode hex="0028"/>
  <outline>
    <contour>
      <point x="332" y="-219" type="curve"/>
      <point x="186" y="-52"/>
      <point x="134" y="103"/>
      <point x="134" y="326" type="curve"/>
      <point x="134" y="549"/>
      <point x="187" y="704"/>
      <point x="331" y="874" type="curve"/>
      <point x="277" y="918"/>
      <point x="331" y="874"/>
      <point x="277" y="918" type="curve"/>
      <point x="117" y="736"/>
      <point x="46" y="571"/>
      <point x="46" y="326" type="curve"/>
      <point x="46" y="80"/>
      <point x="118" y="-84"/>
      <point x="278" y="-268" type="curve"/>
      <point x="332" y="-219"/>
      <point x="278" y="-268"/>
    </contour>
  </outline>
</glyph>
<glyph name="parenright" format="1">
  <advance width="345"/>
  <unicode hex="0029"/>
  <outline>
    <contour>
      <point x="54" y="-282" type="curve"/>
      <point x="217" y="-91"/>
      <point x="299" y="74"/>
      <point x="299" y="328" type="curve"/>
      <point x="299" y="576"/>
      <point x="224" y="739"/>
      <point x="58" y="920" type="curve"/>
      <point x="4" y="871"/>
      <point x="58" y="920"/>
      <point x="4" y="871" type="curve"/>
      <point x="153" y="703"/>
      <point x="210" y="550"/>
      <point x="210" y="325" type="curve"/>
      <point x="210" y="95"/>
      <point x="144" y="-60"/>
      <point x="0" y="-237" type="curve"/>
      <point x="54" y="-282"/>
      <point x="0" y="-237"/>
    </contour>
  </outline>
</glyph>
<glyph name="asterisk" format="1">
  <advance width="595"/>
  <unicode hex="002A"/>
  <outline>
    <contour>
      <point x="327" y="581" type="line"/>
      <point x="332" y="787" type="line"/>
      <point x="261" y="787" type="line"/>
      <point x="266" y="581" type="line"/>
    </contour>
    <contour>
      <point x="342" y="528" type="line"/>
      <point x="538" y="591" type="line"/>
      <point x="515" y="658" type="line"/>
      <point x="322" y="585" type="line"/>
    </contour>
    <contour>
      <point x="296" y="497" type="line"/>
      <point x="420" y="331" type="line"/>
      <point x="475" y="376" type="line"/>
      <point x="343" y="535" type="line"/>
    </contour>
    <contour>
      <point x="254" y="534" type="line"/>
      <point x="121" y="375" type="line"/>
      <point x="177" y="331" type="line"/>
      <point x="301" y="496" type="line"/>
    </contour>
    <contour>
      <point x="273" y="583" type="line"/>
      <point x="79" y="656" type="line"/>
      <point x="56" y="589" type="line"/>
      <point x="252" y="526" type="line"/>
    </contour>
  </outline>
</glyph>
<glyph name="plus" format="1">
  <advance width="611"/>
  <unicode hex="002B"/>
  <outline>
    <contour>
      <point x="39" y="274" type="curve"/>
      <point x="572" y="274" type="line"/>
      <point x="572" y="350"/>
      <point x="572" y="274"/>
      <point x="572" y="350" type="curve"/>
      <point x="39" y="350" type="line"/>
      <point x="39" y="274"/>
      <point x="39" y="350"/>
    </contour>
    <contour>
      <point x="348" y="34" type="curve"/>
      <point x="348" y="584" type="line"/>
      <point x="258" y="584"/>
      <point x="353" y="584"/>
      <point x="264" y="584" type="curve"/>
      <point x="264" y="34" type="line"/>
      <point x="353" y="34"/>
      <point x="258" y="34"/>
    </contour>
  </outline>
</glyph>
<glyph name="comma" format="1">
  <advance width="181"/>
  <unicode hex="002C"/>
  <outline>
    <contour>
      <point x="21" y="-114" type="line"/>
      <point x="89" y="-103"/>
      <point x="136" y="-51"/>
      <point x="136" y="29" type="curve"/>
      <point x="136" y="85"/>
      <point x="115" y="120"/>
      <point x="78" y="120" type="curve"/>
      <point x="48" y="120"/>
      <point x="27" y="104"/>
      <point x="27" y="73" type="curve"/>
      <point x="27" y="46"/>
      <point x="43" y="28"/>
      <point x="72" y="26" type="curve"/>
      <point x="72" y="-2"/>
      <point x="63" y="-46"/>
      <point x="14" y="-64" type="curve"/>
    </contour>
  </outline>
</glyph>
<glyph name="hyphen" format="1">
  <advance width="395"/>
  <unicode hex="002D"/>
  <outline>
    <contour>
      <point x="69" y="240" type="curve"/>
      <point x="155" y="240"/>
      <point x="241" y="240"/>
      <point x="326" y="240" type="curve"/>
      <point x="326" y="317"/>
      <point x="326" y="240"/>
      <point x="326" y="317" type="curve"/>
      <point x="241" y="317"/>
      <point x="155" y="317"/>
      <point x="69" y="317" type="curve"/>
      <point x="69" y="240"/>
      <point x="69" y="317"/>
    </contour>
  </outline>
</glyph>
<glyph name="period" format="1">
  <advance width="218"/>
  <unicode hex="002E"/>
  <outline>
    <contour>
      <point x="160" y="39" type="curve"/>
      <point x="160" y="70"/>
      <point x="138" y="86"/>
      <point x="108" y="86" type="curve"/>
      <point x="78" y="86"/>
      <point x="58" y="69"/>
      <point x="58" y="39" type="curve"/>
      <point x="157" y="39"/>
      <point x="61" y="39"/>
      <point x="160" y="39" type="curve"/>
      <point x="160" y="7"/>
      <point x="138" y="-7"/>
      <point x="108" y="-7" type="curve"/>
      <point x="77" y="-7"/>
      <point x="58" y="8"/>
      <point x="58" y="39" type="curve"/>
      <point x="157" y="39"/>
      <point x="61" y="39"/>
    </contour>
  </outline>
</glyph>
<glyph name="slash" format="1">
  <advance width="514"/>
  <unicode hex="002F"/>
  <outline>
    <contour>
      <point x="114" y="-38" type="curve"/>
      <point x="239" y="245"/>
      <point x="365" y="527"/>
      <point x="491" y="810" type="curve"/>
      <point x="401" y="810"/>
      <point x="491" y="810"/>
      <point x="401" y="810" type="curve"/>
      <point x="275" y="527"/>
      <point x="149" y="245"/>
      <point x="24" y="-38" type="curve"/>
      <point x="114" y="-38"/>
      <point x="24" y="-38"/>
    </contour>
  </outline>
</glyph>
<glyph name="zero" format="1">
  <advance width="658"/>
  <unicode hex="0030"/>
  <outline>
    <contour>
      <point x="145" y="360" type="curve"/>
      <point x="145" y="526"/>
      <point x="189" y="654"/>
      <point x="327" y="654" type="curve"/>
      <point x="468" y="654"/>
      <point x="514" y="528"/>
      <point x="514" y="363" type="curve"/>
      <point x="514" y="197"/>
      <point x="470" y="69"/>
      <point x="334" y="69" type="curve"/>
      <point x="194" y="69"/>
      <point x="145" y="194"/>
      <point x="145" y="360" type="curve"/>
      <point x="57" y="360"/>
      <point x="145" y="360"/>
      <point x="56" y="360" type="curve"/>
      <point x="56" y="147"/>
      <point x="136" y="-5"/>
      <point x="330" y="-5" type="curve"/>
      <point x="525" y="-5"/>
      <point x="603" y="148"/>
      <point x="603" y="363" type="curve"/>
      <point x="603" y="575"/>
      <point x="526" y="727"/>
      <point x="335" y="727" type="curve"/>
      <point x="139" y="727"/>
      <point x="56" y="575"/>
      <point x="56" y="360" type="curve"/>
      <point x="145" y="360"/>
      <point x="57" y="360"/>
    </contour>
  </outline>
</glyph>
<glyph name="one" format="1">
  <advance width="358"/>
  <unicode hex="0031"/>
  <outline>
    <contour>
      <point x="66" y="502" type="curve"/>
      <point x="260" y="677"/>
      <point x="66" y="502"/>
      <point x="260" y="677" type="curve"/>
      <point x="193" y="722"/>
      <point x="260" y="677"/>
      <point x="193" y="722" type="curve"/>
      <point x="16" y="561"/>
      <point x="193" y="722"/>
      <point x="16" y="561" type="curve"/>
      <point x="66" y="502"/>
      <point x="16" y="561"/>
    </contour>
    <contour>
      <point x="281" y="0" type="curve"/>
      <point x="281" y="241"/>
      <point x="281" y="481"/>
      <point x="281" y="722" type="curve"/>
      <point x="193" y="722"/>
      <point x="281" y="722"/>
      <point x="193" y="722" type="curve"/>
      <point x="193" y="481"/>
      <point x="193" y="241"/>
      <point x="193" y="0" type="curve"/>
      <point x="281" y="0"/>
      <point x="193" y="0"/>
    </contour>
  </outline>
</glyph>
<glyph name="two" format="1">
  <advance width="525"/>
  <unicode hex="0032"/>
  <outline>
    <contour>
      <point x="40" y="0" type="curve"/>
      <point x="209" y="0"/>
      <point x="350" y="0"/>
      <point x="478" y="0" type="curve"/>
      <point x="478" y="70"/>
      <point x="478" y="0"/>
      <point x="478" y="70" type="curve"/>
      <point x="336" y="70"/>
      <point x="183" y="70"/>
      <point x="41" y="70" type="curve"/>
      <point x="40" y="0"/>
      <point x="41" y="70"/>
    </contour>
    <contour>
      <point x="111" y="537" type="curve"/>
      <point x="151" y="604"/>
      <point x="185" y="654"/>
      <point x="258" y="654" type="curve"/>
      <point x="337" y="654"/>
      <point x="374" y="599"/>
      <point x="374" y="513" type="curve"/>
      <point x="374" y="405"/>
      <point x="305" y="326"/>
      <point x="237" y="262" type="curve"/>
      <point x="171" y="197"/>
      <point x="108" y="135"/>
      <point x="41" y="70" type="curve"/>
      <point x="45" y="0"/>
      <point x="41" y="70"/>
      <point x="45" y="0" type="curve"/>
      <point x="155" y="65"/>
      <point x="224" y="139"/>
      <point x="295" y="210" type="curve"/>
      <point x="382" y="289"/>
      <point x="460" y="379"/>
      <point x="460" y="517" type="curve"/>
      <point x="460" y="649"/>
      <point x="390" y="727"/>
      <point x="262" y="727" type="curve"/>
      <point x="158" y="727"/>
      <point x="92" y="667"/>
      <point x="48" y="575" type="curve"/>
      <point x="111" y="537"/>
      <point x="48" y="575"/>
    </contour>
  </outline>
</glyph>
<glyph name="three" format="1">
  <advance width="506"/>
  <unicode hex="0033"/>
  <outline>
    <contour>
      <point x="43" y="57" type="curve"/>
      <point x="96" y="20"/>
      <point x="148" y="-5"/>
      <point x="219" y="-5" type="curve"/>
      <point x="362" y="-5"/>
      <point x="453" y="62"/>
      <point x="453" y="205" type="curve"/>
      <point x="453" y="336"/>
      <point x="326" y="401"/>
      <point x="144" y="401" type="curve"/>
      <point x="144" y="346"/>
      <point x="144" y="397"/>
      <point x="144" y="342" type="curve"/>
      <point x="266" y="342"/>
      <point x="366" y="294"/>
      <point x="366" y="202" type="curve"/>
      <point x="366" y="111"/>
      <point x="303" y="69"/>
      <point x="223" y="69" type="curve"/>
      <point x="174" y="69"/>
      <point x="135" y="85"/>
      <point x="89" y="112" type="curve"/>
      <point x="43" y="57"/>
      <point x="89" y="112"/>
    </contour>
    <contour>
      <point x="100" y="591" type="curve"/>
      <point x="124" y="620"/>
      <point x="166" y="654"/>
      <point x="217" y="654" type="curve"/>
      <point x="293" y="654"/>
      <point x="337" y="614"/>
      <point x="337" y="537" type="curve"/>
      <point x="337" y="456"/>
      <point x="252" y="413"/>
      <point x="144" y="413" type="curve"/>
      <point x="144" y="357"/>
      <point x="144" y="408"/>
      <point x="144" y="353" type="curve"/>
      <point x="303" y="353"/>
      <point x="423" y="415"/>
      <point x="423" y="540" type="curve"/>
      <point x="423" y="662"/>
      <point x="346" y="727"/>
      <point x="224" y="727" type="curve"/>
      <point x="146" y="727"/>
      <point x="80" y="684"/>
      <point x="46" y="638" type="curve"/>
      <point x="100" y="591"/>
      <point x="46" y="638"/>
    </contour>
  </outline>
</glyph>
<glyph name="four" format="1">
  <advance width="549"/>
  <unicode hex="0034"/>
  <outline>
    <contour>
      <point x="57" y="258" type="line"/>
      <point x="369" y="697" type="line"/>
      <point x="295" y="708" type="line"/>
      <point x="18" y="320" type="line"/>
    </contour>
    <contour>
      <point x="513" y="320" type="line"/>
      <point x="18" y="320" type="line"/>
      <point x="18" y="244" type="line"/>
      <point x="513" y="244" type="line"/>
    </contour>
    <contour>
      <point x="385" y="0" type="line"/>
      <point x="385" y="708" type="line"/>
      <point x="296" y="708" type="line"/>
      <point x="296" y="0" type="line"/>
    </contour>
  </outline>
</glyph>
<glyph name="five" format="1">
  <advance width="498"/>
  <unicode hex="0035"/>
  <outline>
    <contour>
      <point x="77" y="722" type="curve"/>
      <point x="77" y="623"/>
      <point x="77" y="515"/>
      <point x="77" y="389" type="curve"/>
      <point x="163" y="364"/>
      <point x="77" y="389"/>
      <point x="162" y="364" type="curve"/>
      <point x="162" y="458"/>
      <point x="162" y="558"/>
      <point x="162" y="652" type="curve"/>
      <point x="77" y="722"/>
      <point x="162" y="652"/>
    </contour>
    <contour>
      <point x="162" y="364" type="curve"/>
      <point x="178" y="375"/>
      <point x="211" y="387"/>
      <point x="239" y="387" type="curve"/>
      <point x="324" y="387"/>
      <point x="362" y="322"/>
      <point x="362" y="233" type="curve"/>
      <point x="362" y="141"/>
      <point x="311" y="68"/>
      <point x="223" y="68" type="curve"/>
      <point x="173" y="68"/>
      <point x="137" y="81"/>
      <point x="90" y="106" type="curve"/>
      <point x="47" y="43"/>
      <point x="90" y="106"/>
      <point x="47" y="43" type="curve"/>
      <point x="98" y="12"/>
      <point x="158" y="-5"/>
      <point x="225" y="-5" type="curve"/>
      <point x="359" y="-5"/>
      <point x="451" y="93"/>
      <point x="451" y="234" type="curve"/>
      <point x="451" y="366"/>
      <point x="377" y="461"/>
      <point x="249" y="461" type="curve"/>
      <point x="195" y="461"/>
      <point x="137" y="442"/>
      <point x="91" y="391" type="curve"/>
      <point x="164" y="367"/>
      <point x="90" y="387"/>
    </contour>
    <contour>
      <point x="425" y="722" type="curve"/>
      <point x="310" y="722"/>
      <point x="188" y="722"/>
      <point x="77" y="722" type="curve"/>
      <point x="162" y="652"/>
      <point x="77" y="722"/>
      <point x="162" y="652" type="curve"/>
      <point x="245" y="652"/>
      <point x="338" y="652"/>
      <point x="425" y="652" type="curve"/>
      <point x="425" y="722"/>
      <point x="425" y="652"/>
    </contour>
  </outline>
</glyph>
<glyph name="six" format="1">
  <advance width="551"/>
  <unicode hex="0036"/>
  <outline>
    <contour>
      <point x="126" y="221" type="curve"/>
      <point x="152" y="299"/>
      <point x="204" y="358"/>
      <point x="287" y="358" type="curve"/>
      <point x="372" y="358"/>
      <point x="413" y="303"/>
      <point x="413" y="215" type="curve"/>
      <point x="413" y="133"/>
      <point x="371" y="73"/>
      <point x="290" y="73" type="curve"/>
      <point x="189" y="73"/>
      <point x="139" y="145"/>
      <point x="139" y="252" type="curve"/>
      <point x="139" y="472"/>
      <point x="275" y="595"/>
      <point x="489" y="665" type="curve"/>
      <point x="466" y="731"/>
      <point x="489" y="665"/>
      <point x="466" y="731" type="curve"/>
      <point x="220" y="656"/>
      <point x="52" y="511"/>
      <point x="52" y="248" type="curve"/>
      <point x="52" y="92"/>
      <point x="136" y="-9"/>
      <point x="288" y="-9" type="curve"/>
      <point x="424" y="-9"/>
      <point x="503" y="78"/>
      <point x="503" y="215" type="curve"/>
      <point x="503" y="350"/>
      <point x="428" y="432"/>
      <point x="300" y="432" type="curve"/>
      <point x="177" y="432"/>
      <point x="103" y="338"/>
      <point x="76" y="245" type="curve"/>
      <point x="125" y="221"/>
      <point x="76" y="245"/>
    </contour>
  </outline>
</glyph>
<glyph name="eight" format="1">
  <advance width="542"/>
  <unicode hex="0038"/>
  <outline>
    <contour>
      <point x="73" y="549" type="curve"/>
      <point x="73" y="441"/>
      <point x="148" y="404"/>
      <point x="245" y="353" type="curve"/>
      <point x="331" y="306"/>
      <point x="397" y="272"/>
      <point x="397" y="183" type="curve"/>
      <point x="397" y="107"/>
      <point x="350" y="68"/>
      <point x="271" y="68" type="curve"/>
      <point x="191" y="68"/>
      <point x="144" y="107"/>
      <point x="144" y="183" type="curve"/>
      <point x="144" y="274"/>
      <point x="213" y="305"/>
      <point x="300" y="352" type="curve"/>
      <point x="394" y="404"/>
      <point x="469" y="441"/>
      <point x="469" y="547" type="curve"/>
      <point x="469" y="667"/>
      <point x="396" y="727"/>
      <point x="271" y="727" type="curve"/>
      <point x="149" y="727"/>
      <point x="73" y="666"/>
      <point x="73" y="549" type="curve"/>
      <point x="161" y="549"/>
      <point x="73" y="549"/>
      <point x="161" y="549" type="curve"/>
      <point x="161" y="615"/>
      <point x="199" y="654"/>
      <point x="268" y="654" type="curve"/>
      <point x="341" y="654"/>
      <point x="381" y="617"/>
      <point x="381" y="547" type="curve"/>
      <point x="381" y="469"/>
      <point x="319" y="442"/>
      <point x="244" y="403" type="curve"/>
      <point x="137" y="345"/>
      <point x="56" y="302"/>
      <point x="56" y="183" type="curve"/>
      <point x="56" y="58"/>
      <point x="136" y="-5"/>
      <point x="267" y="-5" type="curve"/>
      <point x="399" y="-5"/>
      <point x="486" y="55"/>
      <point x="486" y="183" type="curve"/>
      <point x="486" y="301"/>
      <point x="405" y="346"/>
      <point x="300" y="403" type="curve"/>
      <point x="224" y="445"/>
      <point x="161" y="469"/>
      <point x="161" y="549" type="curve"/>
      <point x="73" y="549"/>
      <point x="161" y="549"/>
    </contour>
  </outline>
</glyph>
<glyph name="nine" format="1">
  <advance width="550"/>
  <unicode hex="0039"/>
  <outline>
    <contour>
      <point x="429" y="485" type="curve"/>
      <point x="397" y="410"/>
      <point x="351" y="364"/>
      <point x="267" y="364" type="curve"/>
      <point x="181" y="364"/>
      <point x="135" y="421"/>
      <point x="135" y="510" type="curve"/>
      <point x="135" y="593"/>
      <point x="179" y="649"/>
      <point x="258" y="649" type="curve"/>
      <point x="361" y="649"/>
      <point x="411" y="577"/>
      <point x="411" y="470" type="curve"/>
      <point x="411" y="250"/>
      <point x="283" y="127"/>
      <point x="67" y="57" type="curve"/>
      <point x="97" y="-14"/>
      <point x="67" y="57"/>
      <point x="97" y="-14" type="curve"/>
      <point x="338" y="59"/>
      <point x="497" y="211"/>
      <point x="497" y="474" type="curve"/>
      <point x="497" y="630"/>
      <point x="415" y="731"/>
      <point x="262" y="731" type="curve"/>
      <point x="125" y="731"/>
      <point x="47" y="644"/>
      <point x="47" y="507" type="curve"/>
      <point x="47" y="372"/>
      <point x="125" y="290"/>
      <point x="259" y="290" type="curve"/>
      <point x="375" y="290"/>
      <point x="437" y="370"/>
      <point x="473" y="465" type="curve"/>
      <point x="429" y="485"/>
      <point x="473" y="465"/>
    </contour>
  </outline>
</glyph>
<glyph name="colon" format="1">
  <advance width="234"/>
  <unicode hex="003A"/>
  <outline>
    <contour>
      <point x="166" y="393" type="curve"/>
      <point x="166" y="424"/>
      <point x="144" y="440"/>
      <point x="114" y="440" type="curve"/>
      <point x="84" y="440"/>
      <point x="64" y="423"/>
      <point x="64" y="393" type="curve"/>
      <point x="163" y="393"/>
      <point x="67" y="393"/>
      <point x="166" y="393" type="curve"/>
      <point x="166" y="361"/>
      <point x="144" y="347"/>
      <point x="114" y="347" type="curve"/>
      <point x="84" y="347"/>
      <point x="64" y="362"/>
      <point x="64" y="393" type="curve"/>
      <point x="163" y="393"/>
      <point x="67" y="393"/>
    </contour>
    <contour>
      <point x="166" y="41" type="curve"/>
      <point x="166" y="72"/>
      <point x="144" y="88"/>
      <point x="114" y="88" type="curve"/>
      <point x="84" y="88"/>
      <point x="64" y="71"/>
      <point x="64" y="41" type="curve"/>
      <point x="163" y="41"/>
      <point x="67" y="41"/>
      <point x="166" y="41" type="curve"/>
      <point x="166" y="9"/>
      <point x="144" y="-5"/>
      <point x="114" y="-5" type="curve"/>
      <point x="83" y="-5"/>
      <point x="64" y="10"/>
      <point x="64" y="41" type="curve"/>
      <point x="163" y="41"/>
      <point x="67" y="41"/>
    </contour>
  </outline>
</glyph>
<glyph name="semicolon" format="1">
  <advance width="207"/>
  <unicode hex="003B"/>
  <outline>
    <contour>
      <point x="32" y="-153" type="line"/>
      <point x="103" y="-141"/>
      <point x="153" y="-90"/>
      <point x="153" y="-9" type="curve"/>
      <point x="153" y="46"/>
      <point x="131" y="82"/>
      <point x="92" y="82" type="curve"/>
      <point x="60" y="82"/>
      <point x="39" y="65"/>
      <point x="39" y="34" type="curve"/>
      <point x="39" y="8"/>
      <point x="55" y="-11"/>
      <point x="86" y="-13" type="curve"/>
      <point x="85" y="-41"/>
      <point x="77" y="-85"/>
      <point x="25" y="-102" type="curve"/>
    </contour>
    <contour>
      <point x="143" y="400" type="curve"/>
      <point x="143" y="431"/>
      <point x="121" y="447"/>
      <point x="91" y="447" type="curve"/>
      <point x="61" y="447"/>
      <point x="42" y="430"/>
      <point x="42" y="400" type="curve"/>
      <point x="140" y="400"/>
      <point x="45" y="400"/>
      <point x="143" y="400" type="curve"/>
      <point x="143" y="368"/>
      <point x="121" y="354"/>
      <point x="91" y="354" type="curve"/>
      <point x="61" y="354"/>
      <point x="42" y="370"/>
      <point x="42" y="400" type="curve"/>
      <point x="140" y="400"/>
      <point x="45" y="400"/>
    </contour>
  </outline>
</glyph>
<glyph name="less" format="1">
  <advance width="630"/>
  <unicode hex="003C"/>
  <outline>
    <contour>
      <point x="571" y="608" type="curve"/>
      <point x="391" y="518"/>
      <point x="212" y="428"/>
      <point x="32" y="338" type="curve"/>
      <point x="32" y="262"/>
      <point x="32" y="338"/>
      <point x="32" y="262" type="curve"/>
      <point x="212" y="352"/>
      <point x="391" y="442"/>
      <point x="571" y="532" type="curve"/>
      <point x="571" y="608"/>
      <point x="571" y="532"/>
    </contour>
    <contour>
      <point x="580" y="74" type="curve"/>
      <point x="397" y="162"/>
      <point x="215" y="250"/>
      <point x="32" y="338" type="curve"/>
      <point x="32" y="262"/>
      <point x="32" y="338"/>
      <point x="32" y="262" type="curve"/>
      <point x="215" y="174"/>
      <point x="397" y="86"/>
      <point x="580" y="-2" type="curve"/>
      <point x="580" y="74"/>
      <point x="580" y="-2"/>
    </contour>
  </outline>
</glyph>
<glyph name="equal" format="1">
  <advance width="662"/>
  <unicode hex="003D"/>
  <outline>
    <contour>
      <point x="59" y="181" type="curve"/>
      <point x="244" y="181"/>
      <point x="430" y="181"/>
      <point x="615" y="181" type="curve"/>
      <point x="615" y="254"/>
      <point x="615" y="181"/>
      <point x="615" y="254" type="curve"/>
      <point x="430" y="254"/>
      <point x="244" y="254"/>
      <point x="59" y="254" type="curve"/>
      <point x="59" y="181"/>
      <point x="59" y="254"/>
    </contour>
    <contour>
      <point x="59" y="403" type="curve"/>
      <point x="244" y="403"/>
      <point x="430" y="403"/>
      <point x="615" y="403" type="curve"/>
      <point x="615" y="476"/>
      <point x="615" y="403"/>
      <point x="615" y="476" type="curve"/>
      <point x="430" y="476"/>
      <point x="244" y="476"/>
      <point x="59" y="476" type="curve"/>
      <point x="59" y="403"/>
      <point x="59" y="476"/>
    </contour>
  </outline>
</glyph>
<glyph name="greater" format="1">
  <advance width="631"/>
  <unicode hex="003E"/>
  <outline>
    <contour>
      <point x="59" y="-2" type="curve"/>
      <point x="238" y="88"/>
      <point x="418" y="178"/>
      <point x="597" y="268" type="curve"/>
      <point x="597" y="344"/>
      <point x="597" y="268"/>
      <point x="597" y="344" type="curve"/>
      <point x="418" y="254"/>
      <point x="238" y="164"/>
      <point x="59" y="74" type="curve"/>
      <point x="59" y="-2"/>
      <point x="59" y="74"/>
    </contour>
    <contour>
      <point x="50" y="532" type="curve"/>
      <point x="232" y="444"/>
      <point x="415" y="356"/>
      <point x="597" y="268" type="curve"/>
      <point x="597" y="344"/>
      <point x="597" y="268"/>
      <point x="597" y="344" type="curve"/>
      <point x="415" y="432"/>
      <point x="232" y="520"/>
      <point x="50" y="608" type="curve"/>
      <point x="50" y="532"/>
      <point x="50" y="608"/>
    </contour>
  </outline>
</glyph>
<glyph name="question" format="1">
  <advance width="482"/>
  <unicode hex="003F"/>
  <outline>
    <contour>
      <point x="182" y="359" type="curve"/>
      <point x="182" y="322"/>
      <point x="182" y="258"/>
      <point x="182" y="221" type="curve"/>
      <point x="267" y="221"/>
      <point x="182" y="221"/>
      <point x="267" y="221" type="curve"/>
      <point x="267" y="258"/>
      <point x="267" y="322"/>
      <point x="267" y="359" type="curve"/>
      <point x="182" y="359"/>
      <point x="267" y="359"/>
    </contour>
    <contour>
      <point x="95" y="598" type="line"/>
      <point x="126" y="633"/>
      <point x="165" y="659"/>
      <point x="220" y="659" type="curve"/>
      <point x="303" y="659"/>
      <point x="352" y="603"/>
      <point x="352" y="519" type="curve"/>
      <point x="352" y="422"/>
      <point x="291" y="359"/>
      <point x="192" y="359" type="curve"/>
      <point x="192" y="329"/>
      <point x="191" y="321"/>
      <point x="191" y="290" type="curve"/>
      <point x="341" y="290"/>
      <point x="438" y="378"/>
      <point x="438" y="519" type="curve"/>
      <point x="438" y="651"/>
      <point x="353" y="733"/>
      <point x="224" y="733" type="curve"/>
      <point x="146" y="733"/>
      <point x="90" y="703"/>
      <point x="47" y="652" type="curve"/>
    </contour>
    <contour>
      <point x="275" y="32" type="curve"/>
      <point x="275" y="63"/>
      <point x="254" y="79"/>
      <point x="224" y="79" type="curve"/>
      <point x="194" y="79"/>
      <point x="175" y="62"/>
      <point x="175" y="32" type="curve"/>
      <point x="275" y="32"/>
      <point x="175" y="32"/>
      <point x="275" y="32" type="curve"/>
      <point x="275" y="1"/>
      <point x="254" y="-14"/>
      <point x="224" y="-14" type="curve"/>
      <point x="194" y="-14"/>
      <point x="175" y="2"/>
      <point x="175" y="32" type="curve"/>
      <point x="275" y="32"/>
      <point x="175" y="32"/>
    </contour>
  </outline>
</glyph>
<glyph name="at" format="1">
  <advance width="774"/>
  <unicode hex="0040"/>
  <outline>
    <contour>
      <point x="526" y="-46" type="curve"/>
      <point x="483" y="-70"/>
      <point x="450" y="-78"/>
      <point x="401" y="-78" type="curve"/>
      <point x="229" y="-78"/>
      <point x="132" y="31"/>
      <point x="132" y="206" type="curve"/>
      <point x="132" y="376"/>
      <point x="228" y="482"/>
      <point x="394" y="482" type="curve"/>
      <point x="552" y="482"/>
      <point x="640" y="376"/>
      <point x="640" y="213" type="curve"/>
      <point x="640" y="148"/>
      <point x="635" y="92"/>
      <point x="596" y="92" type="curve"/>
      <point x="553" y="92"/>
      <point x="547" y="146"/>
      <point x="547" y="211" type="curve"/>
      <point x="547" y="321"/>
      <point x="492" y="395"/>
      <point x="386" y="395" type="curve"/>
      <point x="272" y="395"/>
      <point x="216" y="324"/>
      <point x="216" y="209" type="curve"/>
      <point x="216" y="91"/>
      <point x="266" y="14"/>
      <point x="378" y="14" type="curve"/>
      <point x="478" y="14"/>
      <point x="519" y="89"/>
      <point x="534" y="195" type="curve"/>
      <point x="477" y="208"/>
      <point x="534" y="195"/>
      <point x="477" y="208" type="curve"/>
      <point x="462" y="142"/>
      <point x="449" y="84"/>
      <point x="388" y="84" type="curve"/>
      <point x="323" y="84"/>
      <point x="298" y="138"/>
      <point x="298" y="213" type="curve"/>
      <point x="298" y="279"/>
      <point x="320" y="325"/>
      <point x="380" y="325" type="curve"/>
      <point x="445" y="325"/>
      <point x="465" y="276"/>
      <point x="465" y="207" type="curve"/>
      <point x="465" y="104"/>
      <point x="494" y="26"/>
      <point x="589" y="26" type="curve"/>
      <point x="688" y="26"/>
      <point x="720" y="107"/>
      <point x="720" y="216" type="curve"/>
      <point x="720" y="426"/>
      <point x="604" y="555"/>
      <point x="397" y="555" type="curve"/>
      <point x="176" y="555"/>
      <point x="50" y="424"/>
      <point x="50" y="203" type="curve"/>
      <point x="50" y="-17"/>
      <point x="178" y="-148"/>
      <point x="396" y="-148" type="curve"/>
      <point x="463" y="-148"/>
      <point x="507" y="-137"/>
      <point x="560" y="-105" type="curve"/>
      <point x="526" y="-46"/>
      <point x="560" y="-105"/>
    </contour>
  </outline>
</glyph>
<glyph name="A" format="1">
  <advance width="616"/>
  <unicode hex="0041"/>
  <outline>
    <contour>
      <point x="452" y="289" type="curve"/>
      <point x="357" y="289"/>
      <point x="262" y="289"/>
      <point x="167" y="289" type="curve"/>
      <point x="130" y="215"/>
      <point x="167" y="289"/>
      <point x="130" y="215" type="curve"/>
      <point x="247" y="215"/>
      <point x="364" y="215"/>
      <point x="481" y="215" type="curve"/>
      <point x="452" y="289"/>
      <point x="481" y="215"/>
    </contour>
    <contour>
      <point x="600" y="0" type="curve"/>
      <point x="520" y="241"/>
      <point x="437" y="481"/>
      <point x="356" y="722" type="curve"/>
      <point x="275" y="722"/>
      <point x="356" y="722"/>
      <point x="275" y="722" type="curve"/>
      <point x="353" y="482"/>
      <point x="428" y="240"/>
      <point x="506" y="0" type="curve"/>
      <point x="600" y="0"/>
      <point x="506" y="0"/>
    </contour>
    <contour>
      <point x="98" y="0" type="curve"/>
      <point x="185" y="240"/>
      <point x="267" y="482"/>
      <point x="355" y="722" type="curve"/>
      <point x="273" y="722"/>
      <point x="355" y="722"/>
      <point x="273" y="722" type="curve"/>
      <point x="184" y="480"/>
      <point x="89" y="242"/>
      <point x="0" y="0" type="curve"/>
      <point x="98" y="0"/>
      <point x="0" y="0"/>
    </contour>
    <contour>
      <point x="313" y="801" type="move" name="top"/>
    </contour>
    <contour>
      <point x="586" y="3" type="move" name="bottom"/>
    </contour>
  </outline>
</glyph>
<glyph name="B" format="1">
  <advance width="586"/>
  <unicode hex="0042"/>
  <outline>
    <contour>
      <point x="132" y="652" type="curve"/>
      <point x="191" y="652"/>
      <point x="240" y="652"/>
      <point x="300" y="652" type="curve"/>
      <point x="369" y="652"/>
      <point x="408" y="611"/>
      <point x="408" y="544" type="curve"/>
      <point x="408" y="477"/>
      <point x="361" y="442"/>
      <point x="293" y="442" type="curve"/>
      <point x="235" y="442"/>
      <point x="189" y="442"/>
      <point x="132" y="442" type="curve"/>
      <point x="132" y="403"/>
      <point x="132" y="410"/>
      <point x="132" y="371" type="curve"/>
      <point x="177" y="371"/>
      <point x="214" y="371"/>
      <point x="259" y="371" type="curve"/>
      <point x="375" y="371"/>
      <point x="497" y="418"/>
      <point x="497" y="541" type="curve"/>
      <point x="497" y="658"/>
      <point x="422" y="722"/>
      <point x="303" y="722" type="curve"/>
      <point x="242" y="722"/>
      <point x="193" y="722"/>
      <point x="132" y="722" type="curve"/>
      <point x="132" y="684"/>
      <point x="132" y="691"/>
    </contour>
    <contour>
      <point x="188" y="0" type="curve"/>
      <point x="188" y="241"/>
      <point x="188" y="481"/>
      <point x="188" y="722" type="curve"/>
      <point x="94" y="722"/>
      <point x="188" y="722"/>
      <point x="94" y="722" type="curve"/>
      <point x="94" y="481"/>
      <point x="94" y="241"/>
      <point x="94" y="0" type="curve"/>
      <point x="188" y="0"/>
      <point x="94" y="0"/>
    </contour>
    <contour>
      <point x="132" y="371" type="curve"/>
      <point x="189" y="371"/>
      <point x="235" y="371"/>
      <point x="293" y="371" type="curve"/>
      <point x="392" y="371"/>
      <point x="449" y="315"/>
      <point x="449" y="216" type="curve"/>
      <point x="449" y="124"/>
      <point x="395" y="70"/>
      <point x="301" y="70" type="curve"/>
      <point x="240" y="70"/>
      <point x="192" y="70"/>
      <point x="132" y="70" type="curve"/>
      <point x="132" y="31"/>
      <point x="132" y="38"/>
      <point x="132" y="0" type="curve"/>
      <point x="194" y="0"/>
      <point x="243" y="0"/>
      <point x="305" y="0" type="curve"/>
      <point x="449" y="0"/>
      <point x="539" y="75"/>
      <point x="539" y="215" type="curve"/>
      <point x="539" y="371"/>
      <point x="410" y="442"/>
      <point x="259" y="442" type="curve"/>
      <point x="214" y="442"/>
      <point x="177" y="442"/>
      <point x="132" y="442" type="curve"/>
      <point x="132" y="403"/>
      <point x="132" y="410"/>
    </contour>
  </outline>
</glyph>
<glyph name="C" format="1">
  <advance width="623"/>
  <unicode hex="0043"/>
  <outline>
    <contour>
      <point x="590" y="654" type="curve"/>
      <point x="527" y="696"/>
      <point x="454" y="727"/>
      <point x="371" y="727" type="curve"/>
      <point x="156" y="727"/>
      <point x="53" y="575"/>
      <point x="53" y="344" type="curve"/>
      <point x="53" y="133"/>
      <point x="151" y="-5"/>
      <point x="352" y="-5" type="curve"/>
      <point x="461" y="-5"/>
      <point x="530" y="29"/>
      <point x="603" y="96" type="curve"/>
      <point x="555" y="150"/>
      <point x="602" y="96"/>
      <point x="554" y="150" type="curve"/>
      <point x="492" y="98"/>
      <point x="439" y="69"/>
      <point x="356" y="69" type="curve"/>
      <point x="204" y="69"/>
      <point x="143" y="184"/>
      <point x="143" y="348" type="curve"/>
      <point x="143" y="526"/>
      <point x="206" y="654"/>
      <point x="367" y="654" type="curve"/>
      <point x="433" y="654"/>
      <point x="492" y="632"/>
      <point x="545" y="598" type="curve"/>
      <point x="590" y="654"/>
      <point x="545" y="598"/>
    </contour>
    <contour>
      <point x="364" y="801" type="move" name="top"/>
    </contour>
    <contour>
      <point x="373" y="2" type="move" name="bottom"/>
    </contour>
  </outline>
</glyph>
<glyph name="D" format="1">
  <advance width="684"/>
  <unicode hex="0044"/>
  <outline>
    <contour>
      <point x="94" y="722" type="curve"/>
      <point x="94" y="481"/>
      <point x="94" y="241"/>
      <point x="94" y="0" type="curve"/>
      <point x="184" y="0"/>
      <point x="94" y="0"/>
      <point x="184" y="0" type="curve"/>
      <point x="184" y="241"/>
      <point x="184" y="481"/>
      <point x="184" y="722" type="curve"/>
      <point x="94" y="722"/>
      <point x="184" y="722"/>
    </contour>
    <contour>
      <point x="141" y="0" type="curve"/>
      <point x="198" y="0"/>
      <point x="249" y="0"/>
      <point x="307" y="0" type="curve"/>
      <point x="524" y="0"/>
      <point x="630" y="131"/>
      <point x="630" y="354" type="curve"/>
      <point x="630" y="585"/>
      <point x="523" y="722"/>
      <point x="300" y="722" type="curve"/>
      <point x="245" y="722"/>
      <point x="195" y="722"/>
      <point x="141" y="722" type="curve"/>
      <point x="141" y="657"/>
      <point x="141" y="717"/>
      <point x="141" y="652" type="curve"/>
      <point x="194" y="652"/>
      <point x="242" y="652"/>
      <point x="296" y="652" type="curve"/>
      <point x="470" y="652"/>
      <point x="541" y="536"/>
      <point x="541" y="352" type="curve"/>
      <point x="541" y="181"/>
      <point x="476" y="70"/>
      <point x="315" y="70" type="curve"/>
      <point x="255" y="70"/>
      <point x="201" y="70"/>
      <point x="141" y="70" type="curve"/>
      <point x="141" y="5"/>
      <point x="141" y="65"/>
    </contour>
    <contour>
      <point x="281" y="801" type="move" name="top"/>
    </contour>
  </outline>
</glyph>
<glyph name="E" format="1">
  <advance width="543"/>
  <unicode hex="0045"/>
  <outline>
    <contour>
      <point x="143" y="338" type="curve"/>
      <point x="240" y="338"/>
      <point x="337" y="338"/>
      <point x="434" y="338" type="curve"/>
      <point x="434" y="408"/>
      <point x="434" y="338"/>
      <point x="434" y="408" type="curve"/>
      <point x="337" y="408"/>
      <point x="240" y="408"/>
      <point x="143" y="408" type="curve"/>
      <point x="143" y="338"/>
      <point x="143" y="408"/>
    </contour>
    <contour>
      <point x="130" y="652" type="curve"/>
      <point x="250" y="652"/>
      <point x="369" y="652"/>
      <point x="489" y="652" type="curve"/>
      <point x="489" y="722"/>
      <point x="489" y="652"/>
      <point x="489" y="722" type="curve"/>
      <point x="369" y="722"/>
      <point x="250" y="722"/>
      <point x="130" y="722" type="curve"/>
      <point x="130" y="652"/>
      <point x="130" y="722"/>
    </contour>
    <contour>
      <point x="184" y="0" type="curve"/>
      <point x="184" y="722" type="line"/>
      <point x="94" y="722"/>
      <point x="184" y="722"/>
      <point x="94" y="722" type="curve"/>
      <point x="94" y="481"/>
      <point x="94" y="241"/>
      <point x="94" y="0" type="curve"/>
      <point x="184" y="0"/>
      <point x="94" y="0"/>
    </contour>
    <contour>
      <point x="130" y="0" type="curve"/>
      <point x="260" y="0"/>
      <point x="389" y="0"/>
      <point x="519" y="0" type="curve"/>
      <point x="519" y="70"/>
      <point x="519" y="0"/>
      <point x="519" y="70" type="curve"/>
      <point x="389" y="70"/>
      <point x="260" y="70"/>
      <point x="130" y="70" type="curve"/>
      <point x="130" y="0"/>
      <point x="130" y="70"/>
    </contour>
    <contour>
      <point x="269" y="801" type="move" name="top"/>
    </contour>
    <contour>
      <point x="497" y="4" type="move" name="bottom"/>
    </contour>
  </outline>
</glyph>
<glyph name="F" format="1">
  <advance width="514"/>
  <unicode hex="0046"/>
  <outline>
    <contour>
      <point x="143" y="338" type="curve"/>
      <point x="238" y="338"/>
      <point x="333" y="338"/>
      <point x="428" y="338" type="curve"/>
      <point x="428" y="408"/>
      <point x="428" y="338"/>
      <point x="428" y="408" type="curve"/>
      <point x="333" y="408"/>
      <point x="238" y="408"/>
      <point x="143" y="408" type="curve"/>
      <point x="143" y="338"/>
      <point x="143" y="408"/>
    </contour>
    <contour>
      <point x="184" y="0" type="curve"/>
      <point x="184" y="722" type="line"/>
      <point x="94" y="722"/>
      <point x="184" y="722"/>
      <point x="94" y="722" type="curve"/>
      <point x="94" y="481"/>
      <point x="94" y="241"/>
      <point x="94" y="0" type="curve"/>
      <point x="184" y="0"/>
      <point x="94" y="0"/>
    </contour>
    <contour>
      <point x="129" y="652" type="curve"/>
      <point x="250" y="652"/>
      <point x="371" y="652"/>
      <point x="492" y="652" type="curve"/>
      <point x="492" y="722"/>
      <point x="492" y="652"/>
      <point x="492" y="722" type="curve"/>
      <point x="371" y="722"/>
      <point x="250" y="722"/>
      <point x="129" y="722" type="curve"/>
      <point x="129" y="652"/>
      <point x="129" y="722"/>
    </contour>
  </outline>
</glyph>
<glyph name="G" format="1">
  <advance width="712"/>
  <unicode hex="0047"/>
  <outline>
    <contour>
      <point x="630" y="347" type="curve"/>
      <point x="565" y="347"/>
      <point x="500" y="347"/>
      <point x="435" y="347" type="curve"/>
      <point x="435" y="277"/>
      <point x="435" y="347"/>
      <point x="435" y="277" type="curve"/>
      <point x="500" y="277"/>
      <point x="565" y="277"/>
      <point x="630" y="277" type="curve"/>
      <point x="630" y="347"/>
      <point x="630" y="277"/>
    </contour>
    <contour>
      <point x="654" y="78" type="curve"/>
      <point x="654" y="168"/>
      <point x="654" y="257"/>
      <point x="654" y="347" type="curve"/>
      <point x="573" y="347"/>
      <point x="654" y="347"/>
      <point x="573" y="347" type="curve"/>
      <point x="573" y="257"/>
      <point x="573" y="168"/>
      <point x="573" y="78" type="curve"/>
      <point x="654" y="78"/>
      <point x="573" y="78"/>
    </contour>
    <contour>
      <point x="640" y="644" type="curve"/>
      <point x="557" y="700"/>
      <point x="479" y="727"/>
      <point x="378" y="727" type="curve"/>
      <point x="163" y="727"/>
      <point x="52" y="586"/>
      <point x="52" y="362" type="curve"/>
      <point x="52" y="134"/>
      <point x="168" y="-5"/>
      <point x="387" y="-5" type="curve"/>
      <point x="495" y="-5"/>
      <point x="563" y="23"/>
      <point x="654" y="78" type="curve"/>
      <point x="609" y="132"/>
      <point x="654" y="78"/>
      <point x="609" y="132" type="curve"/>
      <point x="539" y="89"/>
      <point x="475" y="69"/>
      <point x="387" y="69" type="curve"/>
      <point x="218" y="69"/>
      <point x="142" y="188"/>
      <point x="142" y="369" type="curve"/>
      <point x="142" y="539"/>
      <point x="217" y="654"/>
      <point x="378" y="654" type="curve"/>
      <point x="461" y="654"/>
      <point x="525" y="631"/>
      <point x="597" y="584" type="curve"/>
      <point x="640" y="644"/>
      <point x="597" y="584"/>
    </contour>
    <contour>
      <point x="376" y="801" type="move" name="top"/>
    </contour>
    <contour>
      <point x="411" y="-25" type="move" name="bottom"/>
    </contour>
  </outline>
</glyph>
<glyph name="I" format="1">
  <advance width="278"/>
  <unicode hex="0049"/>
  <outline>
    <contour>
      <point x="184" y="0" type="curve"/>
      <point x="184" y="241"/>
      <point x="184" y="481"/>
      <point x="184" y="722" type="curve"/>
      <point x="94" y="722"/>
      <point x="184" y="722"/>
      <point x="94" y="722" type="curve"/>
      <point x="94" y="481"/>
      <point x="94" y="241"/>
      <point x="94" y="0" type="curve"/>
      <point x="184" y="0"/>
      <point x="94" y="0"/>
    </contour>
    <contour>
      <point x="140" y="801" type="move" name="top"/>
    </contour>
    <contour>
      <point x="179" y="2" type="move" name="bottom"/>
    </contour>
  </outline>
</glyph>
<glyph name="J" format="1">
  <advance width="412"/>
  <unicode hex="004A"/>
  <outline>
    <contour>
      <point x="6" y="42" type="curve"/>
      <point x="36" y="20"/>
      <point x="77" y="-4"/>
      <point x="129" y="-4" type="curve"/>
      <point x="263" y="-4"/>
      <point x="325" y="81"/>
      <point x="325" y="232" type="curve"/>
      <point x="325" y="402"/>
      <point x="325" y="551"/>
      <point x="325" y="722" type="curve"/>
      <point x="240" y="722"/>
      <point x="320" y="722"/>
      <point x="235" y="722" type="curve"/>
      <point x="235" y="551"/>
      <point x="235" y="402"/>
      <point x="235" y="232" type="curve"/>
      <point x="235" y="137"/>
      <point x="213" y="67"/>
      <point x="129" y="67" type="curve"/>
      <point x="95" y="67"/>
      <point x="73" y="82"/>
      <point x="48" y="98" type="curve"/>
      <point x="9" y="46"/>
      <point x="45" y="94"/>
    </contour>
  </outline>
</glyph>
<glyph name="K" format="1">
  <advance width="593"/>
  <unicode hex="004B"/>
  <outline>
    <contour>
      <point x="455" y="722" type="curve"/>
      <point x="163" y="380" type="line"/>
      <point x="268" y="380"/>
      <point x="167" y="380"/>
      <point x="272" y="380" type="curve"/>
      <point x="565" y="722" type="line"/>
      <point x="475" y="722"/>
      <point x="545" y="722"/>
    </contour>
    <contour>
      <point x="184" y="0" type="curve"/>
      <point x="184" y="722" type="line"/>
      <point x="94" y="722"/>
      <point x="184" y="722"/>
      <point x="94" y="722" type="curve"/>
      <point x="94" y="481"/>
      <point x="94" y="241"/>
      <point x="94" y="0" type="curve"/>
      <point x="184" y="0"/>
      <point x="94" y="0"/>
    </contour>
    <contour>
      <point x="586" y="0" type="curve"/>
      <point x="272" y="380" type="line"/>
      <point x="167" y="380"/>
      <point x="268" y="380"/>
      <point x="163" y="380" type="curve"/>
      <point x="475" y="0" type="line"/>
      <point x="572" y="0"/>
      <point x="489" y="0"/>
    </contour>
    <contour>
      <point x="345" y="-26" type="move" name="bottom"/>
    </contour>
  </outline>
</glyph>
<glyph name="L" format="1">
  <advance width="522"/>
  <unicode hex="004C"/>
  <outline>
    <contour>
      <point x="184" y="0" type="curve"/>
      <point x="184" y="241"/>
      <point x="184" y="481"/>
      <point x="184" y="722" type="curve"/>
      <point x="94" y="722"/>
      <point x="184" y="722"/>
      <point x="94" y="722" type="curve"/>
      <point x="94" y="481"/>
      <point x="94" y="241"/>
      <point x="94" y="0" type="curve"/>
      <point x="184" y="0"/>
      <point x="94" y="0"/>
    </contour>
    <contour>
      <point x="138" y="0" type="curve"/>
      <point x="262" y="0"/>
      <point x="387" y="0"/>
      <point x="511" y="0" type="curve"/>
      <point x="511" y="70"/>
      <point x="511" y="0"/>
      <point x="511" y="70" type="curve"/>
      <point x="387" y="70"/>
      <point x="262" y="70"/>
      <point x="138" y="70" type="curve"/>
      <point x="138" y="0"/>
      <point x="138" y="70"/>
    </contour>
    <contour>
      <point x="139" y="801" type="move" name="top"/>
    </contour>
    <contour>
      <point x="297" y="-24" type="move" name="bottom"/>
    </contour>
  </outline>
</glyph>
<glyph name="M" format="1">
  <advance width="828"/>
  <unicode hex="004D"/>
  <outline>
    <contour>
      <point x="765" y="0" type="curve"/>
      <point x="746" y="241"/>
      <point x="725" y="481"/>
      <point x="707" y="722" type="curve"/>
      <point x="625" y="722"/>
      <point x="707" y="722"/>
      <point x="625" y="722" type="curve"/>
      <point x="643" y="481"/>
      <point x="657" y="241"/>
      <point x="675" y="0" type="curve"/>
      <point x="765" y="0"/>
      <point x="675" y="0"/>
    </contour>
    <contour>
      <point x="148" y="0" type="curve"/>
      <point x="165" y="241"/>
      <point x="181" y="481"/>
      <point x="198" y="722" type="curve"/>
      <point x="118" y="722"/>
      <point x="198" y="722"/>
      <point x="118" y="722" type="curve"/>
      <point x="101" y="481"/>
      <point x="84" y="241"/>
      <point x="66" y="0" type="curve"/>
      <point x="148" y="0"/>
      <point x="66" y="0"/>
    </contour>
    <contour>
      <point x="449" y="0" type="curve"/>
      <point x="367" y="241"/>
      <point x="283" y="481"/>
      <point x="200" y="722" type="curve"/>
      <point x="120" y="722"/>
      <point x="200" y="722"/>
      <point x="120" y="722" type="curve"/>
      <point x="203" y="481"/>
      <point x="285" y="241"/>
      <point x="368" y="0" type="curve"/>
      <point x="449" y="0"/>
      <point x="368" y="0"/>
    </contour>
    <contour>
      <point x="457" y="0" type="curve"/>
      <point x="539" y="241"/>
      <point x="620" y="481"/>
      <point x="701" y="722" type="curve"/>
      <point x="621" y="722"/>
      <point x="700" y="722"/>
      <point x="621" y="722" type="curve"/>
      <point x="539" y="481"/>
      <point x="457" y="241"/>
      <point x="375" y="0" type="curve"/>
      <point x="457" y="0"/>
      <point x="375" y="0"/>
    </contour>
  </outline>
</glyph>
<glyph name="N" format="1">
  <advance width="760"/>
  <unicode hex="004E"/>
  <outline>
    <contour>
      <point x="665" y="0" type="curve"/>
      <point x="508" y="241"/>
      <point x="351" y="481"/>
      <point x="193" y="722" type="curve"/>
      <point x="94" y="722"/>
      <point x="193" y="722"/>
      <point x="94" y="722" type="curve"/>
      <point x="251" y="481"/>
      <point x="408" y="241"/>
      <point x="566" y="0" type="curve"/>
      <point x="665" y="0"/>
      <point x="566" y="0"/>
    </contour>
    <contour>
      <point x="576" y="722" type="curve"/>
      <point x="576" y="481"/>
      <point x="576" y="241"/>
      <point x="576" y="0" type="curve"/>
      <point x="666" y="0"/>
      <point x="576" y="0"/>
      <point x="666" y="0" type="curve"/>
      <point x="666" y="241"/>
      <point x="666" y="481"/>
      <point x="666" y="722" type="curve"/>
      <point x="576" y="722"/>
      <point x="666" y="722"/>
    </contour>
    <contour>
      <point x="184" y="0" type="curve"/>
      <point x="184" y="241"/>
      <point x="184" y="481"/>
      <point x="184" y="722" type="curve"/>
      <point x="94" y="722"/>
      <point x="184" y="722"/>
      <point x="94" y="722" type="curve"/>
      <point x="94" y="481"/>
      <point x="94" y="241"/>
      <point x="94" y="0" type="curve"/>
      <point x="184" y="0"/>
      <point x="94" y="0"/>
    </contour>
    <contour>
      <point x="382" y="801" type="move" name="top"/>
    </contour>
    <contour>
      <point x="406" y="-26" type="move" name="bottom"/>
    </contour>
  </outline>
</glyph>
<glyph name="P" format="1">
  <advance width="544"/>
  <unicode hex="0050"/>
  <outline>
    <contour>
      <point x="127" y="309" type="curve"/>
      <point x="177" y="282"/>
      <point x="231" y="264"/>
      <point x="291" y="264" type="curve"/>
      <point x="423" y="266"/>
      <point x="505" y="345"/>
      <point x="505" y="485" type="curve"/>
      <point x="505" y="631"/>
      <point x="408" y="722"/>
      <point x="260" y="722" type="curve"/>
      <point x="221" y="722"/>
      <point x="182" y="722"/>
      <point x="143" y="722" type="curve"/>
      <point x="143" y="652"/>
      <point x="143" y="722"/>
      <point x="143" y="652" type="curve"/>
      <point x="178" y="652"/>
      <point x="213" y="652"/>
      <point x="248" y="652" type="curve"/>
      <point x="351" y="652"/>
      <point x="415" y="588"/>
      <point x="415" y="487" type="curve"/>
      <point x="415" y="394"/>
      <point x="367" y="332"/>
      <point x="282" y="332" type="curve"/>
      <point x="232" y="332"/>
      <point x="198" y="346"/>
      <point x="156" y="369" type="curve"/>
      <point x="127" y="311"/>
      <point x="156" y="369"/>
    </contour>
    <contour>
      <point x="184" y="0" type="curve"/>
      <point x="184" y="241"/>
      <point x="184" y="481"/>
      <point x="184" y="722" type="curve"/>
      <point x="94" y="722"/>
      <point x="184" y="722"/>
      <point x="94" y="722" type="curve"/>
      <point x="94" y="481"/>
      <point x="94" y="241"/>
      <point x="94" y="0" type="curve"/>
      <point x="184" y="0"/>
      <point x="94" y="0"/>
    </contour>
  </outline>
</glyph>
<glyph name="Q" format="1">
  <advance width="754"/>
  <unicode hex="0051"/>
  <outline>
    <contour>
      <point x="322" y="16" type="curve"/>
      <point x="414" y="-156"/>
      <point x="526" y="-224"/>
      <point x="710" y="-224" type="curve"/>
      <point x="710" y="-151"/>
      <point x="710" y="-224"/>
      <point x="710" y="-151" type="curve"/>
      <point x="561" y="-151"/>
      <point x="476" y="-90"/>
      <point x="399" y="51" type="curve"/>
      <point x="322" y="16"/>
      <point x="399" y="51"/>
    </contour>
    <contour>
      <point x="143" y="360" type="curve"/>
      <point x="143" y="524"/>
      <point x="201" y="651"/>
      <point x="351" y="651" type="curve"/>
      <point x="502" y="651"/>
      <point x="563" y="526"/>
      <point x="563" y="361" type="curve"/>
      <point x="563" y="197"/>
      <point x="507" y="68"/>
      <point x="357" y="68" type="curve"/>
      <point x="204" y="69"/>
      <point x="143" y="194"/>
      <point x="143" y="360" type="curve"/>
      <point x="53" y="360"/>
      <point x="143" y="360"/>
      <point x="53" y="360" type="curve"/>
      <point x="53" y="147"/>
      <point x="153" y="-5"/>
      <point x="352" y="-5" type="curve"/>
      <point x="554" y="-5"/>
      <point x="653" y="150"/>
      <point x="653" y="365" type="curve"/>
      <point x="653" y="577"/>
      <point x="556" y="730"/>
      <point x="357" y="730" type="curve"/>
      <point x="155" y="730"/>
      <point x="53" y="574"/>
      <point x="53" y="360" type="curve"/>
      <point x="143" y="360"/>
      <point x="53" y="360"/>
    </contour>
  </outline>
</glyph>
<glyph name="T" format="1">
  <advance width="571"/>
  <unicode hex="0054"/>
  <outline>
    <contour>
      <point x="330" y="0" type="curve"/>
      <point x="330" y="237"/>
      <point x="330" y="473"/>
      <point x="330" y="710" type="curve"/>
      <point x="241" y="710"/>
      <point x="330" y="710"/>
      <point x="241" y="710" type="curve"/>
      <point x="240" y="473"/>
      <point x="241" y="237"/>
      <point x="241" y="0" type="curve"/>
      <point x="330" y="0"/>
      <point x="241" y="0"/>
    </contour>
    <contour>
      <point x="11" y="648" type="curve"/>
      <point x="194" y="648"/>
      <point x="377" y="648"/>
      <point x="560" y="648" type="curve"/>
      <point x="560" y="725"/>
      <point x="560" y="645"/>
      <point x="560" y="722" type="curve"/>
      <point x="377" y="722"/>
      <point x="194" y="722"/>
      <point x="11" y="722" type="curve"/>
      <point x="11" y="645"/>
      <point x="11" y="725"/>
    </contour>
    <contour>
      <point x="284" y="801" type="move" name="top"/>
    </contour>
    <contour>
      <point x="317" y="-26" type="move" name="bottom"/>
    </contour>
  </outline>
</glyph>
<glyph name="U" format="1">
  <advance width="699"/>
  <unicode hex="0055"/>
  <outline>
    <contour>
      <point x="86" y="722" type="curve"/>
      <point x="86" y="576"/>
      <point x="86" y="419"/>
      <point x="86" y="273" type="curve"/>
      <point x="86" y="91"/>
      <point x="168" y="-5"/>
      <point x="348" y="-5" type="curve"/>
      <point x="529" y="-5"/>
      <point x="613" y="92"/>
      <point x="613" y="276" type="curve"/>
      <point x="613" y="421"/>
      <point x="613" y="578"/>
      <point x="613" y="722" type="curve"/>
      <point x="533" y="722"/>
      <point x="611" y="722"/>
      <point x="531" y="722" type="curve"/>
      <point x="531" y="573"/>
      <point x="531" y="415"/>
      <point x="531" y="267" type="curve"/>
      <point x="531" y="143"/>
      <point x="474" y="72"/>
      <point x="355" y="72" type="curve"/>
      <point x="222" y="72"/>
      <point x="168" y="149"/>
      <point x="168" y="287" type="curve"/>
      <point x="168" y="428"/>
      <point x="168" y="582"/>
      <point x="168" y="722" type="curve"/>
      <point x="88" y="722"/>
      <point x="166" y="722"/>
    </contour>
    <contour>
      <point x="353" y="801" type="move" name="top"/>
    </contour>
    <contour>
      <point x="383" y="-22" type="move" name="bottom"/>
    </contour>
  </outline>
</glyph>
<glyph name="W" format="1">
  <advance width="805"/>
  <unicode hex="0057"/>
  <outline>
    <contour>
      <point x="269" y="0" type="curve"/>
      <point x="329" y="241"/>
      <point x="387" y="481"/>
      <point x="446" y="722" type="curve"/>
      <point x="366" y="722"/>
      <point x="447" y="722"/>
      <point x="367" y="722" type="curve"/>
      <point x="311" y="481"/>
      <point x="255" y="242"/>
      <point x="199" y="0" type="curve"/>
      <point x="274" y="0"/>
      <point x="194" y="0"/>
    </contour>
    <contour>
      <point x="374" y="722" type="curve"/>
      <point x="428" y="481"/>
      <point x="479" y="241"/>
      <point x="533" y="0" type="curve"/>
      <point x="609" y="0"/>
      <point x="527" y="0"/>
      <point x="602" y="0" type="curve"/>
      <point x="552" y="243"/>
      <point x="504" y="481"/>
      <point x="453" y="722" type="curve"/>
      <point x="373" y="722"/>
      <point x="455" y="722"/>
    </contour>
    <contour>
      <point x="27" y="722" type="curve"/>
      <point x="80" y="481"/>
      <point x="135" y="241"/>
      <point x="188" y="0" type="curve"/>
      <point x="264" y="0"/>
      <point x="188" y="0"/>
      <point x="264" y="0" type="curve"/>
      <point x="212" y="241"/>
      <point x="161" y="481"/>
      <point x="109" y="722" type="curve"/>
      <point x="27" y="722"/>
      <point x="109" y="722"/>
    </contour>
    <contour>
      <point x="700" y="722" type="curve"/>
      <point x="646" y="481"/>
      <point x="593" y="241"/>
      <point x="540" y="0" type="curve"/>
      <point x="616" y="0"/>
      <point x="538" y="0"/>
      <point x="615" y="0" type="curve"/>
      <point x="671" y="241"/>
      <point x="726" y="481"/>
      <point x="783" y="722" type="curve"/>
      <point x="700" y="722"/>
      <point x="783" y="722"/>
    </contour>
  </outline>
</glyph>
<glyph name="X" format="1">
  <advance width="568"/>
  <unicode hex="0058"/>
  <outline>
    <contour>
      <point x="449" y="722" type="curve"/>
      <point x="303" y="483"/>
      <point x="150" y="239"/>
      <point x="5" y="0" type="curve"/>
      <point x="97" y="0"/>
      <point x="12" y="0"/>
      <point x="104" y="0" type="curve"/>
      <point x="248" y="239"/>
      <point x="398" y="483"/>
      <point x="543" y="722" type="curve"/>
      <point x="455" y="722"/>
      <point x="536" y="722"/>
    </contour>
    <contour>
      <point x="31" y="722" type="curve"/>
      <point x="174" y="483"/>
      <point x="322" y="239"/>
      <point x="465" y="0" type="curve"/>
      <point x="556" y="0"/>
      <point x="469" y="0"/>
      <point x="561" y="0" type="curve"/>
      <point x="416" y="239"/>
      <point x="267" y="483"/>
      <point x="123" y="722" type="curve"/>
      <point x="36" y="722"/>
      <point x="118" y="722"/>
    </contour>
  </outline>
</glyph>
<glyph name="Y" format="1">
  <advance width="545"/>
  <unicode hex="0059"/>
  <outline>
    <contour>
      <point x="16" y="722" type="curve"/>
      <point x="84" y="596"/>
      <point x="158" y="465"/>
      <point x="225" y="337" type="curve"/>
      <point x="317" y="337"/>
      <point x="216" y="337"/>
      <point x="308" y="337" type="curve"/>
      <point x="243" y="467"/>
      <point x="178" y="593"/>
      <point x="112" y="722" type="curve"/>
      <point x="24" y="722"/>
      <point x="104" y="722"/>
    </contour>
    <contour>
      <point x="446" y="722" type="curve"/>
      <point x="375" y="592"/>
      <point x="306" y="467"/>
      <point x="234" y="337" type="curve"/>
      <point x="326" y="337"/>
      <point x="229" y="337"/>
      <point x="321" y="337" type="curve"/>
      <point x="392" y="464"/>
      <point x="467" y="596"/>
      <point x="539" y="722" type="curve"/>
      <point x="451" y="722"/>
      <point x="534" y="722"/>
    </contour>
    <contour>
      <point x="322" y="0" type="curve"/>
      <point x="322" y="115"/>
      <point x="322" y="227"/>
      <point x="322" y="342" type="curve"/>
      <point x="224" y="342"/>
      <point x="322" y="342"/>
      <point x="224" y="342" type="curve"/>
      <point x="224" y="227"/>
      <point x="224" y="115"/>
      <point x="224" y="0" type="curve"/>
      <point x="322" y="0"/>
      <point x="224" y="0"/>
    </contour>
    <contour>
      <point x="277" y="801" type="move" name="top"/>
    </contour>
  </outline>
</glyph>
<glyph name="bracketleft" format="1">
  <advance width="282"/>
  <unicode hex="005B"/>
  <outline>
    <contour>
      <point x="248" y="770" type="curve"/>
      <point x="203" y="770"/>
      <point x="158" y="770"/>
      <point x="113" y="770" type="curve"/>
      <point x="103" y="770"/>
      <point x="84" y="770"/>
      <point x="74" y="770" type="curve"/>
      <point x="74" y="760"/>
      <point x="74" y="747"/>
      <point x="74" y="737" type="curve"/>
      <point x="74" y="462"/>
      <point x="74" y="188"/>
      <point x="74" y="-87" type="curve"/>
      <point x="74" y="-97"/>
      <point x="74" y="-106"/>
      <point x="74" y="-118" type="curve"/>
      <point x="83" y="-118"/>
      <point x="102" y="-118"/>
      <point x="112" y="-118" type="curve"/>
      <point x="157" y="-118"/>
      <point x="203" y="-118"/>
      <point x="248" y="-118" type="curve"/>
      <point x="248" y="-41"/>
      <point x="248" y="-118"/>
      <point x="248" y="-41" type="curve"/>
      <point x="203" y="-41"/>
      <point x="157" y="-41"/>
      <point x="112" y="-41" type="curve"/>
      <point x="164" y="-41"/>
      <point x="112" y="-41"/>
      <point x="164" y="-41" type="curve"/>
      <point x="164" y="-87"/>
      <point x="164" y="-41"/>
      <point x="164" y="-87" type="curve"/>
      <point x="164" y="188"/>
      <point x="164" y="462"/>
      <point x="164" y="737" type="curve"/>
      <point x="164" y="693"/>
      <point x="164" y="737"/>
      <point x="164" y="693" type="curve"/>
      <point x="113" y="693"/>
      <point x="164" y="693"/>
      <point x="113" y="693" type="curve"/>
      <point x="158" y="693"/>
      <point x="203" y="693"/>
      <point x="248" y="693" type="curve"/>
      <point x="248" y="770"/>
      <point x="248" y="693"/>
    </contour>
  </outline>
</glyph>
<glyph name="backslash" format="1">
  <advance width="492"/>
  <unicode hex="005C"/>
  <outline>
    <contour>
      <point x="466" y="-68" type="curve"/>
      <point x="351" y="236"/>
      <point x="235" y="540"/>
      <point x="120" y="844" type="curve"/>
      <point x="26" y="844"/>
      <point x="120" y="844"/>
      <point x="26" y="844" type="curve"/>
      <point x="141" y="540"/>
      <point x="257" y="236"/>
      <point x="373" y="-68" type="curve"/>
      <point x="466" y="-68"/>
      <point x="373" y="-68"/>
    </contour>
  </outline>
</glyph>
<glyph name="bracketright" format="1">
  <advance width="282"/>
  <unicode hex="005D"/>
  <outline>
    <contour>
      <point x="34" y="693" type="curve"/>
      <point x="79" y="693"/>
      <point x="124" y="693"/>
      <point x="170" y="693" type="curve"/>
      <point x="161" y="701"/>
      <point x="149" y="703"/>
      <point x="141" y="711" type="curve"/>
      <point x="133" y="719"/>
      <point x="126" y="729"/>
      <point x="119" y="737" type="curve"/>
      <point x="119" y="462"/>
      <point x="118" y="188"/>
      <point x="119" y="-87" type="curve"/>
      <point x="127" y="-78"/>
      <point x="135" y="-69"/>
      <point x="144" y="-61" type="curve"/>
      <point x="151" y="-53"/>
      <point x="163" y="-49"/>
      <point x="170" y="-41" type="curve"/>
      <point x="125" y="-41"/>
      <point x="79" y="-41"/>
      <point x="34" y="-41" type="curve"/>
      <point x="34" y="-118"/>
      <point x="34" y="-41"/>
      <point x="34" y="-118" type="curve"/>
      <point x="79" y="-118"/>
      <point x="125" y="-118"/>
      <point x="170" y="-118" type="curve"/>
      <point x="209" y="-118"/>
      <point x="170" y="-118"/>
      <point x="209" y="-118" type="curve"/>
      <point x="209" y="-87"/>
      <point x="209" y="-118"/>
      <point x="209" y="-87" type="curve"/>
      <point x="208" y="188"/>
      <point x="209" y="462"/>
      <point x="209" y="737" type="curve"/>
      <point x="209" y="770"/>
      <point x="209" y="737"/>
      <point x="209" y="770" type="curve"/>
      <point x="170" y="770"/>
      <point x="209" y="770"/>
      <point x="170" y="770" type="curve"/>
      <point x="124" y="770"/>
      <point x="79" y="770"/>
      <point x="34" y="770" type="curve"/>
      <point x="34" y="693"/>
      <point x="34" y="770"/>
    </contour>
  </outline>
</glyph>
<glyph name="asciicircum" format="1">
  <advance width="488"/>
  <unicode hex="005E"/>
  <outline>
    <contour>
      <point x="134" y="459" type="curve"/>
      <point x="185" y="566"/>
      <point x="237" y="673"/>
      <point x="288" y="780" type="curve"/>
      <point x="198" y="780"/>
      <point x="288" y="780"/>
      <point x="198" y="780" type="curve"/>
      <point x="146" y="673"/>
      <point x="95" y="566"/>
      <point x="44" y="459" type="curve"/>
      <point x="133" y="459"/>
      <point x="44" y="459"/>
    </contour>
    <contour>
      <point x="444" y="459" type="curve"/>
      <point x="393" y="564"/>
      <point x="339" y="674"/>
      <point x="288" y="780" type="curve"/>
      <point x="199" y="780"/>
      <point x="288" y="780"/>
      <point x="198" y="780" type="curve"/>
      <point x="249" y="674"/>
      <point x="303" y="564"/>
      <point x="354" y="459" type="curve"/>
      <point x="443" y="459"/>
      <point x="354" y="459"/>
    </contour>
  </outline>
</glyph>
<glyph name="grave" format="1">
  <advance width="344"/>
  <unicode hex="0060"/>
  <outline>
    <contour>
      <point x="280" y="582" type="line"/>
      <point x="180" y="748" type="line"/>
      <point x="66" y="748" type="line"/>
      <point x="192" y="582" type="line"/>
    </contour>
    <contour>
      <point x="233" y="582" type="move" name="_top"/>
    </contour>
  </outline>
</glyph>
<glyph name="a" format="1">
  <advance width="515"/>
  <unicode hex="0061"/>
  <outline>
    <contour>
      <point x="440" y="0" type="curve"/>
      <point x="440" y="126"/>
      <point x="440" y="252"/>
      <point x="440" y="378" type="curve"/>
      <point x="440" y="493"/>
      <point x="367" y="538"/>
      <point x="254" y="538" type="curve"/>
      <point x="169" y="538"/>
      <point x="109" y="504"/>
      <point x="63" y="463" type="curve"/>
      <point x="99" y="404"/>
      <point x="64" y="462"/>
      <point x="100" y="403" type="curve"/>
      <point x="133" y="432"/>
      <point x="177" y="466"/>
      <point x="242" y="466" type="curve"/>
      <point x="311" y="466"/>
      <point x="350" y="436"/>
      <point x="350" y="364" type="curve"/>
      <point x="350" y="243"/>
      <point x="350" y="121"/>
      <point x="350" y="0" type="curve"/>
      <point x="440" y="0"/>
      <point x="350" y="0"/>
    </contour>
    <contour>
      <point x="392" y="335" type="curve"/>
      <point x="323" y="325"/>
      <point x="284" y="322"/>
      <point x="216" y="312" type="curve"/>
      <point x="112" y="296"/>
      <point x="42" y="255"/>
      <point x="42" y="153" type="curve"/>
      <point x="42" y="52"/>
      <point x="97" y="-5"/>
      <point x="201" y="-5" type="curve"/>
      <point x="310" y="-5"/>
      <point x="361" y="71"/>
      <point x="417" y="152" type="curve"/>
      <point x="372" y="191"/>
      <point x="418" y="152"/>
      <point x="372" y="191" type="curve"/>
      <point x="339" y="124"/>
      <point x="295" y="65"/>
      <point x="220" y="65" type="curve"/>
      <point x="157" y="65"/>
      <point x="130" y="98"/>
      <point x="130" y="156" type="curve"/>
      <point x="130" y="211"/>
      <point x="166" y="241"/>
      <point x="216" y="248" type="curve"/>
      <point x="288" y="259"/>
      <point x="324" y="264"/>
      <point x="396" y="275" type="curve"/>
      <point x="392" y="335"/>
      <point x="396" y="275"/>
    </contour>
    <contour>
      <point x="255" y="639" type="move" name="top"/>
    </contour>
    <contour>
      <point x="432" y="3" type="move" name="bottom"/>
    </contour>
  </outline>
</glyph>
<glyph name="b" format="1">
  <advance width="588"/>
  <unicode hex="0062"/>
  <outline>
    <contour>
      <point x="147" y="369" type="curve"/>
      <point x="177" y="413"/>
      <point x="233" y="466"/>
      <point x="308" y="466" type="curve"/>
      <point x="408" y="466"/>
      <point x="450" y="376"/>
      <point x="450" y="264" type="curve"/>
      <point x="451" y="157"/>
      <point x="405" y="67"/>
      <point x="309" y="67" type="curve"/>
      <point x="243" y="67"/>
      <point x="192" y="103"/>
      <point x="153" y="155" type="curve"/>
      <point x="112" y="126"/>
      <point x="146" y="147"/>
      <point x="105" y="119" type="curve"/>
      <point x="158" y="46"/>
      <point x="222" y="-5"/>
      <point x="319" y="-5" type="curve"/>
      <point x="464" y="-5"/>
      <point x="541" y="109"/>
      <point x="541" y="267" type="curve"/>
      <point x="541" y="423"/>
      <point x="465" y="538"/>
      <point x="320" y="538" type="curve"/>
      <point x="219" y="538"/>
      <point x="151" y="475"/>
      <point x="108" y="410" type="curve"/>
      <point x="141" y="380"/>
      <point x="113" y="400"/>
    </contour>
    <contour>
      <point x="169" y="0" type="curve"/>
      <point x="169" y="273"/>
      <point x="169" y="527"/>
      <point x="169" y="800" type="curve"/>
      <point x="93" y="800"/>
      <point x="155" y="800"/>
      <point x="79" y="800" type="curve"/>
      <point x="79" y="527"/>
      <point x="79" y="273"/>
      <point x="79" y="0" type="curve"/>
      <point x="155" y="0"/>
      <point x="93" y="0"/>
    </contour>
  </outline>
</glyph>
<glyph name="d" format="1">
  <advance width="591"/>
  <unicode hex="0064"/>
  <outline>
    <contour>
      <point x="474" y="438" type="curve"/>
      <point x="427" y="500"/>
      <point x="358" y="536"/>
      <point x="276" y="536" type="curve"/>
      <point x="126" y="536"/>
      <point x="48" y="421"/>
      <point x="48" y="263" type="curve"/>
      <point x="48" y="107"/>
      <point x="129" y="-3"/>
      <point x="276" y="-3" type="curve"/>
      <point x="368" y="-3"/>
      <point x="431" y="45"/>
      <point x="474" y="126" type="curve"/>
      <point x="438" y="171"/>
      <point x="473" y="126"/>
      <point x="436" y="171" type="curve"/>
      <point x="401" y="108"/>
      <point x="356" y="67"/>
      <point x="290" y="67" type="curve"/>
      <point x="187" y="67"/>
      <point x="137" y="152"/>
      <point x="137" y="267" type="curve"/>
      <point x="137" y="381"/>
      <point x="189" y="466"/>
      <point x="292" y="466" type="curve"/>
      <point x="352" y="466"/>
      <point x="405" y="435"/>
      <point x="438" y="387" type="curve"/>
      <point x="475" y="437"/>
      <point x="437" y="389"/>
    </contour>
    <contour>
      <point x="511" y="0" type="curve"/>
      <point x="511" y="267"/>
      <point x="511" y="533"/>
      <point x="511" y="800" type="curve"/>
      <point x="418" y="800"/>
      <point x="511" y="800"/>
      <point x="418" y="800" type="curve"/>
      <point x="418" y="533"/>
      <point x="418" y="267"/>
      <point x="418" y="0" type="curve"/>
      <point x="511" y="0"/>
      <point x="418" y="0"/>
    </contour>
  </outline>
</glyph>
<glyph name="f" format="1">
  <advance width="404"/>
  <unicode hex="0066"/>
  <outline>
    <contour>
      <point x="22" y="463" type="curve"/>
      <point x="379" y="463" type="line"/>
      <point x="379" y="533"/>
      <point x="379" y="463"/>
      <point x="379" y="533" type="curve"/>
      <point x="22" y="533" type="line"/>
      <point x="22" y="463"/>
      <point x="22" y="533"/>
    </contour>
    <contour>
      <point x="228" y="0" type="curve"/>
      <point x="228" y="621" type="line"/>
      <point x="228" y="686"/>
      <point x="248" y="737"/>
      <point x="308" y="737" type="curve"/>
      <point x="334" y="737"/>
      <point x="358" y="728"/>
      <point x="381" y="716" type="curve"/>
      <point x="417" y="771"/>
      <point x="381" y="716"/>
      <point x="417" y="771" type="curve"/>
      <point x="384" y="790"/>
      <point x="346" y="804"/>
      <point x="308" y="804" type="curve"/>
      <point x="200" y="804"/>
      <point x="137" y="730"/>
      <point x="138" y="621" type="curve"/>
      <point x="138" y="0" type="line"/>
      <point x="228" y="0"/>
      <point x="138" y="0"/>
    </contour>
  </outline>
</glyph>
<glyph name="g" format="1">
  <advance width="502"/>
  <unicode hex="0067"/>
  <outline>
    <contour>
      <point x="346" y="462" type="curve"/>
      <point x="482" y="532" type="line"/>
      <point x="477" y="539"/>
      <point x="450" y="591"/>
      <point x="445" y="598" type="curve"/>
      <point x="299" y="516" type="line"/>
      <point x="346" y="462"/>
      <point x="299" y="516"/>
    </contour>
    <contour>
      <point x="139" y="346" type="curve"/>
      <point x="139" y="417"/>
      <point x="180" y="468"/>
      <point x="249" y="468" type="curve"/>
      <point x="319" y="468"/>
      <point x="356" y="418"/>
      <point x="356" y="347" type="curve"/>
      <point x="356" y="280"/>
      <point x="318" y="232"/>
      <point x="249" y="232" type="curve"/>
      <point x="182" y="232"/>
      <point x="139" y="277"/>
      <point x="139" y="346" type="curve"/>
      <point x="49" y="343"/>
      <point x="139" y="346"/>
      <point x="49" y="343" type="curve"/>
      <point x="49" y="231"/>
      <point x="129" y="163"/>
      <point x="244" y="163" type="curve"/>
      <point x="362" y="163"/>
      <point x="446" y="233"/>
      <point x="446" y="350" type="curve"/>
      <point x="446" y="465"/>
      <point x="366" y="538"/>
      <point x="249" y="538" type="curve"/>
      <point x="129" y="538"/>
      <point x="49" y="462"/>
      <point x="49" y="343" type="curve"/>
      <point x="139" y="346"/>
      <point x="49" y="343"/>
    </contour>
    <contour>
      <point x="139" y="238" type="curve"/>
      <point x="87" y="207"/>
      <point x="53" y="170"/>
      <point x="53" y="111" type="curve"/>
      <point x="53" y="19"/>
      <point x="137" y="-15"/>
      <point x="237" y="-24" type="curve"/>
      <point x="325" y="-32"/>
      <point x="408" y="-50"/>
      <point x="408" y="-130" type="curve"/>
      <point x="408" y="-205"/>
      <point x="334" y="-235"/>
      <point x="248" y="-235" type="curve"/>
      <point x="166" y="-235"/>
      <point x="103" y="-195"/>
      <point x="103" y="-117" type="curve"/>
      <point x="103" y="-58"/>
      <point x="130" y="-16"/>
      <point x="180" y="7" type="curve"/>
      <point x="136" y="49"/>
      <point x="180" y="7"/>
      <point x="136" y="49" type="curve"/>
      <point x="61" y="16"/>
      <point x="13" y="-36"/>
      <point x="13" y="-121" type="curve"/>
      <point x="13" y="-244"/>
      <point x="114" y="-304"/>
      <point x="244" y="-304" type="curve"/>
      <point x="379" y="-304"/>
      <point x="492" y="-251"/>
      <point x="489" y="-123" type="curve"/>
      <point x="489" y="-4"/>
      <point x="379" y="31"/>
      <point x="253" y="42" type="curve"/>
      <point x="194" y="47"/>
      <point x="142" y="66"/>
      <point x="142" y="118" type="curve"/>
      <point x="142" y="152"/>
      <point x="156" y="174"/>
      <point x="184" y="193" type="curve"/>
      <point x="139" y="238"/>
      <point x="184" y="193"/>
    </contour>
    <contour>
      <point x="246" y="639" type="move" name="top"/>
    </contour>
  </outline>
</glyph>
<glyph name="h" format="1">
  <advance width="572"/>
  <unicode hex="0068"/>
  <outline>
    <contour>
      <point x="149" y="321" type="curve"/>
      <point x="172" y="396"/>
      <point x="229" y="466"/>
      <point x="304" y="466" type="curve"/>
      <point x="384" y="466"/>
      <point x="409" y="405"/>
      <point x="409" y="321" type="curve"/>
      <point x="409" y="214"/>
      <point x="409" y="108"/>
      <point x="409" y="0" type="curve"/>
      <point x="498" y="0"/>
      <point x="409" y="0"/>
      <point x="498" y="0" type="curve"/>
      <point x="498" y="110"/>
      <point x="498" y="220"/>
      <point x="498" y="330" type="curve"/>
      <point x="498" y="456"/>
      <point x="449" y="536"/>
      <point x="326" y="536" type="curve"/>
      <point x="226" y="536"/>
      <point x="145" y="458"/>
      <point x="118" y="357" type="curve"/>
      <point x="150" y="321"/>
      <point x="116" y="357"/>
    </contour>
    <contour>
      <point x="169" y="0" type="curve"/>
      <point x="169" y="267"/>
      <point x="169" y="533"/>
      <point x="169" y="800" type="curve"/>
      <point x="79" y="800"/>
      <point x="169" y="800"/>
      <point x="79" y="800" type="curve"/>
      <point x="79" y="533"/>
      <point x="79" y="267"/>
      <point x="79" y="0" type="curve"/>
      <point x="169" y="0"/>
      <point x="79" y="0"/>
    </contour>
  </outline>
</glyph>
<glyph name="i" format="1">
  <advance width="252"/>
  <unicode hex="0069"/>
  <outline>
    <contour>
      <point x="173" y="0" type="curve"/>
      <point x="173" y="178"/>
      <point x="173" y="355"/>
      <point x="173" y="533" type="curve"/>
      <point x="79" y="533"/>
      <point x="173" y="533"/>
      <point x="79" y="533" type="curve"/>
      <point x="79" y="355"/>
      <point x="79" y="178"/>
      <point x="79" y="0" type="curve"/>
      <point x="173" y="0"/>
      <point x="79" y="0"/>
    </contour>
    <contour>
      <point x="175" y="683" type="curve"/>
      <point x="175" y="715"/>
      <point x="153" y="731"/>
      <point x="123" y="731" type="curve"/>
      <point x="92" y="731"/>
      <point x="72" y="713"/>
      <point x="72" y="683" type="curve"/>
      <point x="172" y="683"/>
      <point x="76" y="683"/>
      <point x="175" y="683" type="curve"/>
      <point x="175" y="651"/>
      <point x="154" y="636"/>
      <point x="123" y="636" type="curve"/>
      <point x="92" y="636"/>
      <point x="72" y="652"/>
      <point x="72" y="683" type="curve"/>
      <point x="172" y="683"/>
      <point x="76" y="683"/>
    </contour>
    <contour>
      <point x="123" y="639" type="move" name="top"/>
    </contour>
    <contour>
      <point x="167" y="4" type="move" name="bottom"/>
    </contour>
  </outline>
</glyph>
<glyph name="j" format="1">
  <advance width="246"/>
  <unicode hex="006A"/>
  <outline>
    <contour>
      <point x="-28" y="-302" type="curve"/>
      <point x="-20" y="-303"/>
      <point x="-10" y="-305"/>
      <point x="1" y="-305" type="curve"/>
      <point x="106" y="-305"/>
      <point x="178" y="-235"/>
      <point x="178" y="-130" type="curve"/>
      <point x="178" y="91"/>
      <point x="178" y="312"/>
      <point x="178" y="534" type="curve"/>
      <point x="88" y="534"/>
      <point x="178" y="534"/>
      <point x="88" y="534" type="curve"/>
      <point x="88" y="312"/>
      <point x="88" y="91"/>
      <point x="88" y="-130" type="curve"/>
      <point x="88" y="-187"/>
      <point x="60" y="-236"/>
      <point x="5" y="-236" type="curve"/>
      <point x="-2" y="-236"/>
      <point x="-9" y="-235"/>
      <point x="-15" y="-234" type="curve"/>
      <point x="-28" y="-301"/>
      <point x="-16" y="-236"/>
    </contour>
    <contour>
      <point x="185" y="680" type="curve"/>
      <point x="185" y="712"/>
      <point x="163" y="728"/>
      <point x="132" y="728" type="curve"/>
      <point x="102" y="728"/>
      <point x="82" y="710"/>
      <point x="82" y="680" type="curve"/>
      <point x="182" y="680"/>
      <point x="85" y="680"/>
      <point x="185" y="680" type="curve"/>
      <point x="185" y="648"/>
      <point x="163" y="633"/>
      <point x="132" y="633" type="curve"/>
      <point x="101" y="633"/>
      <point x="82" y="649"/>
      <point x="82" y="680" type="curve"/>
      <point x="182" y="680"/>
      <point x="85" y="680"/>
    </contour>
  </outline>
</glyph>
<glyph name="k" format="1">
  <advance width="523"/>
  <unicode hex="006B"/>
  <outline>
    <contour>
      <point x="169" y="0" type="curve"/>
      <point x="169" y="800" type="line"/>
      <point x="79" y="800"/>
      <point x="169" y="800"/>
      <point x="79" y="800" type="curve"/>
      <point x="79" y="533"/>
      <point x="79" y="267"/>
      <point x="79" y="0" type="curve"/>
      <point x="169" y="0"/>
      <point x="79" y="0"/>
    </contour>
    <contour>
      <point x="374" y="533" type="curve"/>
      <point x="148" y="275" type="line"/>
      <point x="246" y="275"/>
      <point x="154" y="275"/>
      <point x="252" y="275" type="curve"/>
      <point x="483" y="533" type="line"/>
      <point x="388" y="533"/>
      <point x="468" y="533"/>
    </contour>
    <contour>
      <point x="505" y="0" type="curve"/>
      <point x="252" y="275" type="line"/>
      <point x="154" y="275"/>
      <point x="246" y="275"/>
      <point x="148" y="275" type="curve"/>
      <point x="396" y="0" type="line"/>
      <point x="487" y="0"/>
      <point x="415" y="0"/>
    </contour>
    <contour>
      <point x="328" y="-28" type="move" name="bottom"/>
    </contour>
  </outline>
</glyph>
<glyph name="l" format="1">
  <advance width="248"/>
  <unicode hex="006C"/>
  <outline>
    <contour>
      <point x="169" y="0" type="curve"/>
      <point x="169" y="267"/>
      <point x="169" y="533"/>
      <point x="169" y="800" type="curve"/>
      <point x="79" y="800"/>
      <point x="169" y="800"/>
      <point x="79" y="800" type="curve"/>
      <point x="79" y="533"/>
      <point x="79" y="267"/>
      <point x="79" y="0" type="curve"/>
      <point x="169" y="0"/>
      <point x="79" y="0"/>
    </contour>
    <contour>
      <point x="125" y="887" type="move" name="top"/>
    </contour>
    <contour>
      <point x="157" y="-25" type="move" name="bottom"/>
    </contour>
  </outline>
</glyph>
<glyph name="m" format="1">
  <advance width="831"/>
  <unicode hex="006D"/>
  <outline>
    <contour>
      <point x="443" y="308" type="curve"/>
      <point x="470" y="390"/>
      <point x="506" y="466"/>
      <point x="579" y="466" type="curve"/>
      <point x="657" y="466"/>
      <point x="667" y="410"/>
      <point x="667" y="323" type="curve"/>
      <point x="667" y="216"/>
      <point x="667" y="108"/>
      <point x="667" y="0" type="curve"/>
      <point x="757" y="0"/>
      <point x="667" y="0"/>
      <point x="757" y="0" type="curve"/>
      <point x="757" y="110"/>
      <point x="757" y="220"/>
      <point x="757" y="330" type="curve"/>
      <point x="757" y="460"/>
      <point x="729" y="538"/>
      <point x="606" y="538" type="curve"/>
      <point x="504" y="538"/>
      <point x="445" y="457"/>
      <point x="411" y="347" type="curve"/>
      <point x="445" y="309"/>
      <point x="409" y="345"/>
    </contour>
    <contour>
      <point x="149" y="309" type="curve"/>
      <point x="175" y="390"/>
      <point x="211" y="466"/>
      <point x="284" y="466" type="curve"/>
      <point x="363" y="466"/>
      <point x="373" y="410"/>
      <point x="373" y="323" type="curve"/>
      <point x="373" y="216"/>
      <point x="373" y="108"/>
      <point x="373" y="0" type="curve"/>
      <point x="463" y="0"/>
      <point x="373" y="0"/>
      <point x="463" y="0" type="curve"/>
      <point x="463" y="110"/>
      <point x="463" y="220"/>
      <point x="463" y="330" type="curve"/>
      <point x="463" y="460"/>
      <point x="436" y="538"/>
      <point x="312" y="538" type="curve"/>
      <point x="209" y="538"/>
      <point x="154" y="459"/>
      <point x="118" y="347" type="curve"/>
      <point x="151" y="310"/>
      <point x="116" y="346"/>
    </contour>
    <contour>
      <point x="169" y="0" type="curve"/>
      <point x="169" y="178"/>
      <point x="169" y="355"/>
      <point x="169" y="533" type="curve"/>
      <point x="79" y="533"/>
      <point x="169" y="533"/>
      <point x="79" y="533" type="curve"/>
      <point x="79" y="355"/>
      <point x="79" y="178"/>
      <point x="79" y="0" type="curve"/>
      <point x="169" y="0"/>
      <point x="79" y="0"/>
    </contour>
  </outline>
</glyph>
<glyph name="p" format="1">
  <advance width="591"/>
  <unicode hex="0070"/>
  <outline>
    <contour>
      <point x="146" y="347" type="curve"/>
      <point x="175" y="408"/>
      <point x="235" y="468"/>
      <point x="309" y="468" type="curve"/>
      <point x="415" y="468"/>
      <point x="454" y="379"/>
      <point x="454" y="268" type="curve"/>
      <point x="455" y="155"/>
      <point x="414" y="64"/>
      <point x="309" y="65" type="curve"/>
      <point x="241" y="65"/>
      <point x="193" y="98"/>
      <point x="149" y="148" type="curve"/>
      <point x="118" y="116"/>
      <point x="143" y="140"/>
      <point x="112" y="108" type="curve"/>
      <point x="167" y="37"/>
      <point x="232" y="-5"/>
      <point x="324" y="-5" type="curve"/>
      <point x="477" y="-5"/>
      <point x="543" y="116"/>
      <point x="543" y="272" type="curve"/>
      <point x="543" y="422"/>
      <point x="477" y="539"/>
      <point x="327" y="539" type="curve"/>
      <point x="230" y="539"/>
      <point x="158" y="476"/>
      <point x="117" y="404" type="curve"/>
      <point x="142" y="355"/>
      <point x="121" y="396"/>
    </contour>
    <contour>
      <point x="169" y="-300" type="curve"/>
      <point x="169" y="-22"/>
      <point x="169" y="255"/>
      <point x="169" y="533" type="curve"/>
      <point x="79" y="533"/>
      <point x="169" y="533"/>
      <point x="79" y="533" type="curve"/>
      <point x="79" y="255"/>
      <point x="79" y="-22"/>
      <point x="79" y="-300" type="curve"/>
      <point x="169" y="-300"/>
      <point x="79" y="-300"/>
    </contour>
  </outline>
</glyph>
<glyph name="q" format="1">
  <advance width="594"/>
  <unicode hex="0071"/>
  <outline>
    <contour>
      <point x="478" y="412" type="curve"/>
      <point x="429" y="490"/>
      <point x="354" y="538"/>
      <point x="267" y="538" type="curve"/>
      <point x="114" y="538"/>
      <point x="47" y="419"/>
      <point x="48" y="264" type="curve"/>
      <point x="48" y="109"/>
      <point x="120" y="-5"/>
      <point x="271" y="-5" type="curve"/>
      <point x="361" y="-5"/>
      <point x="432" y="53"/>
      <point x="481" y="128" type="curve"/>
      <point x="453" y="162"/>
      <point x="473" y="136"/>
      <point x="445" y="170" type="curve"/>
      <point x="409" y="108"/>
      <point x="352" y="64"/>
      <point x="284" y="64" type="curve"/>
      <point x="180" y="64"/>
      <point x="138" y="154"/>
      <point x="138" y="268" type="curve"/>
      <point x="138" y="378"/>
      <point x="180" y="467"/>
      <point x="282" y="467" type="curve"/>
      <point x="347" y="467"/>
      <point x="404" y="434"/>
      <point x="449" y="367" type="curve"/>
      <point x="470" y="404"/>
      <point x="456" y="375"/>
    </contour>
    <contour>
      <point x="515" y="-300" type="curve"/>
      <point x="515" y="-18"/>
      <point x="515" y="251"/>
      <point x="515" y="533" type="curve"/>
      <point x="436" y="533"/>
      <point x="500" y="533"/>
      <point x="421" y="533" type="curve"/>
      <point x="421" y="251"/>
      <point x="421" y="-18"/>
      <point x="421" y="-300" type="curve"/>
      <point x="500" y="-300"/>
      <point x="436" y="-300"/>
    </contour>
  </outline>
</glyph>
<glyph name="r" format="1">
  <advance width="362"/>
  <unicode hex="0072"/>
  <outline>
    <contour>
      <point x="169" y="0" type="curve"/>
      <point x="169" y="182"/>
      <point x="169" y="351"/>
      <point x="169" y="533" type="curve"/>
      <point x="93" y="533"/>
      <point x="155" y="533"/>
      <point x="79" y="533" type="curve"/>
      <point x="79" y="351"/>
      <point x="79" y="182"/>
      <point x="79" y="0" type="curve"/>
      <point x="155" y="0"/>
      <point x="93" y="0"/>
    </contour>
    <contour>
      <point x="148" y="317" type="curve"/>
      <point x="185" y="424"/>
      <point x="261" y="463"/>
      <point x="350" y="463" type="curve"/>
      <point x="350" y="527"/>
      <point x="350" y="473"/>
      <point x="350" y="538" type="curve"/>
      <point x="242" y="538"/>
      <point x="158" y="469"/>
      <point x="116" y="360" type="curve"/>
      <point x="144" y="327"/>
      <point x="122" y="349"/>
    </contour>
    <contour>
      <point x="141" y="639" type="move" name="top"/>
    </contour>
    <contour>
      <point x="155" y="-21" type="move" name="bottom"/>
    </contour>
  </outline>
</glyph>
<glyph name="t" format="1">
  <advance width="376"/>
  <unicode hex="0074"/>
  <outline>
    <contour>
      <point x="22" y="463" type="curve"/>
      <point x="361" y="463" type="line"/>
      <point x="361" y="533"/>
      <point x="361" y="463"/>
      <point x="361" y="533" type="curve"/>
      <point x="22" y="533" type="line"/>
      <point x="22" y="463"/>
      <point x="22" y="533"/>
    </contour>
    <contour>
      <point x="332" y="89" type="curve"/>
      <point x="310" y="76"/>
      <point x="292" y="68"/>
      <point x="266" y="68" type="curve"/>
      <point x="217" y="68"/>
      <point x="203" y="105"/>
      <point x="203" y="161" type="curve"/>
      <point x="203" y="681" type="line"/>
      <point x="144" y="644"/>
      <point x="172" y="661"/>
      <point x="113" y="624" type="curve"/>
      <point x="113" y="158" type="line"/>
      <point x="113" y="54"/>
      <point x="159" y="-6"/>
      <point x="255" y="-6" type="curve"/>
      <point x="299" y="-6"/>
      <point x="330" y="7"/>
      <point x="366" y="28" type="curve"/>
      <point x="332" y="89"/>
      <point x="366" y="28"/>
    </contour>
    <contour>
      <point x="278" y="-23" type="move" name="bottom"/>
    </contour>
  </outline>
</glyph>
<glyph name="v" format="1">
  <advance width="518"/>
  <unicode hex="0076"/>
  <outline>
    <contour>
      <point x="22" y="533" type="curve"/>
      <point x="83" y="355"/>
      <point x="145" y="178"/>
      <point x="206" y="0" type="curve"/>
      <point x="292" y="0"/>
      <point x="206" y="0"/>
      <point x="292" y="0" type="curve"/>
      <point x="231" y="178"/>
      <point x="174" y="355"/>
      <point x="114" y="533" type="curve"/>
      <point x="22" y="533"/>
      <point x="114" y="533"/>
    </contour>
    <contour>
      <point x="410" y="533" type="curve"/>
      <point x="221" y="0" type="line"/>
      <point x="308" y="0"/>
      <point x="221" y="0"/>
      <point x="308" y="0" type="curve"/>
      <point x="373" y="178"/>
      <point x="437" y="355"/>
      <point x="501" y="533" type="curve"/>
      <point x="410" y="533"/>
      <point x="501" y="533"/>
    </contour>
  </outline>
</glyph>
<glyph name="w" format="1">
  <advance width="799"/>
  <unicode hex="0077"/>
  <outline>
    <contour>
      <point x="266" y="0" type="curve"/>
      <point x="326" y="178"/>
      <point x="386" y="355"/>
      <point x="446" y="533" type="curve"/>
      <point x="362" y="533"/>
      <point x="446" y="533"/>
      <point x="362" y="533" type="curve"/>
      <point x="303" y="355"/>
      <point x="244" y="178"/>
      <point x="185" y="0" type="curve"/>
      <point x="266" y="0"/>
      <point x="185" y="0"/>
    </contour>
    <contour>
      <point x="696" y="533" type="curve"/>
      <point x="641" y="355"/>
      <point x="585" y="178"/>
      <point x="531" y="0" type="curve"/>
      <point x="611" y="0"/>
      <point x="531" y="0"/>
      <point x="611" y="0" type="curve"/>
      <point x="668" y="178"/>
      <point x="724" y="355"/>
      <point x="780" y="533" type="curve"/>
      <point x="696" y="533"/>
      <point x="780" y="533"/>
    </contour>
    <contour>
      <point x="368" y="533" type="curve"/>
      <point x="422" y="355"/>
      <point x="475" y="178"/>
      <point x="529" y="0" type="curve"/>
      <point x="610" y="0"/>
      <point x="529" y="0"/>
      <point x="610" y="0" type="curve"/>
      <point x="557" y="178"/>
      <point x="503" y="355"/>
      <point x="450" y="533" type="curve"/>
      <point x="368" y="533"/>
      <point x="450" y="533"/>
    </contour>
    <contour>
      <point x="23" y="533" type="curve"/>
      <point x="77" y="355"/>
      <point x="131" y="178"/>
      <point x="185" y="0" type="curve"/>
      <point x="265" y="0"/>
      <point x="185" y="0"/>
      <point x="265" y="0" type="curve"/>
      <point x="212" y="178"/>
      <point x="159" y="355"/>
      <point x="106" y="533" type="curve"/>
      <point x="23" y="533"/>
      <point x="106" y="533"/>
    </contour>
  </outline>
</glyph>
<glyph name="x" format="1">
  <advance width="521"/>
  <unicode hex="0078"/>
  <outline>
    <contour>
      <point x="507" y="0" type="curve"/>
      <point x="450" y="83"/>
      <point x="173" y="450"/>
      <point x="116" y="533" type="curve"/>
      <point x="8" y="533"/>
      <point x="129" y="533"/>
      <point x="21" y="533" type="curve"/>
      <point x="77" y="450"/>
      <point x="352" y="83"/>
      <point x="408" y="0" type="curve"/>
      <point x="507" y="0"/>
      <point x="408" y="0"/>
    </contour>
    <contour>
      <point x="408" y="533" type="curve"/>
      <point x="351" y="450"/>
      <point x="69" y="83"/>
      <point x="12" y="0" type="curve"/>
      <point x="111" y="0"/>
      <point x="12" y="0"/>
      <point x="111" y="0" type="curve"/>
      <point x="168" y="83"/>
      <point x="446" y="450"/>
      <point x="503" y="533" type="curve"/>
      <point x="390" y="533"/>
      <point x="521" y="533"/>
    </contour>
  </outline>
</glyph>
<glyph name="z" format="1">
  <advance width="480"/>
  <unicode hex="007A"/>
  <outline>
    <contour>
      <point x="49" y="463" type="curve"/>
      <point x="165" y="463"/>
      <point x="279" y="463"/>
      <point x="396" y="463" type="curve"/>
      <point x="389" y="471"/>
      <point x="377" y="469"/>
      <point x="370" y="477" type="curve"/>
      <point x="364" y="483"/>
      <point x="364" y="493"/>
      <point x="357" y="499" type="curve"/>
      <point x="352" y="492"/>
      <point x="342" y="496"/>
      <point x="336" y="489" type="curve"/>
      <point x="33" y="70" type="line"/>
      <point x="33" y="34"/>
      <point x="33" y="70"/>
      <point x="33" y="34" type="curve"/>
      <point x="33" y="0"/>
      <point x="33" y="34"/>
      <point x="33" y="0" type="curve"/>
      <point x="65" y="0"/>
      <point x="33" y="0"/>
      <point x="65" y="0" type="curve"/>
      <point x="448" y="0"/>
      <point x="318" y="0"/>
      <point x="446" y="0" type="curve"/>
      <point x="446" y="70"/>
      <point x="446" y="0"/>
      <point x="446" y="70" type="curve"/>
      <point x="318" y="70"/>
      <point x="193" y="70"/>
      <point x="65" y="70" type="curve"/>
      <point x="72" y="65"/>
      <point x="81" y="64"/>
      <point x="88" y="59" type="curve"/>
      <point x="95" y="52"/>
      <point x="96" y="41"/>
      <point x="103" y="34" type="curve"/>
      <point x="108" y="40"/>
      <point x="111" y="38"/>
      <point x="116" y="44" type="curve"/>
      <point x="422" y="463" type="line"/>
      <point x="422" y="499"/>
      <point x="422" y="463"/>
      <point x="422" y="499" type="curve"/>
      <point x="422" y="533"/>
      <point x="422" y="499"/>
      <point x="422" y="533" type="curve"/>
      <point x="396" y="533"/>
      <point x="422" y="533"/>
      <point x="396" y="533" type="curve"/>
      <point x="279" y="533"/>
      <point x="165" y="533"/>
      <point x="49" y="533" type="curve"/>
      <point x="49" y="463"/>
      <point x="49" y="533"/>
    </contour>
    <contour>
      <point x="240" y="638" type="move" name="top"/>
    </contour>
  </outline>
</glyph>
<glyph name="braceleft" format="1">
  <advance width="264"/>
  <unicode hex="007B"/>
  <outline>
    <contour>
      <point x="229" y="-46" type="curve"/>
      <point x="180" y="-46"/>
      <point x="167" y="-5"/>
      <point x="167" y="48" type="curve"/>
      <point x="167" y="102"/>
      <point x="167" y="157"/>
      <point x="167" y="212" type="curve"/>
      <point x="167" y="308"/>
      <point x="117" y="377"/>
      <point x="24" y="377" type="curve"/>
      <point x="24" y="303"/>
      <point x="24" y="377"/>
      <point x="24" y="303" type="curve"/>
      <point x="69" y="303"/>
      <point x="85" y="267"/>
      <point x="85" y="218" type="curve"/>
      <point x="85" y="163"/>
      <point x="85" y="107"/>
      <point x="85" y="51" type="curve"/>
      <point x="85" y="-48"/>
      <point x="134" y="-115"/>
      <point x="229" y="-115" type="curve"/>
      <point x="229" y="-46"/>
      <point x="229" y="-115"/>
    </contour>
    <contour>
      <point x="229" y="795" type="curve"/>
      <point x="134" y="795"/>
      <point x="85" y="729"/>
      <point x="85" y="630" type="curve"/>
      <point x="85" y="573"/>
      <point x="85" y="516"/>
      <point x="85" y="459" type="curve"/>
      <point x="85" y="411"/>
      <point x="69" y="377"/>
      <point x="24" y="377" type="curve"/>
      <point x="24" y="303"/>
      <point x="24" y="377"/>
      <point x="24" y="303" type="curve"/>
      <point x="118" y="303"/>
      <point x="167" y="370"/>
      <point x="167" y="469" type="curve"/>
      <point x="167" y="523"/>
      <point x="167" y="576"/>
      <point x="167" y="630" type="curve"/>
      <point x="167" y="683"/>
      <point x="179" y="724"/>
      <point x="229" y="724" type="curve"/>
      <point x="229" y="795"/>
      <point x="229" y="724"/>
    </contour>
  </outline>
</glyph>
<glyph name="braceright" format="1">
  <advance width="264"/>
  <unicode hex="007D"/>
  <outline>
    <contour>
      <point x="34" y="-115" type="curve"/>
      <point x="129" y="-115"/>
      <point x="178" y="-48"/>
      <point x="178" y="51" type="curve"/>
      <point x="178" y="107"/>
      <point x="178" y="163"/>
      <point x="178" y="218" type="curve"/>
      <point x="178" y="267"/>
      <point x="193" y="303"/>
      <point x="238" y="303" type="curve"/>
      <point x="238" y="377"/>
      <point x="238" y="303"/>
      <point x="238" y="377" type="curve"/>
      <point x="145" y="377"/>
      <point x="96" y="308"/>
      <point x="96" y="212" type="curve"/>
      <point x="96" y="157"/>
      <point x="96" y="102"/>
      <point x="96" y="48" type="curve"/>
      <point x="96" y="-5"/>
      <point x="83" y="-46"/>
      <point x="34" y="-46" type="curve"/>
      <point x="34" y="-115"/>
      <point x="34" y="-46"/>
    </contour>
    <contour>
      <point x="34" y="724" type="curve"/>
      <point x="84" y="724"/>
      <point x="96" y="683"/>
      <point x="96" y="630" type="curve"/>
      <point x="96" y="576"/>
      <point x="96" y="523"/>
      <point x="96" y="469" type="curve"/>
      <point x="96" y="370"/>
      <point x="145" y="303"/>
      <point x="238" y="303" type="curve"/>
      <point x="238" y="377"/>
      <point x="238" y="303"/>
      <point x="238" y="377" type="curve"/>
      <point x="194" y="377"/>
      <point x="178" y="411"/>
      <point x="178" y="459" type="curve"/>
      <point x="178" y="516"/>
      <point x="178" y="573"/>
      <point x="178" y="630" type="curve"/>
      <point x="178" y="729"/>
      <point x="129" y="794"/>
      <point x="34" y="794" type="curve"/>
      <point x="34" y="724"/>
      <point x="34" y="794"/>
    </contour>
  </outline>
</glyph>
<glyph name="asciitilde" format="1">
  <advance width="629"/>
  <unicode hex="007E"/>
  <outline>
    <contour>
      <point x="492" y="363" type="curve"/>
      <point x="478" y="321"/>
      <point x="463" y="277"/>
      <point x="422" y="277" type="curve"/>
      <point x="387" y="277"/>
      <point x="367" y="290"/>
      <point x="342" y="312" type="curve"/>
      <point x="300" y="349"/>
      <point x="269" y="371"/>
      <point x="213" y="371" type="curve"/>
      <point x="126" y="371"/>
      <point x="88" y="320"/>
      <point x="66" y="235" type="curve"/>
      <point x="98" y="224"/>
      <point x="102" y="221"/>
      <point x="135" y="210" type="curve"/>
      <point x="148" y="258"/>
      <point x="166" y="298"/>
      <point x="210" y="298" type="curve"/>
      <point x="242" y="298"/>
      <point x="260" y="286"/>
      <point x="283" y="266" type="curve"/>
      <point x="327" y="227"/>
      <point x="360" y="205"/>
      <point x="420" y="205" type="curve"/>
      <point x="505" y="205"/>
      <point x="537" y="259"/>
      <point x="563" y="339" type="curve"/>
      <point x="529" y="350"/>
      <point x="526" y="353"/>
    </contour>
  </outline>
</glyph>
<glyph name="exclamdown" format="1">
  <advance width="249"/>
  <unicode hex="00A1"/>
  <outline>
    <contour>
      <point x="84" y="301" type="line"/>
      <point x="75" y="-192" type="line"/>
      <point x="176" y="-192" type="line"/>
      <point x="168" y="301" type="line"/>
    </contour>
    <contour>
      <point x="75" y="491" type="curve"/>
      <point x="75" y="460"/>
      <point x="97" y="444"/>
      <point x="126" y="444" type="curve"/>
      <point x="157" y="444"/>
      <point x="177" y="461"/>
      <point x="177" y="491" type="curve"/>
      <point x="78" y="491"/>
      <point x="174" y="491"/>
      <point x="75" y="491" type="curve"/>
      <point x="75" y="523"/>
      <point x="97" y="538"/>
      <point x="127" y="537" type="curve"/>
      <point x="157" y="537"/>
      <point x="177" y="521"/>
      <point x="177" y="491" type="curve"/>
      <point x="78" y="491"/>
      <point x="174" y="491"/>
    </contour>
  </outline>
</glyph>
<glyph name="cent" format="1">
  <advance width="587"/>
  <unicode hex="00A2"/>
  <outline>
    <contour>
      <point x="357" y="-53" type="curve"/>
      <point x="357" y="-13"/>
      <point x="357" y="27"/>
      <point x="357" y="67" type="curve"/>
      <point x="267" y="67"/>
      <point x="357" y="67"/>
      <point x="267" y="67" type="curve"/>
      <point x="267" y="27"/>
      <point x="267" y="-13"/>
      <point x="267" y="-53" type="curve"/>
      <point x="357" y="-53"/>
      <point x="267" y="-53"/>
    </contour>
    <contour>
      <point x="285" y="778" type="curve"/>
      <point x="285" y="742"/>
      <point x="285" y="706"/>
      <point x="285" y="670" type="curve"/>
      <point x="375" y="670"/>
      <point x="285" y="670"/>
      <point x="375" y="670" type="curve"/>
      <point x="375" y="706"/>
      <point x="375" y="742"/>
      <point x="375" y="778" type="curve"/>
      <point x="285" y="778"/>
      <point x="375" y="778"/>
    </contour>
    <contour>
      <point x="543" y="609" type="curve"/>
      <point x="476" y="662"/>
      <point x="419" y="683"/>
      <point x="337" y="683" type="curve"/>
      <point x="150" y="683"/>
      <point x="45" y="557"/>
      <point x="45" y="364" type="curve"/>
      <point x="45" y="180"/>
      <point x="131" y="49"/>
      <point x="307" y="49" type="curve"/>
      <point x="404" y="49"/>
      <point x="470" y="78"/>
      <point x="542" y="145" type="curve"/>
      <point x="489" y="199"/>
      <point x="542" y="145"/>
      <point x="489" y="199" type="curve"/>
      <point x="432" y="151"/>
      <point x="387" y="122"/>
      <point x="315" y="122" type="curve"/>
      <point x="189" y="122"/>
      <point x="135" y="228"/>
      <point x="135" y="368" type="curve"/>
      <point x="135" y="510"/>
      <point x="201" y="610"/>
      <point x="329" y="610" type="curve"/>
      <point x="395" y="610"/>
      <point x="440" y="591"/>
      <point x="495" y="551" type="curve"/>
      <point x="543" y="609"/>
      <point x="495" y="551"/>
    </contour>
  </outline>
</glyph>
<glyph name="sterling" format="1">
  <advance width="466"/>
  <unicode hex="00A3"/>
  <outline>
    <contour>
      <point x="401" y="70" type="curve"/>
      <point x="281" y="70"/>
      <point x="160" y="70"/>
      <point x="41" y="70" type="curve"/>
      <point x="41" y="0"/>
      <point x="41" y="70"/>
      <point x="41" y="0" type="curve"/>
      <point x="160" y="0"/>
      <point x="281" y="0"/>
      <point x="401" y="0" type="curve"/>
      <point x="401" y="70"/>
      <point x="401" y="0"/>
    </contour>
    <contour>
      <point x="356" y="411" type="curve"/>
      <point x="261" y="411"/>
      <point x="162" y="411"/>
      <point x="68" y="411" type="curve"/>
      <point x="68" y="341"/>
      <point x="68" y="411"/>
      <point x="68" y="341" type="curve"/>
      <point x="162" y="341"/>
      <point x="261" y="341"/>
      <point x="356" y="341" type="curve"/>
      <point x="356" y="411"/>
      <point x="356" y="341"/>
    </contour>
    <contour>
      <point x="423" y="668" type="curve"/>
      <point x="380" y="707"/>
      <point x="344" y="722"/>
      <point x="290" y="722" type="curve"/>
      <point x="128" y="722"/>
      <point x="90" y="560"/>
      <point x="127" y="368" type="curve"/>
      <point x="157" y="213"/>
      <point x="152" y="70"/>
      <point x="41" y="70" type="curve"/>
      <point x="41" y="0"/>
      <point x="41" y="70"/>
      <point x="41" y="0" type="curve"/>
      <point x="218" y="0"/>
      <point x="249" y="178"/>
      <point x="211" y="383" type="curve"/>
      <point x="184" y="525"/>
      <point x="191" y="655"/>
      <point x="285" y="655" type="curve"/>
      <point x="324" y="655"/>
      <point x="348" y="640"/>
      <point x="378" y="616" type="curve"/>
      <point x="423" y="668"/>
      <point x="378" y="616"/>
    </contour>
  </outline>
</glyph>
<glyph name="currency" format="1">
  <advance width="621"/>
  <unicode hex="00A4"/>
  <outline>
    <contour>
      <point x="222" y="314" type="curve"/>
      <point x="222" y="378"/>
      <point x="249" y="427"/>
      <point x="309" y="427" type="curve"/>
      <point x="372" y="427"/>
      <point x="397" y="380"/>
      <point x="397" y="314" type="curve"/>
      <point x="397" y="248"/>
      <point x="374" y="195"/>
      <point x="313" y="195" type="curve"/>
      <point x="248" y="195"/>
      <point x="222" y="245"/>
      <point x="222" y="314" type="curve"/>
      <point x="132" y="314"/>
      <point x="225" y="314"/>
      <point x="136" y="314" type="curve"/>
      <point x="136" y="199"/>
      <point x="200" y="126"/>
      <point x="312" y="126" type="curve"/>
      <point x="423" y="126"/>
      <point x="485" y="203"/>
      <point x="485" y="316" type="curve"/>
      <point x="485" y="425"/>
      <point x="423" y="496"/>
      <point x="317" y="496" type="curve"/>
      <point x="204" y="496"/>
      <point x="136" y="426"/>
      <point x="136" y="314" type="curve"/>
      <point x="225" y="314"/>
      <point x="132" y="314"/>
    </contour>
    <contour>
      <point x="414" y="371" type="line"/>
      <point x="565" y="512" type="line"/>
      <point x="497" y="580" type="line"/>
      <point x="356" y="429" type="line"/>
    </contour>
    <contour>
      <point x="359" y="199" type="line"/>
      <point x="500" y="49" type="line"/>
      <point x="568" y="116" type="line"/>
      <point x="417" y="257" type="line"/>
    </contour>
    <contour>
      <point x="204" y="258" type="line"/>
      <point x="53" y="117" type="line"/>
      <point x="120" y="49" type="line"/>
      <point x="261" y="200" type="line"/>
    </contour>
    <contour>
      <point x="266" y="430" type="line"/>
      <point x="125" y="581" type="line"/>
      <point x="57" y="513" type="line"/>
      <point x="208" y="372" type="line"/>
    </contour>
  </outline>
</glyph>
<glyph name="yen" format="1">
  <advance width="591"/>
  <unicode hex="00A5"/>
  <outline>
    <contour>
      <point x="494" y="402" type="curve"/>
      <point x="432" y="402"/>
      <point x="370" y="402"/>
      <point x="308" y="402" type="curve"/>
      <point x="308" y="325"/>
      <point x="308" y="402"/>
      <point x="308" y="325" type="curve"/>
      <point x="370" y="325"/>
      <point x="432" y="325"/>
      <point x="494" y="325" type="curve"/>
      <point x="494" y="402"/>
      <point x="494" y="325"/>
    </contour>
    <contour>
      <point x="282" y="402" type="curve"/>
      <point x="221" y="402"/>
      <point x="160" y="402"/>
      <point x="99" y="402" type="curve"/>
      <point x="99" y="325"/>
      <point x="99" y="402"/>
      <point x="99" y="325" type="curve"/>
      <point x="160" y="325"/>
      <point x="221" y="325"/>
      <point x="282" y="325" type="curve"/>
      <point x="282" y="402"/>
      <point x="282" y="325"/>
    </contour>
    <contour>
      <point x="494" y="266" type="curve"/>
      <point x="362" y="266"/>
      <point x="230" y="266"/>
      <point x="99" y="266" type="curve"/>
      <point x="99" y="189"/>
      <point x="99" y="266"/>
      <point x="99" y="189" type="curve"/>
      <point x="230" y="189"/>
      <point x="362" y="189"/>
      <point x="494" y="189" type="curve"/>
      <point x="494" y="266"/>
      <point x="494" y="189"/>
    </contour>
    <contour>
      <point x="37" y="722" type="curve"/>
      <point x="104" y="596"/>
      <point x="178" y="465"/>
      <point x="245" y="337" type="curve"/>
      <point x="337" y="337"/>
      <point x="237" y="337"/>
      <point x="328" y="337" type="curve"/>
      <point x="263" y="467"/>
      <point x="198" y="593"/>
      <point x="132" y="722" type="curve"/>
      <point x="44" y="722"/>
      <point x="124" y="722"/>
    </contour>
    <contour>
      <point x="466" y="722" type="curve"/>
      <point x="395" y="592"/>
      <point x="326" y="467"/>
      <point x="254" y="337" type="curve"/>
      <point x="346" y="337"/>
      <point x="249" y="337"/>
      <point x="341" y="337" type="curve"/>
      <point x="412" y="464"/>
      <point x="488" y="596"/>
      <point x="559" y="722" type="curve"/>
      <point x="471" y="722"/>
      <point x="554" y="722"/>
    </contour>
    <contour>
      <point x="342" y="0" type="curve"/>
      <point x="342" y="115"/>
      <point x="342" y="227"/>
      <point x="342" y="342" type="curve"/>
      <point x="244" y="342"/>
      <point x="342" y="342"/>
      <point x="244" y="342" type="curve"/>
      <point x="244" y="227"/>
      <point x="244" y="115"/>
      <point x="244" y="0" type="curve"/>
      <point x="342" y="0"/>
      <point x="244" y="0"/>
    </contour>
  </outline>
</glyph>
<glyph name="section" format="1">
  <advance width="473"/>
  <unicode hex="00A7"/>
  <outline>
    <contour>
      <point x="383" y="704" type="curve"/>
      <point x="334" y="735"/>
      <point x="296" y="750"/>
      <point x="240" y="750" type="curve"/>
      <point x="142" y="750"/>
      <point x="79" y="699"/>
      <point x="79" y="609" type="curve"/>
      <point x="79" y="528"/>
      <point x="128" y="482"/>
      <point x="205" y="453" type="curve"/>
      <point x="270" y="429"/>
      <point x="338" y="419"/>
      <point x="338" y="360" type="curve"/>
      <point x="338" y="302"/>
      <point x="302" y="270"/>
      <point x="242" y="257" type="curve"/>
      <point x="295" y="201"/>
      <point x="242" y="257"/>
      <point x="295" y="201" type="curve"/>
      <point x="380" y="223"/>
      <point x="428" y="276"/>
      <point x="428" y="361" type="curve"/>
      <point x="427" y="457"/>
      <point x="345" y="487"/>
      <point x="250" y="519" type="curve"/>
      <point x="202" y="537"/>
      <point x="165" y="561"/>
      <point x="165" y="609" type="curve"/>
      <point x="165" y="652"/>
      <point x="191" y="680"/>
      <point x="237" y="680" type="curve"/>
      <point x="281" y="680"/>
      <point x="306" y="668"/>
      <point x="343" y="647" type="curve"/>
      <point x="383" y="704"/>
      <point x="343" y="647"/>
    </contour>
    <contour>
      <point x="177" y="521" type="curve"/>
      <point x="98" y="494"/>
      <point x="48" y="448"/>
      <point x="48" y="366" type="curve"/>
      <point x="48" y="275"/>
      <point x="117" y="237"/>
      <point x="208" y="206" type="curve"/>
      <point x="262" y="186"/>
      <point x="314" y="169"/>
      <point x="314" y="117" type="curve"/>
      <point x="314" y="71"/>
      <point x="285" y="42"/>
      <point x="238" y="42" type="curve"/>
      <point x="190" y="42"/>
      <point x="160" y="58"/>
      <point x="119" y="86" type="curve"/>
      <point x="72" y="35"/>
      <point x="119" y="86"/>
      <point x="72" y="35" type="curve"/>
      <point x="125" y="-9"/>
      <point x="170" y="-28"/>
      <point x="236" y="-28" type="curve"/>
      <point x="334" y="-28"/>
      <point x="402" y="22"/>
      <point x="402" y="118" type="curve"/>
      <point x="401" y="201"/>
      <point x="346" y="244"/>
      <point x="265" y="272" type="curve"/>
      <point x="201" y="295"/>
      <point x="138" y="309"/>
      <point x="138" y="368" type="curve"/>
      <point x="138" y="421"/>
      <point x="169" y="451"/>
      <point x="221" y="469" type="curve"/>
      <point x="177" y="521"/>
      <point x="221" y="469"/>
    </contour>
  </outline>
</glyph>
<glyph name="dieresis" format="1">
  <advance width="400"/>
  <unicode hex="00A8"/>
  <outline>
    <contour>
      <point x="162" y="655" type="curve"/>
      <point x="162" y="686"/>
      <point x="140" y="702"/>
      <point x="111" y="702" type="curve"/>
      <point x="81" y="702"/>
      <point x="61" y="685"/>
      <point x="61" y="655" type="curve"/>
      <point x="159" y="655"/>
      <point x="64" y="655"/>
      <point x="162" y="655" type="curve"/>
      <point x="162" y="623"/>
      <point x="141" y="609"/>
      <point x="110" y="609" type="curve"/>
      <point x="80" y="609"/>
      <point x="61" y="625"/>
      <point x="61" y="655" type="curve"/>
      <point x="159" y="655"/>
      <point x="64" y="655"/>
    </contour>
    <contour>
      <point x="323" y="655" type="curve"/>
      <point x="323" y="686"/>
      <point x="302" y="702"/>
      <point x="272" y="702" type="curve"/>
      <point x="242" y="702"/>
      <point x="222" y="685"/>
      <point x="222" y="655" type="curve"/>
      <point x="320" y="655"/>
      <point x="225" y="655"/>
      <point x="323" y="655" type="curve"/>
      <point x="323" y="623"/>
      <point x="302" y="609"/>
      <point x="272" y="609" type="curve"/>
      <point x="241" y="609"/>
      <point x="222" y="625"/>
      <point x="222" y="655" type="curve"/>
      <point x="320" y="655"/>
      <point x="225" y="655"/>
    </contour>
    <contour>
      <point x="192" y="613" type="move" name="_top"/>
    </contour>
  </outline>
</glyph>
<glyph name="copyright" format="1">
  <advance width="716"/>
  <unicode hex="00A9"/>
  <outline>
    <contour>
      <point x="126" y="322" type="curve"/>
      <point x="126" y="476"/>
      <point x="212" y="588"/>
      <point x="361" y="588" type="curve"/>
      <point x="506" y="588"/>
      <point x="590" y="474"/>
      <point x="590" y="320" type="curve"/>
      <point x="590" y="171"/>
      <point x="509" y="59"/>
      <point x="367" y="59" type="curve"/>
      <point x="219" y="59"/>
      <point x="126" y="167"/>
      <point x="126" y="322" type="curve"/>
      <point x="51" y="322"/>
      <point x="127" y="322"/>
      <point x="53" y="322" type="curve"/>
      <point x="53" y="132"/>
      <point x="176" y="1"/>
      <point x="364" y="1" type="curve"/>
      <point x="547" y="1"/>
      <point x="662" y="135"/>
      <point x="662" y="323" type="curve"/>
      <point x="662" y="512"/>
      <point x="545" y="645"/>
      <point x="361" y="645" type="curve"/>
      <point x="174" y="645"/>
      <point x="53" y="513"/>
      <point x="53" y="322" type="curve"/>
      <point x="127" y="322"/>
      <point x="51" y="322"/>
    </contour>
    <contour>
      <point x="489" y="453" type="curve"/>
      <point x="454" y="490"/>
      <point x="415" y="505"/>
      <point x="366" y="505" type="curve"/>
      <point x="257" y="505"/>
      <point x="197" y="432"/>
      <point x="197" y="321" type="curve"/>
      <point x="197" y="214"/>
      <point x="250" y="142"/>
      <point x="353" y="142" type="curve"/>
      <point x="410" y="142"/>
      <point x="450" y="153"/>
      <point x="491" y="196" type="curve"/>
      <point x="449" y="234"/>
      <point x="491" y="196"/>
      <point x="449" y="234" type="curve"/>
      <point x="419" y="211"/>
      <point x="394" y="200"/>
      <point x="356" y="200" type="curve"/>
      <point x="291" y="200"/>
      <point x="268" y="253"/>
      <point x="268" y="324" type="curve"/>
      <point x="268" y="396"/>
      <point x="296" y="447"/>
      <point x="363" y="447" type="curve"/>
      <point x="391" y="447"/>
      <point x="416" y="440"/>
      <point x="443" y="420" type="curve"/>
      <point x="492" y="454"/>
      <point x="440" y="419"/>
    </contour>
  </outline>
</glyph>
<glyph name="ordfeminine" format="1">
  <advance width="382"/>
  <unicode hex="00AA"/>
  <outline>
    <contour>
      <point x="313" y="427" type="curve"/>
      <point x="313" y="513"/>
      <point x="313" y="586"/>
      <point x="313" y="672" type="curve"/>
      <point x="313" y="742"/>
      <point x="260" y="771"/>
      <point x="189" y="771" type="curve"/>
      <point x="136" y="771"/>
      <point x="97" y="750"/>
      <point x="67" y="721" type="curve"/>
      <point x="88" y="685"/>
      <point x="71" y="716"/>
      <point x="93" y="679" type="curve"/>
      <point x="113" y="699"/>
      <point x="140" y="720"/>
      <point x="180" y="720" type="curve"/>
      <point x="221" y="720"/>
      <point x="250" y="702"/>
      <point x="250" y="662" type="curve"/>
      <point x="250" y="579"/>
      <point x="250" y="509"/>
      <point x="250" y="427" type="curve"/>
      <point x="306" y="427"/>
      <point x="257" y="427"/>
    </contour>
    <contour>
      <point x="280" y="642" type="curve"/>
      <point x="237" y="637"/>
      <point x="209" y="635"/>
      <point x="166" y="629" type="curve"/>
      <point x="98" y="619"/>
      <point x="50" y="591"/>
      <point x="50" y="525" type="curve"/>
      <point x="50" y="460"/>
      <point x="91" y="424"/>
      <point x="160" y="424" type="curve"/>
      <point x="226" y="424"/>
      <point x="258" y="468"/>
      <point x="296" y="518" type="curve"/>
      <point x="270" y="541"/>
      <point x="293" y="522"/>
      <point x="266" y="545" type="curve"/>
      <point x="241" y="505"/>
      <point x="218" y="472"/>
      <point x="173" y="472" type="curve"/>
      <point x="134" y="472"/>
      <point x="111" y="492"/>
      <point x="111" y="528" type="curve"/>
      <point x="111" y="561"/>
      <point x="135" y="579"/>
      <point x="166" y="585" type="curve"/>
      <point x="211" y="591"/>
      <point x="237" y="594"/>
      <point x="282" y="601" type="curve"/>
      <point x="280" y="637"/>
      <point x="282" y="606"/>
    </contour>
  </outline>
</glyph>
<glyph name="guillemotleft" format="1">
  <advance width="518"/>
  <unicode hex="00AB"/>
  <outline>
    <contour>
      <point x="243" y="446" type="curve"/>
      <point x="216" y="428"/>
      <point x="70" y="343"/>
      <point x="42" y="324" type="curve"/>
      <point x="42" y="247"/>
      <point x="42" y="317"/>
      <point x="42" y="240" type="curve"/>
      <point x="70" y="258"/>
      <point x="216" y="347"/>
      <point x="243" y="366" type="curve"/>
      <point x="243" y="442"/>
      <point x="243" y="370"/>
    </contour>
    <contour>
      <point x="243" y="200" type="curve"/>
      <point x="216" y="218"/>
      <point x="70" y="306"/>
      <point x="42" y="324" type="curve"/>
      <point x="42" y="247"/>
      <point x="42" y="317"/>
      <point x="42" y="240" type="curve"/>
      <point x="70" y="221"/>
      <point x="216" y="138"/>
      <point x="243" y="120" type="curve"/>
      <point x="243" y="196"/>
      <point x="243" y="124"/>
    </contour>
    <contour>
      <point x="450" y="446" type="curve"/>
      <point x="423" y="428"/>
      <point x="277" y="343"/>
      <point x="249" y="324" type="curve"/>
      <point x="249" y="247"/>
      <point x="249" y="317"/>
      <point x="249" y="240" type="curve"/>
      <point x="277" y="258"/>
      <point x="423" y="347"/>
      <point x="450" y="366" type="curve"/>
      <point x="450" y="442"/>
      <point x="450" y="370"/>
    </contour>
    <contour>
      <point x="450" y="200" type="curve"/>
      <point x="423" y="218"/>
      <point x="277" y="306"/>
      <point x="249" y="324" type="curve"/>
      <point x="249" y="247"/>
      <point x="249" y="317"/>
      <point x="249" y="240" type="curve"/>
      <point x="277" y="221"/>
      <point x="423" y="138"/>
      <point x="450" y="120" type="curve"/>
      <point x="450" y="196"/>
      <point x="450" y="124"/>
    </contour>
  </outline>
</glyph>
<glyph name="logicalnot" format="1">
  <advance width="613"/>
  <unicode hex="00AC"/>
  <outline>
    <contour>
      <point x="72" y="274" type="curve"/>
      <point x="538" y="274" type="line"/>
      <point x="538" y="350"/>
      <point x="538" y="274"/>
      <point x="538" y="350" type="curve"/>
      <point x="72" y="350" type="line"/>
      <point x="72" y="274"/>
      <point x="72" y="350"/>
    </contour>
    <contour>
      <point x="538" y="145" type="curve"/>
      <point x="538" y="350" type="line"/>
      <point x="449" y="350"/>
      <point x="540" y="350"/>
      <point x="450" y="350" type="curve"/>
      <point x="450" y="145" type="line"/>
      <point x="540" y="145"/>
      <point x="449" y="145"/>
    </contour>
  </outline>
</glyph>
<glyph name="registered" format="1">
  <advance width="724"/>
  <unicode hex="00AE"/>
  <outline>
    <contour>
      <point x="120" y="321" type="curve"/>
      <point x="120" y="483"/>
      <point x="209" y="592"/>
      <point x="365" y="592" type="curve"/>
      <point x="519" y="592"/>
      <point x="604" y="480"/>
      <point x="604" y="319" type="curve"/>
      <point x="604" y="163"/>
      <point x="522" y="53"/>
      <point x="372" y="53" type="curve"/>
      <point x="215" y="53"/>
      <point x="120" y="159"/>
      <point x="120" y="321" type="curve"/>
      <point x="89" y="321"/>
      <point x="86" y="321"/>
      <point x="55" y="321" type="curve"/>
      <point x="55" y="126"/>
      <point x="175" y="0"/>
      <point x="369" y="0" type="curve"/>
      <point x="557" y="0"/>
      <point x="669" y="129"/>
      <point x="669" y="322" type="curve"/>
      <point x="669" y="516"/>
      <point x="555" y="645"/>
      <point x="365" y="645" type="curve"/>
      <point x="173" y="645"/>
      <point x="55" y="517"/>
      <point x="55" y="321" type="curve"/>
      <point x="86" y="321"/>
      <point x="89" y="321"/>
    </contour>
    <contour>
      <point x="344" y="315" type="curve"/>
      <point x="358" y="288"/>
      <point x="416" y="171"/>
      <point x="430" y="145" type="curve"/>
      <point x="469" y="145"/>
      <point x="457" y="144"/>
      <point x="498" y="144" type="curve"/>
      <point x="484" y="171"/>
      <point x="427" y="284"/>
      <point x="413" y="311" type="curve"/>
      <point x="331" y="311"/>
      <point x="426" y="315"/>
    </contour>
    <contour>
      <point x="329" y="145" type="curve"/>
      <point x="329" y="251"/>
      <point x="329" y="394"/>
      <point x="329" y="500" type="curve"/>
      <point x="285" y="500"/>
      <point x="305" y="501"/>
      <point x="259" y="501" type="curve"/>
      <point x="259" y="395"/>
      <point x="259" y="250"/>
      <point x="259" y="145" type="curve"/>
      <point x="306" y="145"/>
      <point x="279" y="145"/>
    </contour>
    <contour>
      <point x="298" y="281" type="curve"/>
      <point x="315" y="281"/>
      <point x="333" y="281"/>
      <point x="350" y="281" type="curve"/>
      <point x="429" y="281"/>
      <point x="482" y="313"/>
      <point x="482" y="392" type="curve"/>
      <point x="482" y="461"/>
      <point x="436" y="501"/>
      <point x="366" y="501" type="curve"/>
      <point x="355" y="501"/>
      <point x="300" y="501"/>
      <point x="289" y="501" type="curve"/>
      <point x="260" y="458"/>
      <point x="333" y="501"/>
      <point x="259" y="443" type="curve"/>
      <point x="290" y="443"/>
      <point x="321" y="443"/>
      <point x="352" y="443" type="curve"/>
      <point x="389" y="443"/>
      <point x="414" y="425"/>
      <point x="414" y="389" type="curve"/>
      <point x="414" y="355"/>
      <point x="393" y="339"/>
      <point x="360" y="339" type="curve"/>
      <point x="339" y="339"/>
      <point x="318" y="339"/>
      <point x="298" y="339" type="curve"/>
      <point x="298" y="281"/>
      <point x="298" y="339"/>
    </contour>
  </outline>
</glyph>
<glyph name="macron" format="1">
  <advance width="309"/>
  <unicode hex="00AF"/>
  <outline>
    <contour>
      <point x="231" y="679" type="curve"/>
      <point x="165" y="679"/>
      <point x="98" y="679"/>
      <point x="32" y="679" type="curve"/>
      <point x="32" y="609"/>
      <point x="32" y="679"/>
      <point x="32" y="609" type="curve"/>
      <point x="98" y="609"/>
      <point x="165" y="609"/>
      <point x="231" y="609" type="curve"/>
      <point x="231" y="679"/>
      <point x="231" y="609"/>
    </contour>
    <contour>
      <point x="133" y="609" type="move" name="_top"/>
    </contour>
  </outline>
</glyph>
<glyph name="degree" format="1">
  <advance width="439"/>
  <unicode hex="00B0"/>
  <outline>
    <contour>
      <point x="389" y="514" type="curve"/>
      <point x="389" y="629"/>
      <point x="330" y="707"/>
      <point x="219" y="707" type="curve"/>
      <point x="109" y="707"/>
      <point x="51" y="630"/>
      <point x="51" y="516" type="curve"/>
      <point x="99" y="516"/>
      <point x="79" y="516"/>
      <point x="127" y="516" type="curve"/>
      <point x="127" y="587"/>
      <point x="151" y="642"/>
      <point x="217" y="642" type="curve"/>
      <point x="284" y="642"/>
      <point x="311" y="587"/>
      <point x="311" y="514" type="curve"/>
      <point x="311" y="440"/>
      <point x="287" y="382"/>
      <point x="220" y="382" type="curve"/>
      <point x="151" y="382"/>
      <point x="127" y="441"/>
      <point x="127" y="516" type="curve"/>
      <point x="79" y="516"/>
      <point x="99" y="516"/>
      <point x="51" y="516" type="curve"/>
      <point x="51" y="398"/>
      <point x="107" y="317"/>
      <point x="219" y="317" type="curve"/>
      <point x="331" y="317"/>
      <point x="389" y="397"/>
    </contour>
  </outline>
</glyph>
<glyph name="plusminus" format="1">
  <advance width="647"/>
  <unicode hex="00B1"/>
  <outline>
    <contour>
      <point x="57" y="33" type="line"/>
      <point x="590" y="33" type="line"/>
      <point x="590" y="109" type="line"/>
      <point x="57" y="109" type="line"/>
    </contour>
    <contour>
      <point x="57" y="274" type="curve"/>
      <point x="590" y="274" type="line"/>
      <point x="590" y="350"/>
      <point x="590" y="274"/>
      <point x="590" y="350" type="curve"/>
      <point x="57" y="350" type="line"/>
      <point x="57" y="274"/>
      <point x="57" y="350"/>
    </contour>
    <contour>
      <point x="366" y="34" type="curve"/>
      <point x="366" y="584" type="line"/>
      <point x="276" y="584"/>
      <point x="371" y="584"/>
      <point x="281" y="584" type="curve"/>
      <point x="281" y="34" type="line"/>
      <point x="371" y="34"/>
      <point x="276" y="34"/>
    </contour>
  </outline>
</glyph>
<glyph name="twosuperior" format="1">
  <advance width="426"/>
  <unicode hex="00B2"/>
  <outline>
    <contour>
      <point x="50" y="324" type="curve"/>
      <point x="163" y="324"/>
      <point x="273" y="324"/>
      <point x="369" y="324" type="curve"/>
      <point x="369" y="357"/>
      <point x="369" y="352"/>
      <point x="369" y="385" type="curve"/>
      <point x="267" y="385"/>
      <point x="151" y="385"/>
      <point x="50" y="385" type="curve"/>
      <point x="50" y="324"/>
      <point x="50" y="385"/>
    </contour>
    <contour>
      <point x="126" y="628" type="curve"/>
      <point x="144" y="664"/>
      <point x="166" y="690"/>
      <point x="207" y="690" type="curve"/>
      <point x="250" y="690"/>
      <point x="275" y="662"/>
      <point x="275" y="618" type="curve"/>
      <point x="275" y="576"/>
      <point x="248" y="554"/>
      <point x="218" y="524" type="curve"/>
      <point x="162" y="478"/>
      <point x="106" y="431"/>
      <point x="50" y="385" type="curve"/>
      <point x="55" y="325"/>
      <point x="51" y="385"/>
      <point x="56" y="325" type="curve"/>
      <point x="128" y="377"/>
      <point x="205" y="426"/>
      <point x="265" y="476" type="curve"/>
      <point x="313" y="521"/>
      <point x="351" y="556"/>
      <point x="351" y="621" type="curve"/>
      <point x="351" y="704"/>
      <point x="295" y="751"/>
      <point x="212" y="751" type="curve"/>
      <point x="144" y="751"/>
      <point x="96" y="723"/>
      <point x="69" y="654" type="curve"/>
      <point x="126" y="628"/>
      <point x="69" y="654"/>
    </contour>
    <contour>
      <point x="218" y="751" type="move" name="_top"/>
    </contour>
    <contour>
      <point x="204" y="324" type="move" name="_bottom"/>
    </contour>
  </outline>
</glyph>
<glyph name="threesuperior" format="1">
  <advance width="379"/>
  <unicode hex="00B3"/>
  <outline>
    <contour>
      <point x="95" y="652" type="curve"/>
      <point x="116" y="673"/>
      <point x="140" y="689"/>
      <point x="167" y="689" type="curve"/>
      <point x="209" y="689"/>
      <point x="237" y="668"/>
      <point x="237" y="627" type="curve"/>
      <point x="237" y="582"/>
      <point x="185" y="567"/>
      <point x="130" y="563" type="curve"/>
      <point x="130" y="512"/>
      <point x="130" y="563"/>
      <point x="130" y="512" type="curve"/>
      <point x="231" y="514"/>
      <point x="315" y="543"/>
      <point x="315" y="632" type="curve"/>
      <point x="315" y="711"/>
      <point x="258" y="749"/>
      <point x="175" y="749" type="curve"/>
      <point x="126" y="749"/>
      <point x="82" y="727"/>
      <point x="52" y="692" type="curve"/>
      <point x="95" y="652"/>
      <point x="52" y="692"/>
    </contour>
    <contour>
      <point x="49" y="353" type="curve"/>
      <point x="84" y="331"/>
      <point x="119" y="318"/>
      <point x="160" y="318" type="curve"/>
      <point x="259" y="315"/>
      <point x="330" y="353"/>
      <point x="329" y="444" type="curve"/>
      <point x="329" y="537"/>
      <point x="236" y="552"/>
      <point x="130" y="555" type="curve"/>
      <point x="130" y="510"/>
      <point x="130" y="555"/>
      <point x="130" y="510" type="curve"/>
      <point x="195" y="506"/>
      <point x="250" y="491"/>
      <point x="250" y="442" type="curve"/>
      <point x="250" y="397"/>
      <point x="216" y="376"/>
      <point x="168" y="377" type="curve"/>
      <point x="139" y="377"/>
      <point x="113" y="384"/>
      <point x="85" y="400" type="curve"/>
      <point x="49" y="353"/>
      <point x="85" y="400"/>
    </contour>
    <contour>
      <point x="189" y="749" type="move" name="_top"/>
    </contour>
    <contour>
      <point x="181" y="318" type="move" name="_bottom"/>
    </contour>
  </outline>
</glyph>
<glyph name="paragraph" format="1">
  <advance width="710"/>
  <unicode hex="00B6"/>
  <outline>
    <contour>
      <point x="401" y="652" type="curve"/>
      <point x="552" y="652"/>
      <point x="401" y="652"/>
      <point x="552" y="652" type="curve"/>
      <point x="552" y="722"/>
      <point x="552" y="652"/>
      <point x="552" y="722" type="curve"/>
      <point x="501" y="722"/>
      <point x="451" y="722"/>
      <point x="401" y="722" type="curve"/>
      <point x="401" y="652"/>
      <point x="401" y="722"/>
    </contour>
    <contour>
      <point x="385" y="369" type="curve"/>
      <point x="342" y="346"/>
      <point x="309" y="332"/>
      <point x="259" y="332" type="curve"/>
      <point x="173" y="332"/>
      <point x="126" y="393"/>
      <point x="126" y="483" type="curve"/>
      <point x="126" y="586"/>
      <point x="189" y="652"/>
      <point x="292" y="652" type="curve"/>
      <point x="328" y="652"/>
      <point x="363" y="652"/>
      <point x="398" y="652" type="curve"/>
      <point x="398" y="722"/>
      <point x="398" y="652"/>
      <point x="398" y="722" type="curve"/>
      <point x="359" y="722"/>
      <point x="320" y="722"/>
      <point x="280" y="722" type="curve"/>
      <point x="133" y="722"/>
      <point x="36" y="631"/>
      <point x="36" y="486" type="curve"/>
      <point x="36" y="346"/>
      <point x="127" y="266"/>
      <point x="267" y="264" type="curve"/>
      <point x="322" y="264"/>
      <point x="367" y="284"/>
      <point x="414" y="309" type="curve"/>
      <point x="385" y="369"/>
      <point x="413" y="311"/>
    </contour>
    <contour>
      <point x="447" y="0" type="curve"/>
      <point x="447" y="241"/>
      <point x="447" y="481"/>
      <point x="447" y="722" type="curve"/>
      <point x="357" y="722"/>
      <point x="447" y="722"/>
      <point x="357" y="722" type="curve"/>
      <point x="357" y="481"/>
      <point x="357" y="241"/>
      <point x="357" y="0" type="curve"/>
      <point x="447" y="0"/>
      <point x="357" y="0"/>
    </contour>
    <contour>
      <point x="632" y="0" type="curve"/>
      <point x="632" y="241"/>
      <point x="632" y="481"/>
      <point x="632" y="722" type="curve"/>
      <point x="542" y="722"/>
      <point x="632" y="722"/>
      <point x="542" y="722" type="curve"/>
      <point x="542" y="481"/>
      <point x="542" y="241"/>
      <point x="542" y="0" type="curve"/>
      <point x="632" y="0"/>
      <point x="542" y="0"/>
    </contour>
  </outline>
</glyph>
<glyph name="periodcentered" format="1">
  <advance width="220"/>
  <unicode hex="00B7"/>
  <outline>
    <contour>
      <point x="161" y="440" type="curve"/>
      <point x="161" y="471"/>
      <point x="139" y="487"/>
      <point x="109" y="487" type="curve"/>
      <point x="79" y="487"/>
      <point x="59" y="470"/>
      <point x="59" y="440" type="curve"/>
      <point x="158" y="440"/>
      <point x="62" y="440"/>
      <point x="161" y="440" type="curve"/>
      <point x="161" y="408"/>
      <point x="139" y="394"/>
      <point x="109" y="394" type="curve"/>
      <point x="78" y="394"/>
      <point x="59" y="409"/>
      <point x="59" y="440" type="curve"/>
      <point x="158" y="440"/>
      <point x="62" y="440"/>
    </contour>
  </outline>
</glyph>
<glyph name="cedilla" format="1">
  <advance width="302"/>
  <unicode hex="00B8"/>
  <outline>
    <contour>
      <point x="140" y="99" type="curve"/>
      <point x="128" y="75"/>
      <point x="94" y="10"/>
      <point x="82" y="-14" type="curve"/>
      <point x="144" y="-70"/>
      <point x="82" y="-14"/>
      <point x="144" y="-70" type="curve"/>
      <point x="157" y="-43"/>
      <point x="196" y="24"/>
      <point x="209" y="50" type="curve"/>
      <point x="140" y="99"/>
      <point x="209" y="50"/>
    </contour>
    <contour>
      <point x="144" y="-70" type="curve"/>
      <point x="152" y="-64"/>
      <point x="159" y="-60"/>
      <point x="169" y="-60" type="curve"/>
      <point x="188" y="-60"/>
      <point x="197" y="-73"/>
      <point x="197" y="-93" type="curve"/>
      <point x="197" y="-116"/>
      <point x="180" y="-127"/>
      <point x="156" y="-127" type="curve"/>
      <point x="134" y="-127"/>
      <point x="117" y="-123"/>
      <point x="96" y="-111" type="curve"/>
      <point x="65" y="-163"/>
      <point x="96" y="-111"/>
      <point x="65" y="-163" type="curve"/>
      <point x="93" y="-180"/>
      <point x="118" y="-188"/>
      <point x="152" y="-188" type="curve"/>
      <point x="217" y="-188"/>
      <point x="263" y="-156"/>
      <point x="263" y="-91" type="curve"/>
      <point x="263" y="-31"/>
      <point x="225" y="6"/>
      <point x="166" y="6" type="curve"/>
      <point x="134" y="6"/>
      <point x="111" y="0"/>
      <point x="82" y="-14" type="curve"/>
      <point x="144" y="-70"/>
      <point x="82" y="-14"/>
    </contour>
    <contour>
      <point x="202" y="50" type="move" name="_bottom"/>
    </contour>
  </outline>
</glyph>
<glyph name="onesuperior" format="1">
  <advance width="281"/>
  <unicode hex="00B9"/>
  <outline>
    <contour>
      <point x="61" y="596" type="line"/>
      <point x="206" y="738" type="line"/>
      <point x="129" y="742" type="line"/>
      <point x="19" y="641" type="line"/>
    </contour>
    <contour>
      <point x="207" y="324" type="curve"/>
      <point x="207" y="742" type="line"/>
      <point x="129" y="742" type="line"/>
      <point x="129" y="324" type="line"/>
      <point x="182" y="324"/>
      <point x="152" y="324"/>
    </contour>
    <contour>
      <point x="162" y="740" type="move" name="_top"/>
    </contour>
    <contour>
      <point x="169" y="326" type="move" name="_bottom"/>
    </contour>
  </outline>
</glyph>
<glyph name="ordmasculine" format="1">
  <advance width="393"/>
  <unicode hex="00BA"/>
  <outline>
    <contour>
      <point x="105" y="600" type="curve"/>
      <point x="105" y="668"/>
      <point x="131" y="720"/>
      <point x="195" y="720" type="curve"/>
      <point x="259" y="720"/>
      <point x="285" y="668"/>
      <point x="285" y="599" type="curve"/>
      <point x="285" y="526"/>
      <point x="261" y="472"/>
      <point x="200" y="472" type="curve"/>
      <point x="131" y="472"/>
      <point x="105" y="526"/>
      <point x="105" y="600" type="curve"/>
      <point x="80" y="600"/>
      <point x="70" y="600"/>
      <point x="45" y="600" type="curve"/>
      <point x="45" y="493"/>
      <point x="96" y="421"/>
      <point x="198" y="421" type="curve"/>
      <point x="296" y="421"/>
      <point x="348" y="492"/>
      <point x="348" y="599" type="curve"/>
      <point x="348" y="702"/>
      <point x="297" y="770"/>
      <point x="198" y="770" type="curve"/>
      <point x="96" y="770"/>
      <point x="45" y="702"/>
      <point x="45" y="600" type="curve"/>
      <point x="70" y="600"/>
      <point x="80" y="600"/>
    </contour>
  </outline>
</glyph>
<glyph name="guillemotright" format="1">
  <advance width="524"/>
  <unicode hex="00BB"/>
  <outline>
    <contour>
      <point x="279" y="446" type="curve"/>
      <point x="306" y="428"/>
      <point x="452" y="343"/>
      <point x="480" y="324" type="curve"/>
      <point x="480" y="247"/>
      <point x="480" y="317"/>
      <point x="480" y="240" type="curve"/>
      <point x="452" y="258"/>
      <point x="306" y="347"/>
      <point x="279" y="366" type="curve"/>
      <point x="279" y="442"/>
      <point x="279" y="370"/>
    </contour>
    <contour>
      <point x="279" y="200" type="curve"/>
      <point x="306" y="218"/>
      <point x="452" y="306"/>
      <point x="480" y="324" type="curve"/>
      <point x="480" y="247"/>
      <point x="480" y="317"/>
      <point x="480" y="240" type="curve"/>
      <point x="452" y="221"/>
      <point x="306" y="138"/>
      <point x="279" y="120" type="curve"/>
      <point x="279" y="196"/>
      <point x="279" y="124"/>
    </contour>
    <contour>
      <point x="72" y="446" type="curve"/>
      <point x="99" y="428"/>
      <point x="245" y="343"/>
      <point x="273" y="324" type="curve"/>
      <point x="273" y="247"/>
      <point x="273" y="317"/>
      <point x="273" y="240" type="curve"/>
      <point x="245" y="258"/>
      <point x="99" y="347"/>
      <point x="72" y="366" type="curve"/>
      <point x="72" y="442"/>
      <point x="72" y="370"/>
    </contour>
    <contour>
      <point x="72" y="200" type="curve"/>
      <point x="99" y="218"/>
      <point x="245" y="306"/>
      <point x="273" y="324" type="curve"/>
      <point x="273" y="247"/>
      <point x="273" y="317"/>
      <point x="273" y="240" type="curve"/>
      <point x="245" y="221"/>
      <point x="99" y="138"/>
      <point x="72" y="120" type="curve"/>
      <point x="72" y="196"/>
      <point x="72" y="124"/>
    </contour>
  </outline>
</glyph>
<glyph name="onequarter" format="1">
  <advance width="888"/>
  <unicode hex="00BC"/>
  <outline>
    <contour>
      <point x="296" y="-62" type="line"/>
      <point x="674" y="730" type="line"/>
      <point x="589" y="730" type="line"/>
      <point x="212" y="-62" type="line"/>
    </contour>
    <contour>
      <point x="70" y="585" type="line"/>
      <point x="215" y="727" type="line"/>
      <point x="137" y="732" type="line"/>
      <point x="28" y="630" type="line"/>
    </contour>
    <contour>
      <point x="216" y="314" type="curve"/>
      <point x="216" y="732" type="line"/>
      <point x="137" y="732" type="line"/>
      <point x="137" y="314" type="line"/>
      <point x="190" y="314"/>
      <point x="161" y="314"/>
    </contour>
    <contour>
      <point x="853" y="115" type="line"/>
      <point x="508" y="115" type="line"/>
      <point x="508" y="56" type="line"/>
      <point x="853" y="56" type="line"/>
    </contour>
    <contour>
      <point x="536" y="60" type="line"/>
      <point x="756" y="362" type="line"/>
      <point x="696" y="375" type="line"/>
      <point x="508" y="115" type="line"/>
    </contour>
    <contour>
      <point x="774" y="-61" type="line"/>
      <point x="774" y="375" type="line"/>
      <point x="696" y="375" type="line"/>
      <point x="696" y="-61" type="line"/>
    </contour>
  </outline>
</glyph>
<glyph name="onehalf" format="1">
  <advance width="949"/>
  <unicode hex="00BD"/>
  <outline>
    <contour>
      <point x="317" y="-62" type="line"/>
      <point x="694" y="730" type="line"/>
      <point x="610" y="730" type="line"/>
      <point x="233" y="-62" type="line"/>
    </contour>
    <contour>
      <point x="70" y="585" type="line"/>
      <point x="215" y="727" type="line"/>
      <point x="137" y="732" type="line"/>
      <point x="28" y="630" type="line"/>
    </contour>
    <contour>
      <point x="216" y="314" type="curve"/>
      <point x="216" y="732" type="line"/>
      <point x="137" y="732" type="line"/>
      <point x="137" y="314" type="line"/>
      <point x="190" y="314"/>
      <point x="161" y="314"/>
    </contour>
    <contour>
      <point x="591" y="-61" type="curve"/>
      <point x="704" y="-61"/>
      <point x="814" y="-61"/>
      <point x="910" y="-61" type="curve"/>
      <point x="910" y="-28"/>
      <point x="910" y="-33"/>
      <point x="910" y="0" type="curve"/>
      <point x="808" y="0"/>
      <point x="693" y="0"/>
      <point x="591" y="0" type="curve"/>
      <point x="591" y="-61"/>
      <point x="591" y="0"/>
    </contour>
    <contour>
      <point x="667" y="243" type="curve"/>
      <point x="686" y="279"/>
      <point x="707" y="305"/>
      <point x="748" y="305" type="curve"/>
      <point x="791" y="305"/>
      <point x="816" y="277"/>
      <point x="816" y="233" type="curve"/>
      <point x="816" y="191"/>
      <point x="789" y="168"/>
      <point x="759" y="139" type="curve"/>
      <point x="703" y="93"/>
      <point x="647" y="46"/>
      <point x="591" y="0" type="curve"/>
      <point x="596" y="-60"/>
      <point x="592" y="0"/>
      <point x="597" y="-60" type="curve"/>
      <point x="669" y="-8"/>
      <point x="746" y="41"/>
      <point x="806" y="91" type="curve"/>
      <point x="854" y="136"/>
      <point x="892" y="171"/>
      <point x="892" y="236" type="curve"/>
      <point x="892" y="319"/>
      <point x="837" y="366"/>
      <point x="753" y="366" type="curve"/>
      <point x="685" y="366"/>
      <point x="638" y="338"/>
      <point x="611" y="269" type="curve"/>
      <point x="667" y="243"/>
      <point x="611" y="269"/>
    </contour>
  </outline>
</glyph>
<glyph name="threequarters" format="1">
  <advance width="913"/>
  <unicode hex="00BE"/>
  <outline>
    <contour>
      <point x="328" y="-62" type="line"/>
      <point x="705" y="730" type="line"/>
      <point x="621" y="730" type="line"/>
      <point x="244" y="-62" type="line"/>
    </contour>
    <contour>
      <point x="87" y="633" type="curve"/>
      <point x="108" y="654"/>
      <point x="132" y="670"/>
      <point x="159" y="670" type="curve"/>
      <point x="201" y="670"/>
      <point x="229" y="649"/>
      <point x="229" y="608" type="curve"/>
      <point x="229" y="563"/>
      <point x="177" y="548"/>
      <point x="122" y="544" type="curve"/>
      <point x="122" y="493"/>
      <point x="122" y="544"/>
      <point x="122" y="493" type="curve"/>
      <point x="223" y="495"/>
      <point x="307" y="524"/>
      <point x="307" y="613" type="curve"/>
      <point x="307" y="692"/>
      <point x="250" y="730"/>
      <point x="168" y="730" type="curve"/>
      <point x="118" y="730"/>
      <point x="74" y="708"/>
      <point x="44" y="673" type="curve"/>
      <point x="87" y="633"/>
      <point x="44" y="673"/>
    </contour>
    <contour>
      <point x="41" y="334" type="curve"/>
      <point x="76" y="312"/>
      <point x="111" y="299"/>
      <point x="152" y="299" type="curve"/>
      <point x="251" y="296"/>
      <point x="322" y="334"/>
      <point x="321" y="425" type="curve"/>
      <point x="321" y="518"/>
      <point x="228" y="533"/>
      <point x="122" y="536" type="curve"/>
      <point x="122" y="491"/>
      <point x="122" y="536"/>
      <point x="122" y="491" type="curve"/>
      <point x="188" y="487"/>
      <point x="242" y="472"/>
      <point x="242" y="423" type="curve"/>
      <point x="242" y="378"/>
      <point x="208" y="356"/>
      <point x="160" y="358" type="curve"/>
      <point x="131" y="358"/>
      <point x="105" y="365"/>
      <point x="78" y="381" type="curve"/>
      <point x="41" y="334"/>
      <point x="78" y="381"/>
    </contour>
    <contour>
      <point x="882" y="115" type="line"/>
      <point x="537" y="115" type="line"/>
      <point x="537" y="56" type="line"/>
      <point x="882" y="56" type="line"/>
    </contour>
    <contour>
      <point x="565" y="60" type="line"/>
      <point x="784" y="362" type="line"/>
      <point x="725" y="375" type="line"/>
      <point x="537" y="115" type="line"/>
    </contour>
    <contour>
      <point x="803" y="-61" type="line"/>
      <point x="803" y="375" type="line"/>
      <point x="725" y="375" type="line"/>
      <point x="725" y="-61" type="line"/>
    </contour>
  </outline>
</glyph>
<glyph name="questiondown" format="1">
  <advance width="481"/>
  <unicode hex="00BF"/>
  <outline>
    <contour>
      <point x="300" y="362" type="curve"/>
      <point x="300" y="399"/>
      <point x="300" y="463"/>
      <point x="300" y="500" type="curve"/>
      <point x="215" y="500"/>
      <point x="300" y="500"/>
      <point x="215" y="500" type="curve"/>
      <point x="215" y="463"/>
      <point x="215" y="399"/>
      <point x="215" y="362" type="curve"/>
      <point x="300" y="362"/>
      <point x="215" y="362"/>
    </contour>
    <contour>
      <point x="387" y="123" type="line"/>
      <point x="356" y="88"/>
      <point x="316" y="62"/>
      <point x="262" y="62" type="curve"/>
      <point x="179" y="62"/>
      <point x="130" y="118"/>
      <point x="130" y="203" type="curve"/>
      <point x="130" y="299"/>
      <point x="191" y="362"/>
      <point x="290" y="362" type="curve"/>
      <point x="290" y="392"/>
      <point x="291" y="401"/>
      <point x="291" y="431" type="curve"/>
      <point x="141" y="431"/>
      <point x="44" y="343"/>
      <point x="44" y="203" type="curve"/>
      <point x="44" y="70"/>
      <point x="129" y="-12"/>
      <point x="258" y="-12" type="curve"/>
      <point x="336" y="-12"/>
      <point x="392" y="18"/>
      <point x="435" y="69" type="curve"/>
    </contour>
    <contour>
      <point x="207" y="689" type="curve"/>
      <point x="207" y="658"/>
      <point x="228" y="642"/>
      <point x="258" y="642" type="curve"/>
      <point x="288" y="642"/>
      <point x="307" y="660"/>
      <point x="307" y="689" type="curve"/>
      <point x="207" y="689"/>
      <point x="307" y="689"/>
      <point x="207" y="689" type="curve"/>
      <point x="207" y="720"/>
      <point x="228" y="735"/>
      <point x="258" y="735" type="curve"/>
      <point x="288" y="735"/>
      <point x="307" y="719"/>
      <point x="307" y="689" type="curve"/>
      <point x="207" y="689"/>
      <point x="307" y="689"/>
    </contour>
  </outline>
</glyph>
<glyph name="Atilde" format="1">
  <advance width="616"/>
  <unicode hex="00C3"/>
  <outline>
    <contour>
      <point x="452" y="289" type="curve"/>
      <point x="357" y="289"/>
      <point x="262" y="289"/>
      <point x="167" y="289" type="curve"/>
      <point x="130" y="215"/>
      <point x="167" y="289"/>
      <point x="130" y="215" type="curve"/>
      <point x="247" y="215"/>
      <point x="364" y="215"/>
      <point x="481" y="215" type="curve"/>
      <point x="452" y="289"/>
      <point x="481" y="215"/>
    </contour>
    <contour>
      <point x="600" y="0" type="curve"/>
      <point x="520" y="241"/>
      <point x="437" y="481"/>
      <point x="356" y="722" type="curve"/>
      <point x="275" y="722"/>
      <point x="356" y="722"/>
      <point x="275" y="722" type="curve"/>
      <point x="353" y="482"/>
      <point x="428" y="240"/>
      <point x="506" y="0" type="curve"/>
      <point x="600" y="0"/>
      <point x="506" y="0"/>
    </contour>
    <contour>
      <point x="98" y="0" type="curve"/>
      <point x="185" y="240"/>
      <point x="267" y="482"/>
      <point x="355" y="722" type="curve"/>
      <point x="273" y="722"/>
      <point x="355" y="722"/>
      <point x="273" y="722" type="curve"/>
      <point x="184" y="480"/>
      <point x="89" y="242"/>
      <point x="0" y="0" type="curve"/>
      <point x="98" y="0"/>
      <point x="0" y="0"/>
    </contour>
    <contour>
      <point x="444" y="959" type="curve"/>
      <point x="430" y="916"/>
      <point x="417" y="885"/>
      <point x="388" y="885" type="curve"/>
      <point x="357" y="885"/>
      <point x="341" y="898"/>
      <point x="319" y="920" type="curve"/>
      <point x="291" y="947"/>
      <point x="272" y="964"/>
      <point x="234" y="964" type="curve"/>
      <point x="165" y="964"/>
      <point x="135" y="905"/>
      <point x="116" y="836" type="curve"/>
      <point x="183" y="802"/>
      <point x="117" y="837"/>
      <point x="183" y="802" type="curve"/>
      <point x="199" y="850"/>
      <point x="214" y="878"/>
      <point x="247" y="878" type="curve"/>
      <point x="275" y="878"/>
      <point x="288" y="864"/>
      <point x="307" y="845" type="curve"/>
      <point x="338" y="814"/>
      <point x="360" y="798"/>
      <point x="401" y="798" type="curve"/>
      <point x="470" y="798"/>
      <point x="493" y="857"/>
      <point x="515" y="927" type="curve"/>
      <point x="444" y="959"/>
      <point x="515" y="926"/>
    </contour>
  </outline>
</glyph>
<glyph name="Adieresis" format="1">
  <advance width="616"/>
  <unicode hex="00C4"/>
  <outline>
    <contour>
      <point x="452" y="289" type="curve"/>
      <point x="357" y="289"/>
      <point x="262" y="289"/>
      <point x="167" y="289" type="curve"/>
      <point x="130" y="215"/>
      <point x="167" y="289"/>
      <point x="130" y="215" type="curve"/>
      <point x="247" y="215"/>
      <point x="364" y="215"/>
      <point x="481" y="215" type="curve"/>
      <point x="452" y="289"/>
      <point x="481" y="215"/>
    </contour>
    <contour>
      <point x="600" y="0" type="curve"/>
      <point x="520" y="241"/>
      <point x="437" y="481"/>
      <point x="356" y="722" type="curve"/>
      <point x="275" y="722"/>
      <point x="356" y="722"/>
      <point x="275" y="722" type="curve"/>
      <point x="353" y="482"/>
      <point x="428" y="240"/>
      <point x="506" y="0" type="curve"/>
      <point x="600" y="0"/>
      <point x="506" y="0"/>
    </contour>
    <contour>
      <point x="98" y="0" type="curve"/>
      <point x="185" y="240"/>
      <point x="267" y="482"/>
      <point x="355" y="722" type="curve"/>
      <point x="273" y="722"/>
      <point x="355" y="722"/>
      <point x="273" y="722" type="curve"/>
      <point x="184" y="480"/>
      <point x="89" y="242"/>
      <point x="0" y="0" type="curve"/>
      <point x="98" y="0"/>
      <point x="0" y="0"/>
    </contour>
    <contour>
      <point x="284" y="844" type="curve"/>
      <point x="284" y="875"/>
      <point x="262" y="891"/>
      <point x="232" y="891" type="curve"/>
      <point x="202" y="891"/>
      <point x="182" y="873"/>
      <point x="182" y="844" type="curve"/>
      <point x="281" y="844"/>
      <point x="185" y="844"/>
      <point x="284" y="844" type="curve"/>
      <point x="284" y="812"/>
      <point x="262" y="797"/>
      <point x="232" y="797" type="curve"/>
      <point x="201" y="797"/>
      <point x="182" y="813"/>
      <point x="182" y="844" type="curve"/>
      <point x="281" y="844"/>
      <point x="185" y="844"/>
    </contour>
    <contour>
      <point x="445" y="844" type="curve"/>
      <point x="445" y="875"/>
      <point x="423" y="891"/>
      <point x="393" y="891" type="curve"/>
      <point x="363" y="891"/>
      <point x="343" y="873"/>
      <point x="343" y="844" type="curve"/>
      <point x="442" y="844"/>
      <point x="346" y="844"/>
      <point x="445" y="844" type="curve"/>
      <point x="445" y="812"/>
      <point x="423" y="797"/>
      <point x="393" y="797" type="curve"/>
      <point x="363" y="797"/>
      <point x="343" y="813"/>
      <point x="343" y="844" type="curve"/>
      <point x="442" y="844"/>
      <point x="346" y="844"/>
    </contour>
  </outline>
</glyph>
<glyph name="Aring" format="1">
  <advance width="616"/>
  <unicode hex="00C5"/>
  <outline>
    <contour>
      <point x="452" y="289" type="curve"/>
      <point x="357" y="289"/>
      <point x="262" y="289"/>
      <point x="167" y="289" type="curve"/>
      <point x="130" y="215"/>
      <point x="167" y="289"/>
      <point x="130" y="215" type="curve"/>
      <point x="247" y="215"/>
      <point x="364" y="215"/>
      <point x="481" y="215" type="curve"/>
      <point x="452" y="289"/>
      <point x="481" y="215"/>
    </contour>
    <contour>
      <point x="600" y="0" type="curve"/>
      <point x="520" y="241"/>
      <point x="437" y="481"/>
      <point x="356" y="722" type="curve"/>
      <point x="275" y="722"/>
      <point x="356" y="722"/>
      <point x="275" y="722" type="curve"/>
      <point x="353" y="482"/>
      <point x="428" y="240"/>
      <point x="506" y="0" type="curve"/>
      <point x="600" y="0"/>
      <point x="506" y="0"/>
    </contour>
    <contour>
      <point x="98" y="0" type="curve"/>
      <point x="185" y="240"/>
      <point x="267" y="482"/>
      <point x="355" y="722" type="curve"/>
      <point x="273" y="722"/>
      <point x="355" y="722"/>
      <point x="273" y="722" type="curve"/>
      <point x="184" y="480"/>
      <point x="89" y="242"/>
      <point x="0" y="0" type="curve"/>
      <point x="98" y="0"/>
      <point x="0" y="0"/>
    </contour>
    <contour>
      <point x="180" y="933" type="curve"/>
      <point x="180" y="850"/>
      <point x="231" y="799"/>
      <point x="313" y="799" type="curve"/>
      <point x="397" y="799"/>
      <point x="448" y="849"/>
      <point x="448" y="933" type="curve"/>
      <point x="448" y="1016"/>
      <point x="396" y="1066"/>
      <point x="311" y="1066" type="curve"/>
      <point x="229" y="1066"/>
      <point x="180" y="1015"/>
      <point x="180" y="933" type="curve"/>
      <point x="259" y="933"/>
      <point x="176" y="933"/>
      <point x="254" y="933" type="curve"/>
      <point x="254" y="973"/>
      <point x="270" y="1003"/>
      <point x="311" y="1003" type="curve"/>
      <point x="353" y="1003"/>
      <point x="372" y="975"/>
      <point x="372" y="933" type="curve"/>
      <point x="372" y="891"/>
      <point x="354" y="862"/>
      <point x="313" y="862" type="curve"/>
      <point x="272" y="862"/>
      <point x="254" y="892"/>
      <point x="254" y="933" type="curve"/>
      <point x="176" y="933"/>
      <point x="259" y="933"/>
    </contour>
  </outline>
</glyph>
<glyph name="AE" format="1">
  <advance width="845"/>
  <unicode hex="00C6"/>
  <outline>
    <contour>
      <point x="409" y="275" type="curve"/>
      <point x="315" y="275"/>
      <point x="266" y="275"/>
      <point x="171" y="275" type="curve"/>
      <point x="134" y="201"/>
      <point x="171" y="275"/>
      <point x="134" y="201" type="curve"/>
      <point x="251" y="201"/>
      <point x="322" y="201"/>
      <point x="438" y="201" type="curve"/>
      <point x="409" y="275"/>
      <point x="438" y="201"/>
    </contour>
    <contour>
      <point x="90" y="0" type="curve"/>
      <point x="478" y="722" type="line"/>
      <point x="396" y="722"/>
      <point x="477" y="722"/>
      <point x="395" y="722" type="curve"/>
      <point x="-9" y="0" type="line"/>
      <point x="89" y="0"/>
      <point x="-9" y="0"/>
    </contour>
    <contour>
      <point x="445" y="338" type="curve"/>
      <point x="541" y="338"/>
      <point x="638" y="338"/>
      <point x="735" y="338" type="curve"/>
      <point x="735" y="408"/>
      <point x="735" y="338"/>
      <point x="735" y="408" type="curve"/>
      <point x="638" y="408"/>
      <point x="541" y="408"/>
      <point x="445" y="408" type="curve"/>
      <point x="445" y="338"/>
      <point x="445" y="408"/>
    </contour>
    <contour>
      <point x="431" y="652" type="curve"/>
      <point x="552" y="652"/>
      <point x="671" y="652"/>
      <point x="791" y="652" type="curve"/>
      <point x="791" y="722"/>
      <point x="791" y="652"/>
      <point x="791" y="722" type="curve"/>
      <point x="671" y="722"/>
      <point x="552" y="722"/>
      <point x="431" y="722" type="curve"/>
      <point x="431" y="652"/>
      <point x="431" y="722"/>
    </contour>
    <contour>
      <point x="486" y="0" type="curve"/>
      <point x="486" y="722" type="line"/>
      <point x="396" y="722"/>
      <point x="486" y="722"/>
      <point x="396" y="722" type="curve"/>
      <point x="396" y="481"/>
      <point x="396" y="241"/>
      <point x="396" y="0" type="curve"/>
      <point x="486" y="0"/>
      <point x="396" y="0"/>
    </contour>
    <contour>
      <point x="431" y="0" type="curve"/>
      <point x="561" y="0"/>
      <point x="691" y="0"/>
      <point x="821" y="0" type="curve"/>
      <point x="821" y="70"/>
      <point x="821" y="0"/>
      <point x="821" y="70" type="curve"/>
      <point x="691" y="70"/>
      <point x="561" y="70"/>
      <point x="431" y="70" type="curve"/>
      <point x="431" y="0"/>
      <point x="431" y="70"/>
    </contour>
  </outline>
</glyph>
<glyph name="Ccedilla" format="1">
  <advance width="623"/>
  <unicode hex="00C7"/>
  <outline>
    <contour>
      <point x="590" y="654" type="curve"/>
      <point x="527" y="696"/>
      <point x="454" y="727"/>
      <point x="371" y="727" type="curve"/>
      <point x="156" y="727"/>
      <point x="53" y="575"/>
      <point x="53" y="344" type="curve"/>
      <point x="53" y="133"/>
      <point x="151" y="-5"/>
      <point x="352" y="-5" type="curve"/>
      <point x="461" y="-5"/>
      <point x="530" y="29"/>
      <point x="603" y="96" type="curve"/>
      <point x="555" y="150"/>
      <point x="602" y="96"/>
      <point x="554" y="150" type="curve"/>
      <point x="492" y="98"/>
      <point x="439" y="69"/>
      <point x="356" y="69" type="curve"/>
      <point x="204" y="69"/>
      <point x="143" y="184"/>
      <point x="143" y="348" type="curve"/>
      <point x="143" y="526"/>
      <point x="206" y="654"/>
      <point x="367" y="654" type="curve"/>
      <point x="433" y="654"/>
      <point x="492" y="632"/>
      <point x="545" y="598" type="curve"/>
      <point x="590" y="654"/>
      <point x="545" y="598"/>
    </contour>
    <contour>
      <point x="312" y="50" type="curve"/>
      <point x="300" y="26"/>
      <point x="266" y="-39"/>
      <point x="254" y="-63" type="curve"/>
      <point x="316" y="-119"/>
      <point x="254" y="-63"/>
      <point x="316" y="-119" type="curve"/>
      <point x="329" y="-92"/>
      <point x="368" y="-25"/>
      <point x="381" y="1" type="curve"/>
      <point x="312" y="50"/>
      <point x="381" y="1"/>
    </contour>
    <contour>
      <point x="316" y="-119" type="curve"/>
      <point x="324" y="-113"/>
      <point x="331" y="-109"/>
      <point x="341" y="-109" type="curve"/>
      <point x="360" y="-109"/>
      <point x="369" y="-122"/>
      <point x="369" y="-142" type="curve"/>
      <point x="369" y="-165"/>
      <point x="352" y="-176"/>
      <point x="328" y="-176" type="curve"/>
      <point x="306" y="-176"/>
      <point x="289" y="-172"/>
      <point x="268" y="-160" type="curve"/>
      <point x="237" y="-212"/>
      <point x="268" y="-160"/>
      <point x="237" y="-212" type="curve"/>
      <point x="265" y="-229"/>
      <point x="290" y="-237"/>
      <point x="324" y="-237" type="curve"/>
      <point x="389" y="-237"/>
      <point x="435" y="-205"/>
      <point x="435" y="-140" type="curve"/>
      <point x="435" y="-80"/>
      <point x="397" y="-43"/>
      <point x="338" y="-43" type="curve"/>
      <point x="306" y="-43"/>
      <point x="283" y="-49"/>
      <point x="254" y="-63" type="curve"/>
      <point x="316" y="-119"/>
      <point x="254" y="-63"/>
    </contour>
  </outline>
</glyph>
<glyph name="Egrave" format="1">
  <advance width="550"/>
  <unicode hex="00C8"/>
  <outline>
    <contour>
      <point x="150" y="338" type="curve"/>
      <point x="246" y="338"/>
      <point x="343" y="338"/>
      <point x="440" y="338" type="curve"/>
      <point x="440" y="408"/>
      <point x="440" y="338"/>
      <point x="440" y="408" type="curve"/>
      <point x="343" y="408"/>
      <point x="246" y="408"/>
      <point x="150" y="408" type="curve"/>
      <point x="150" y="338"/>
      <point x="150" y="408"/>
    </contour>
    <contour>
      <point x="137" y="652" type="curve"/>
      <point x="257" y="652"/>
      <point x="376" y="652"/>
      <point x="496" y="652" type="curve"/>
      <point x="496" y="722"/>
      <point x="496" y="652"/>
      <point x="496" y="722" type="curve"/>
      <point x="376" y="722"/>
      <point x="257" y="722"/>
      <point x="137" y="722" type="curve"/>
      <point x="137" y="652"/>
      <point x="137" y="722"/>
    </contour>
    <contour>
      <point x="191" y="0" type="curve"/>
      <point x="191" y="722" type="line"/>
      <point x="101" y="722"/>
      <point x="191" y="722"/>
      <point x="101" y="722" type="curve"/>
      <point x="101" y="481"/>
      <point x="101" y="241"/>
      <point x="101" y="0" type="curve"/>
      <point x="191" y="0"/>
      <point x="101" y="0"/>
    </contour>
    <contour>
      <point x="137" y="0" type="curve"/>
      <point x="266" y="0"/>
      <point x="396" y="0"/>
      <point x="526" y="0" type="curve"/>
      <point x="526" y="70"/>
      <point x="526" y="0"/>
      <point x="526" y="70" type="curve"/>
      <point x="396" y="70"/>
      <point x="266" y="70"/>
      <point x="137" y="70" type="curve"/>
      <point x="137" y="0"/>
      <point x="137" y="70"/>
    </contour>
    <contour>
      <point x="322" y="801" type="line"/>
      <point x="223" y="967" type="line"/>
      <point x="109" y="967" type="line"/>
      <point x="235" y="801" type="line"/>
    </contour>
  </outline>
</glyph>
<glyph name="Ecircumflex" format="1">
  <advance width="526"/>
  <unicode hex="00CA"/>
  <outline>
    <contour>
      <point x="134" y="338" type="curve"/>
      <point x="230" y="338"/>
      <point x="327" y="338"/>
      <point x="424" y="338" type="curve"/>
      <point x="424" y="408"/>
      <point x="424" y="338"/>
      <point x="424" y="408" type="curve"/>
      <point x="327" y="408"/>
      <point x="230" y="408"/>
      <point x="134" y="408" type="curve"/>
      <point x="134" y="338"/>
      <point x="134" y="408"/>
    </contour>
    <contour>
      <point x="120" y="652" type="curve"/>
      <point x="241" y="652"/>
      <point x="360" y="652"/>
      <point x="480" y="652" type="curve"/>
      <point x="480" y="722"/>
      <point x="480" y="652"/>
      <point x="480" y="722" type="curve"/>
      <point x="360" y="722"/>
      <point x="241" y="722"/>
      <point x="120" y="722" type="curve"/>
      <point x="120" y="652"/>
      <point x="120" y="722"/>
    </contour>
    <contour>
      <point x="175" y="0" type="curve"/>
      <point x="175" y="722" type="line"/>
      <point x="85" y="722"/>
      <point x="175" y="722"/>
      <point x="85" y="722" type="curve"/>
      <point x="85" y="481"/>
      <point x="85" y="241"/>
      <point x="85" y="0" type="curve"/>
      <point x="175" y="0"/>
      <point x="85" y="0"/>
    </contour>
    <contour>
      <point x="120" y="0" type="curve"/>
      <point x="250" y="0"/>
      <point x="380" y="0"/>
      <point x="510" y="0" type="curve"/>
      <point x="510" y="70"/>
      <point x="510" y="0"/>
      <point x="510" y="70" type="curve"/>
      <point x="380" y="70"/>
      <point x="250" y="70"/>
      <point x="120" y="70" type="curve"/>
      <point x="120" y="0"/>
      <point x="120" y="70"/>
    </contour>
    <contour>
      <point x="174" y="801" type="line"/>
      <point x="299" y="967" type="line"/>
      <point x="186" y="967" type="line"/>
      <point x="87" y="801" type="line"/>
    </contour>
    <contour>
      <point x="432" y="801" type="line"/>
      <point x="332" y="967" type="line"/>
      <point x="219" y="967" type="line"/>
      <point x="344" y="801" type="line"/>
    </contour>
  </outline>
</glyph>
<glyph name="Edieresis" format="1">
  <advance width="542"/>
  <unicode hex="00CB"/>
  <outline>
    <contour>
      <point x="142" y="338" type="curve"/>
      <point x="238" y="338"/>
      <point x="335" y="338"/>
      <point x="432" y="338" type="curve"/>
      <point x="432" y="408"/>
      <point x="432" y="338"/>
      <point x="432" y="408" type="curve"/>
      <point x="335" y="408"/>
      <point x="238" y="408"/>
      <point x="142" y="408" type="curve"/>
      <point x="142" y="338"/>
      <point x="142" y="408"/>
    </contour>
    <contour>
      <point x="129" y="652" type="curve"/>
      <point x="249" y="652"/>
      <point x="368" y="652"/>
      <point x="488" y="652" type="curve"/>
      <point x="488" y="722"/>
      <point x="488" y="652"/>
      <point x="488" y="722" type="curve"/>
      <point x="368" y="722"/>
      <point x="249" y="722"/>
      <point x="129" y="722" type="curve"/>
      <point x="129" y="652"/>
      <point x="129" y="722"/>
    </contour>
    <contour>
      <point x="183" y="0" type="curve"/>
      <point x="183" y="722" type="line"/>
      <point x="93" y="722"/>
      <point x="183" y="722"/>
      <point x="93" y="722" type="curve"/>
      <point x="93" y="481"/>
      <point x="93" y="241"/>
      <point x="93" y="0" type="curve"/>
      <point x="183" y="0"/>
      <point x="93" y="0"/>
    </contour>
    <contour>
      <point x="129" y="0" type="curve"/>
      <point x="258" y="0"/>
      <point x="388" y="0"/>
      <point x="518" y="0" type="curve"/>
      <point x="518" y="70"/>
      <point x="518" y="0"/>
      <point x="518" y="70" type="curve"/>
      <point x="388" y="70"/>
      <point x="258" y="70"/>
      <point x="129" y="70" type="curve"/>
      <point x="129" y="0"/>
      <point x="129" y="70"/>
    </contour>
    <contour>
      <point x="238" y="844" type="curve"/>
      <point x="238" y="875"/>
      <point x="216" y="891"/>
      <point x="186" y="891" type="curve"/>
      <point x="156" y="891"/>
      <point x="137" y="873"/>
      <point x="137" y="844" type="curve"/>
      <point x="235" y="844"/>
      <point x="140" y="844"/>
      <point x="238" y="844" type="curve"/>
      <point x="238" y="812"/>
      <point x="217" y="797"/>
      <point x="186" y="797" type="curve"/>
      <point x="156" y="797"/>
      <point x="137" y="813"/>
      <point x="137" y="844" type="curve"/>
      <point x="235" y="844"/>
      <point x="140" y="844"/>
    </contour>
    <contour>
      <point x="399" y="844" type="curve"/>
      <point x="399" y="875"/>
      <point x="377" y="891"/>
      <point x="347" y="891" type="curve"/>
      <point x="317" y="891"/>
      <point x="298" y="873"/>
      <point x="298" y="844" type="curve"/>
      <point x="396" y="844"/>
      <point x="301" y="844"/>
      <point x="399" y="844" type="curve"/>
      <point x="399" y="812"/>
      <point x="378" y="797"/>
      <point x="347" y="797" type="curve"/>
      <point x="317" y="797"/>
      <point x="298" y="813"/>
      <point x="298" y="844" type="curve"/>
      <point x="396" y="844"/>
      <point x="301" y="844"/>
    </contour>
  </outline>
</glyph>
<glyph name="Igrave" format="1">
  <advance width="290"/>
  <unicode hex="00CC"/>
  <outline>
    <contour>
      <point x="193" y="0" type="curve"/>
      <point x="193" y="241"/>
      <point x="193" y="481"/>
      <point x="193" y="722" type="curve"/>
      <point x="103" y="722"/>
      <point x="193" y="722"/>
      <point x="103" y="722" type="curve"/>
      <point x="103" y="481"/>
      <point x="103" y="241"/>
      <point x="103" y="0" type="curve"/>
      <point x="193" y="0"/>
      <point x="103" y="0"/>
    </contour>
    <contour>
      <point x="196" y="801" type="line"/>
      <point x="96" y="967" type="line"/>
      <point x="-17" y="967" type="line"/>
      <point x="108" y="801" type="line"/>
    </contour>
  </outline>
</glyph>
<glyph name="Iacute" format="1">
  <advance width="286"/>
  <unicode hex="00CD"/>
  <outline>
    <contour>
      <point x="185" y="0" type="curve"/>
      <point x="185" y="241"/>
      <point x="185" y="481"/>
      <point x="185" y="722" type="curve"/>
      <point x="95" y="722"/>
      <point x="185" y="722"/>
      <point x="95" y="722" type="curve"/>
      <point x="95" y="481"/>
      <point x="95" y="241"/>
      <point x="95" y="0" type="curve"/>
      <point x="185" y="0"/>
      <point x="95" y="0"/>
    </contour>
    <contour>
      <point x="181" y="801" type="line"/>
      <point x="307" y="967" type="line"/>
      <point x="193" y="967" type="line"/>
      <point x="94" y="801" type="line"/>
    </contour>
  </outline>
</glyph>
<glyph name="Icircumflex" format="1">
  <advance width="302"/>
  <unicode hex="00CE"/>
  <outline>
    <contour>
      <point x="199" y="0" type="curve"/>
      <point x="199" y="241"/>
      <point x="199" y="481"/>
      <point x="199" y="722" type="curve"/>
      <point x="109" y="722"/>
      <point x="199" y="722"/>
      <point x="109" y="722" type="curve"/>
      <point x="109" y="481"/>
      <point x="109" y="241"/>
      <point x="109" y="0" type="curve"/>
      <point x="199" y="0"/>
      <point x="109" y="0"/>
    </contour>
    <contour>
      <point x="70" y="801" type="line"/>
      <point x="195" y="967" type="line"/>
      <point x="82" y="967" type="line"/>
      <point x="-17" y="801" type="line"/>
    </contour>
    <contour>
      <point x="328" y="801" type="line"/>
      <point x="228" y="967" type="line"/>
      <point x="115" y="967" type="line"/>
      <point x="240" y="801" type="line"/>
    </contour>
  </outline>
</glyph>
<glyph name="Idieresis" format="1">
  <advance width="264"/>
  <unicode hex="00CF"/>
  <outline>
    <contour>
      <point x="179" y="0" type="curve"/>
      <point x="179" y="241"/>
      <point x="179" y="481"/>
      <point x="179" y="722" type="curve"/>
      <point x="89" y="722"/>
      <point x="179" y="722"/>
      <point x="89" y="722" type="curve"/>
      <point x="89" y="481"/>
      <point x="89" y="241"/>
      <point x="89" y="0" type="curve"/>
      <point x="179" y="0"/>
      <point x="89" y="0"/>
    </contour>
    <contour>
      <point x="106" y="844" type="curve"/>
      <point x="106" y="875"/>
      <point x="84" y="891"/>
      <point x="54" y="891" type="curve"/>
      <point x="24" y="891"/>
      <point x="4" y="873"/>
      <point x="4" y="844" type="curve"/>
      <point x="103" y="844"/>
      <point x="7" y="844"/>
      <point x="106" y="844" type="curve"/>
      <point x="106" y="812"/>
      <point x="84" y="797"/>
      <point x="54" y="797" type="curve"/>
      <point x="23" y="797"/>
      <point x="4" y="813"/>
      <point x="4" y="844" type="curve"/>
      <point x="103" y="844"/>
      <point x="7" y="844"/>
    </contour>
    <contour>
      <point x="267" y="844" type="curve"/>
      <point x="267" y="875"/>
      <point x="245" y="891"/>
      <point x="215" y="891" type="curve"/>
      <point x="185" y="891"/>
      <point x="166" y="873"/>
      <point x="166" y="844" type="curve"/>
      <point x="264" y="844"/>
      <point x="169" y="844"/>
      <point x="267" y="844" type="curve"/>
      <point x="267" y="812"/>
      <point x="246" y="797"/>
      <point x="215" y="797" type="curve"/>
      <point x="185" y="797"/>
      <point x="166" y="813"/>
      <point x="166" y="844" type="curve"/>
      <point x="264" y="844"/>
      <point x="169" y="844"/>
    </contour>
  </outline>
</glyph>
<glyph name="Ntilde" format="1">
  <advance width="760"/>
  <unicode hex="00D1"/>
  <outline>
    <contour>
      <point x="665" y="0" type="curve"/>
      <point x="508" y="241"/>
      <point x="351" y="481"/>
      <point x="193" y="722" type="curve"/>
      <point x="94" y="722"/>
      <point x="193" y="722"/>
      <point x="94" y="722" type="curve"/>
      <point x="251" y="481"/>
      <point x="408" y="241"/>
      <point x="566" y="0" type="curve"/>
      <point x="665" y="0"/>
      <point x="566" y="0"/>
    </contour>
    <contour>
      <point x="576" y="722" type="curve"/>
      <point x="576" y="481"/>
      <point x="576" y="241"/>
      <point x="576" y="0" type="curve"/>
      <point x="666" y="0"/>
      <point x="576" y="0"/>
      <point x="666" y="0" type="curve"/>
      <point x="666" y="241"/>
      <point x="666" y="481"/>
      <point x="666" y="722" type="curve"/>
      <point x="576" y="722"/>
      <point x="666" y="722"/>
    </contour>
    <contour>
      <point x="184" y="0" type="curve"/>
      <point x="184" y="241"/>
      <point x="184" y="481"/>
      <point x="184" y="722" type="curve"/>
      <point x="94" y="722"/>
      <point x="184" y="722"/>
      <point x="94" y="722" type="curve"/>
      <point x="94" y="481"/>
      <point x="94" y="241"/>
      <point x="94" y="0" type="curve"/>
      <point x="184" y="0"/>
      <point x="94" y="0"/>
    </contour>
    <contour>
      <point x="514" y="959" type="curve"/>
      <point x="501" y="916"/>
      <point x="488" y="885"/>
      <point x="459" y="885" type="curve"/>
      <point x="428" y="885"/>
      <point x="411" y="898"/>
      <point x="390" y="920" type="curve"/>
      <point x="362" y="947"/>
      <point x="342" y="964"/>
      <point x="305" y="964" type="curve"/>
      <point x="236" y="964"/>
      <point x="206" y="905"/>
      <point x="187" y="836" type="curve"/>
      <point x="254" y="802"/>
      <point x="187" y="837"/>
      <point x="254" y="802" type="curve"/>
      <point x="270" y="850"/>
      <point x="284" y="878"/>
      <point x="318" y="878" type="curve"/>
      <point x="346" y="878"/>
      <point x="359" y="864"/>
      <point x="377" y="845" type="curve"/>
      <point x="408" y="814"/>
      <point x="430" y="798"/>
      <point x="472" y="798" type="curve"/>
      <point x="541" y="798"/>
      <point x="564" y="857"/>
      <point x="586" y="927" type="curve"/>
      <point x="514" y="959"/>
      <point x="586" y="926"/>
    </contour>
  </outline>
</glyph>
<glyph name="Otilde" format="1">
  <advance width="704"/>
  <unicode hex="00D5"/>
  <outline>
    <contour>
      <point x="143" y="360" type="curve" name="FullCurve"/>
      <point x="143" y="525"/>
      <point x="197" y="654"/>
      <point x="349" y="654" type="curve" name="FullCurve"/>
      <point x="501" y="654"/>
      <point x="561" y="528"/>
      <point x="561" y="363" type="curve" name="FullCurve"/>
      <point x="561" y="199"/>
      <point x="507" y="69"/>
      <point x="354" y="69" type="curve" name="FullCurve"/>
      <point x="201" y="69"/>
      <point x="143" y="195"/>
      <point x="143" y="360" type="curve" name="FullCurve"/>
      <point x="53" y="360"/>
      <point x="143" y="360"/>
      <point x="53" y="360" type="curve" name="FullCurve"/>
      <point x="53" y="147"/>
      <point x="150" y="-5"/>
      <point x="351" y="-5" type="curve" name="FullCurve"/>
      <point x="553" y="-5"/>
      <point x="651" y="149"/>
      <point x="651" y="363" type="curve" name="FullCurve"/>
      <point x="651" y="574"/>
      <point x="555" y="727"/>
      <point x="354" y="727" type="curve" name="FullCurve"/>
      <point x="152" y="727"/>
      <point x="53" y="573"/>
      <point x="53" y="360" type="curve" name="FullCurve"/>
      <point x="143" y="360"/>
      <point x="53" y="360"/>
    </contour>
    <contour>
      <point x="483" y="959" type="curve"/>
      <point x="470" y="916"/>
      <point x="457" y="885"/>
      <point x="428" y="885" type="curve"/>
      <point x="397" y="885"/>
      <point x="380" y="898"/>
      <point x="359" y="920" type="curve"/>
      <point x="331" y="947"/>
      <point x="311" y="964"/>
      <point x="274" y="964" type="curve"/>
      <point x="205" y="964"/>
      <point x="175" y="905"/>
      <point x="156" y="836" type="curve"/>
      <point x="223" y="802"/>
      <point x="156" y="837"/>
      <point x="223" y="802" type="curve"/>
      <point x="238" y="850"/>
      <point x="253" y="878"/>
      <point x="287" y="878" type="curve"/>
      <point x="315" y="878"/>
      <point x="328" y="864"/>
      <point x="346" y="845" type="curve"/>
      <point x="377" y="814"/>
      <point x="399" y="798"/>
      <point x="441" y="798" type="curve"/>
      <point x="510" y="798"/>
      <point x="533" y="857"/>
      <point x="555" y="927" type="curve"/>
      <point x="483" y="959"/>
      <point x="555" y="926"/>
    </contour>
  </outline>
</glyph>
<glyph name="Odieresis" format="1">
  <advance width="704"/>
  <unicode hex="00D6"/>
  <outline>
    <contour>
      <point x="143" y="360" type="curve" name="FullCurve"/>
      <point x="143" y="525"/>
      <point x="197" y="654"/>
      <point x="349" y="654" type="curve" name="FullCurve"/>
      <point x="501" y="654"/>
      <point x="561" y="528"/>
      <point x="561" y="363" type="curve" name="FullCurve"/>
      <point x="561" y="199"/>
      <point x="507" y="69"/>
      <point x="354" y="69" type="curve" name="FullCurve"/>
      <point x="201" y="69"/>
      <point x="143" y="195"/>
      <point x="143" y="360" type="curve" name="FullCurve"/>
      <point x="53" y="360"/>
      <point x="143" y="360"/>
      <point x="53" y="360" type="curve" name="FullCurve"/>
      <point x="53" y="147"/>
      <point x="150" y="-5"/>
      <point x="351" y="-5" type="curve" name="FullCurve"/>
      <point x="553" y="-5"/>
      <point x="651" y="149"/>
      <point x="651" y="363" type="curve" name="FullCurve"/>
      <point x="651" y="574"/>
      <point x="555" y="727"/>
      <point x="354" y="727" type="curve" name="FullCurve"/>
      <point x="152" y="727"/>
      <point x="53" y="573"/>
      <point x="53" y="360" type="curve" name="FullCurve"/>
      <point x="143" y="360"/>
      <point x="53" y="360"/>
    </contour>
    <contour>
      <point x="323" y="844" type="curve"/>
      <point x="323" y="875"/>
      <point x="302" y="891"/>
      <point x="272" y="891" type="curve"/>
      <point x="242" y="891"/>
      <point x="222" y="873"/>
      <point x="222" y="844" type="curve"/>
      <point x="320" y="844"/>
      <point x="225" y="844"/>
      <point x="323" y="844" type="curve"/>
      <point x="323" y="812"/>
      <point x="302" y="797"/>
      <point x="272" y="797" type="curve"/>
      <point x="241" y="797"/>
      <point x="222" y="813"/>
      <point x="222" y="844" type="curve"/>
      <point x="320" y="844"/>
      <point x="225" y="844"/>
    </contour>
    <contour>
      <point x="484" y="844" type="curve"/>
      <point x="484" y="875"/>
      <point x="463" y="891"/>
      <point x="433" y="891" type="curve"/>
      <point x="403" y="891"/>
      <point x="383" y="873"/>
      <point x="383" y="844" type="curve"/>
      <point x="481" y="844"/>
      <point x="386" y="844"/>
      <point x="484" y="844" type="curve"/>
      <point x="484" y="812"/>
      <point x="463" y="797"/>
      <point x="433" y="797" type="curve"/>
      <point x="402" y="797"/>
      <point x="383" y="813"/>
      <point x="383" y="844" type="curve"/>
      <point x="481" y="844"/>
      <point x="386" y="844"/>
    </contour>
  </outline>
</glyph>
<glyph name="multiply" format="1">
  <advance width="559"/>
  <unicode hex="00D7"/>
  <outline>
    <contour>
      <point x="105" y="80" type="line"/>
      <point x="506" y="488" type="line"/>
      <point x="453" y="541" type="line"/>
      <point x="53" y="132" type="line"/>
    </contour>
    <contour>
      <point x="507" y="131" type="line"/>
      <point x="105" y="540" type="line"/>
      <point x="53" y="487" type="line"/>
      <point x="454" y="78" type="line"/>
    </contour>
  </outline>
</glyph>
<glyph name="Uacute" format="1">
  <advance width="699"/>
  <unicode hex="00DA"/>
  <outline>
    <contour>
      <point x="86" y="722" type="curve"/>
      <point x="86" y="576"/>
      <point x="86" y="419"/>
      <point x="86" y="273" type="curve"/>
      <point x="86" y="91"/>
      <point x="168" y="-5"/>
      <point x="348" y="-5" type="curve"/>
      <point x="529" y="-5"/>
      <point x="613" y="92"/>
      <point x="613" y="276" type="curve"/>
      <point x="613" y="421"/>
      <point x="613" y="578"/>
      <point x="613" y="722" type="curve"/>
      <point x="533" y="722"/>
      <point x="611" y="722"/>
      <point x="531" y="722" type="curve"/>
      <point x="531" y="573"/>
      <point x="531" y="415"/>
      <point x="531" y="267" type="curve"/>
      <point x="531" y="143"/>
      <point x="474" y="72"/>
      <point x="355" y="72" type="curve"/>
      <point x="222" y="72"/>
      <point x="168" y="149"/>
      <point x="168" y="287" type="curve"/>
      <point x="168" y="428"/>
      <point x="168" y="582"/>
      <point x="168" y="722" type="curve"/>
      <point x="88" y="722"/>
      <point x="166" y="722"/>
    </contour>
    <contour>
      <point x="392" y="801" type="line"/>
      <point x="518" y="967" type="line"/>
      <point x="404" y="967" type="line"/>
      <point x="305" y="801" type="line"/>
    </contour>
  </outline>
</glyph>
<glyph name="Udieresis" format="1">
  <advance width="699"/>
  <unicode hex="00DC"/>
  <outline>
    <contour>
      <point x="86" y="722" type="curve"/>
      <point x="86" y="576"/>
      <point x="86" y="419"/>
      <point x="86" y="273" type="curve"/>
      <point x="86" y="91"/>
      <point x="168" y="-5"/>
      <point x="348" y="-5" type="curve"/>
      <point x="529" y="-5"/>
      <point x="613" y="92"/>
      <point x="613" y="276" type="curve"/>
      <point x="613" y="421"/>
      <point x="613" y="578"/>
      <point x="613" y="722" type="curve"/>
      <point x="533" y="722"/>
      <point x="611" y="722"/>
      <point x="531" y="722" type="curve"/>
      <point x="531" y="573"/>
      <point x="531" y="415"/>
      <point x="531" y="267" type="curve"/>
      <point x="531" y="143"/>
      <point x="474" y="72"/>
      <point x="355" y="72" type="curve"/>
      <point x="222" y="72"/>
      <point x="168" y="149"/>
      <point x="168" y="287" type="curve"/>
      <point x="168" y="428"/>
      <point x="168" y="582"/>
      <point x="168" y="722" type="curve"/>
      <point x="88" y="722"/>
      <point x="166" y="722"/>
    </contour>
    <contour>
      <point x="323" y="844" type="curve"/>
      <point x="323" y="875"/>
      <point x="301" y="891"/>
      <point x="272" y="891" type="curve"/>
      <point x="242" y="891"/>
      <point x="222" y="873"/>
      <point x="222" y="844" type="curve"/>
      <point x="320" y="844"/>
      <point x="225" y="844"/>
      <point x="323" y="844" type="curve"/>
      <point x="323" y="812"/>
      <point x="302" y="797"/>
      <point x="272" y="797" type="curve"/>
      <point x="241" y="797"/>
      <point x="222" y="813"/>
      <point x="222" y="844" type="curve"/>
      <point x="320" y="844"/>
      <point x="225" y="844"/>
    </contour>
    <contour>
      <point x="484" y="844" type="curve"/>
      <point x="484" y="875"/>
      <point x="463" y="891"/>
      <point x="433" y="891" type="curve"/>
      <point x="403" y="891"/>
      <point x="383" y="873"/>
      <point x="383" y="844" type="curve"/>
      <point x="481" y="844"/>
      <point x="386" y="844"/>
      <point x="484" y="844" type="curve"/>
      <point x="484" y="812"/>
      <point x="463" y="797"/>
      <point x="433" y="797" type="curve"/>
      <point x="402" y="797"/>
      <point x="383" y="813"/>
      <point x="383" y="844" type="curve"/>
      <point x="481" y="844"/>
      <point x="386" y="844"/>
    </contour>
  </outline>
</glyph>
<glyph name="Thorn" format="1">
  <advance width="538"/>
  <unicode hex="00DE"/>
  <outline>
    <contour>
      <point x="127" y="228" type="curve"/>
      <point x="178" y="201"/>
      <point x="228" y="182"/>
      <point x="289" y="182" type="curve"/>
      <point x="418" y="185"/>
      <point x="502" y="262"/>
      <point x="502" y="397" type="curve"/>
      <point x="502" y="530"/>
      <point x="406" y="613"/>
      <point x="260" y="613" type="curve"/>
      <point x="221" y="613"/>
      <point x="182" y="613"/>
      <point x="143" y="613" type="curve"/>
      <point x="143" y="543"/>
      <point x="143" y="613"/>
      <point x="143" y="543" type="curve"/>
      <point x="178" y="543"/>
      <point x="213" y="543"/>
      <point x="248" y="543" type="curve"/>
      <point x="350" y="543"/>
      <point x="412" y="485"/>
      <point x="412" y="394" type="curve"/>
      <point x="412" y="309"/>
      <point x="366" y="251"/>
      <point x="282" y="251" type="curve"/>
      <point x="232" y="251"/>
      <point x="198" y="265"/>
      <point x="156" y="288" type="curve"/>
      <point x="127" y="229"/>
      <point x="156" y="288"/>
    </contour>
    <contour>
      <point x="184" y="0" type="curve"/>
      <point x="184" y="241"/>
      <point x="184" y="481"/>
      <point x="184" y="722" type="curve"/>
      <point x="94" y="722"/>
      <point x="184" y="722"/>
      <point x="94" y="722" type="curve"/>
      <point x="94" y="481"/>
      <point x="94" y="241"/>
      <point x="94" y="0" type="curve"/>
      <point x="184" y="0"/>
      <point x="94" y="0"/>
    </contour>
  </outline>
</glyph>
<glyph name="germandbls" format="1">
  <advance width="543"/>
  <unicode hex="00DF"/>
  <outline>
    <contour>
      <point x="169" y="0" type="curve"/>
      <point x="169" y="201"/>
      <point x="169" y="401"/>
      <point x="169" y="602" type="curve"/>
      <point x="79" y="602"/>
      <point x="169" y="602"/>
      <point x="79" y="602" type="curve"/>
      <point x="79" y="401"/>
      <point x="79" y="201"/>
      <point x="79" y="0" type="curve"/>
      <point x="169" y="0"/>
      <point x="79" y="0"/>
    </contour>
    <contour>
      <point x="169" y="602" type="curve"/>
      <point x="169" y="676"/>
      <point x="203" y="729"/>
      <point x="274" y="729" type="curve"/>
      <point x="346" y="729"/>
      <point x="391" y="684"/>
      <point x="391" y="608" type="curve"/>
      <point x="391" y="530"/>
      <point x="339" y="485"/>
      <point x="261" y="485" type="curve"/>
      <point x="261" y="426"/>
      <point x="261" y="485"/>
      <point x="261" y="426" type="curve"/>
      <point x="388" y="426"/>
      <point x="477" y="489"/>
      <point x="477" y="611" type="curve"/>
      <point x="477" y="730"/>
      <point x="400" y="799"/>
      <point x="279" y="799" type="curve"/>
      <point x="155" y="799"/>
      <point x="79" y="724"/>
      <point x="79" y="602" type="curve"/>
      <point x="169" y="602"/>
      <point x="79" y="602"/>
    </contour>
    <contour>
      <point x="354" y="81" type="curve"/>
      <point x="451" y="105"/>
      <point x="506" y="170"/>
      <point x="506" y="281" type="curve"/>
      <point x="506" y="412"/>
      <point x="411" y="485"/>
      <point x="261" y="485" type="curve"/>
      <point x="261" y="426"/>
      <point x="261" y="485"/>
      <point x="261" y="426" type="curve"/>
      <point x="348" y="426"/>
      <point x="421" y="374"/>
      <point x="421" y="280" type="curve"/>
      <point x="421" y="210"/>
      <point x="384" y="168"/>
      <point x="329" y="150" type="curve"/>
      <point x="354" y="81"/>
      <point x="329" y="150"/>
    </contour>
  </outline>
</glyph>
